<?xml version="1.0" encoding="utf-8"?>
<!-- Generator: Adobe Illustrator 16.0.0, SVG Export Plug-In . SVG Version: 6.00 Build 0)  -->
<!DOCTYPE svg PUBLIC "-//W3C//DTD SVG 1.1//EN" "http://www.w3.org/Graphics/SVG/1.1/DTD/svg11.dtd">
<svg version="1.1" id="Ebene_1" xmlns="http://www.w3.org/2000/svg" xmlns:xlink="http://www.w3.org/1999/xlink" x="0px" y="0px"
	 width="95.543px" height="97.354px" viewBox="0 0 95.543 97.354" enable-background="new 0 0 95.543 97.354" xml:space="preserve">
<path fill="#999999" stroke="#FFFFFF" stroke-miterlimit="10" d="M81.375,23.029c-4.885,1.119-8.213,5.401-8.34,10.188
	l-12.313,2.819C57.127,25.87,46.404,19.792,35.64,22.254c-2.672,0.617-5.107,1.707-7.25,3.152l-8.433-9.07
	c1.397-2.313,1.937-5.141,1.289-7.977c-1.327-5.793-7.1-9.415-12.89-8.086c-5.791,1.33-9.41,7.1-8.082,12.888
	c1.324,5.796,7.096,9.415,12.886,8.088c1.064-0.243,2.051-0.641,2.951-1.151l8.236,8.861C19.902,33.982,17.861,41,19.473,48.037
	c1.59,6.944,6.376,12.321,12.45,14.95l-3.647,11.86c-0.915-0.028-1.841,0.044-2.772,0.255c-5.795,1.328-9.413,7.101-8.085,12.89
	c1.324,5.793,7.097,9.414,12.891,8.084c5.789-1.322,9.409-7.096,8.082-12.892c-0.681-2.971-2.533-5.36-4.959-6.813l3.657-11.887
	c2.637,0.418,5.398,0.354,8.163-0.277c10.625-2.438,17.587-12.349,16.621-22.909l12.369-2.836c2.197,4.256,7.057,6.66,11.942,5.54
	c5.792-1.327,9.409-7.098,8.086-12.892C92.939,25.32,87.168,21.702,81.375,23.029z M5.517,11.962C4.853,9.07,6.661,6.185,9.558,5.52
	c2.896-0.663,5.781,1.145,6.443,4.039c0.663,2.896-1.146,5.783-4.04,6.444C9.064,16.668,6.179,14.861,5.517,11.962z M29.106,90.834
	c-2.893,0.665-5.781-1.146-6.446-4.042c-0.663-2.896,1.15-5.785,4.043-6.443c2.894-0.665,5.78,1.146,6.445,4.041
	S32.003,90.171,29.106,90.834z M36.842,27.5c7.861-1.801,15.682,2.487,18.577,9.755l-4.944,1.136
	c-2.154-4.373-7.086-6.868-12.042-5.732c-0.876,0.2-1.696,0.516-2.463,0.903l-3.848-4.146C33.545,28.554,35.126,27.893,36.842,27.5z
	 M35.584,44.344c-0.663-2.896,1.151-5.78,4.043-6.444c2.897-0.661,5.781,1.146,6.444,4.044c0.667,2.896-1.144,5.78-4.041,6.442
	C39.133,49.05,36.249,47.24,35.584,44.344z M24.716,46.833c-1.166-5.093,0.23-10.164,3.329-13.899l3.887,4.188
	c-1.618,2.382-2.283,5.396-1.589,8.427c0.673,2.936,2.483,5.307,4.862,6.764l-1.687,5.482
	C29.222,55.746,25.861,51.833,24.716,46.833z M44.052,58.96c-1.81,0.413-3.612,0.494-5.356,0.305l1.657-5.385
	c0.946,0.041,1.91-0.027,2.878-0.25c4.815-1.104,8.116-5.273,8.339-9.975l4.984-1.145C56.904,50.154,51.771,57.19,44.052,58.96z
	 M84.982,38.76c-2.896,0.663-5.782-1.146-6.446-4.043c-0.664-2.894,1.148-5.779,4.043-6.442c2.896-0.662,5.783,1.146,6.444,4.041
	C89.686,35.209,87.875,38.096,84.982,38.76z"/>
<g opacity="0.75">
	<path fill="#666666" d="M14.307,47.631c-0.914-1.212-1.368-2.739-1.368-4.585c0-1.845,0.455-3.396,1.368-4.66
		c0.911-1.262,2.088-1.895,3.528-1.895h16.704v-16.45c0-1.334,0.648-2.502,1.944-3.503s2.808-1.503,4.536-1.503
		c1.822,0,3.334,0.502,4.536,1.503c1.199,1.001,1.8,2.169,1.8,3.503v16.45h16.562c1.344,0,2.521,0.656,3.526,1.967
		c1.009,1.31,1.513,2.839,1.513,4.585c0,1.846-0.504,3.375-1.513,4.587c-1.008,1.215-2.187,1.82-3.526,1.82H47.355v16.594
		c0,1.433-0.601,2.601-1.8,3.504c-1.202,0.906-2.714,1.359-4.536,1.359c-1.825,0-3.361-0.453-4.608-1.359
		c-1.249-0.903-1.872-2.071-1.872-3.504V49.451H17.835C16.395,49.451,15.218,48.846,14.307,47.631z"/>
</g>
<g opacity="0.75">
	<path fill="#3399CC" stroke="#000000" d="M12.307,45.631c-0.914-1.212-1.368-2.739-1.368-4.585c0-1.845,0.455-3.396,1.368-4.66
		c0.911-1.262,2.088-1.895,3.528-1.895h16.704v-16.45c0-1.334,0.648-2.502,1.944-3.503s2.808-1.503,4.536-1.503
		c1.822,0,3.334,0.502,4.536,1.503c1.199,1.001,1.8,2.169,1.8,3.503v16.45h16.562c1.342,0,2.52,0.656,3.525,1.967
		c1.01,1.31,1.514,2.839,1.514,4.585c0,1.846-0.504,3.375-1.514,4.587c-1.008,1.215-2.186,1.82-3.525,1.82H45.355v16.593
		c0,1.433-0.601,2.601-1.8,3.504c-1.202,0.906-2.714,1.359-4.536,1.359c-1.825,0-3.361-0.453-4.608-1.359
		c-1.249-0.903-1.872-2.071-1.872-3.504V47.45H15.834C14.395,47.45,13.218,46.846,12.307,45.631z"/>
</g>
</svg>
