<?xml version="1.0" encoding="utf-8"?>
<!-- Generator: Adobe Illustrator 16.0.0, SVG Export Plug-In . SVG Version: 6.00 Build 0)  -->
<!DOCTYPE svg PUBLIC "-//W3C//DTD SVG 1.1//EN" "http://www.w3.org/Graphics/SVG/1.1/DTD/svg11.dtd">
<svg version="1.1" id="Ebene_1" xmlns="http://www.w3.org/2000/svg" xmlns:xlink="http://www.w3.org/1999/xlink" x="0px" y="0px"
	 width="355.345px" height="130.469px" viewBox="0 0 355.345 130.469" enable-background="new 0 0 355.345 130.469"
	 xml:space="preserve">
<g>
	<g>
		<path fill="#2281C4" d="M55.189,71.816c5.881,0,10.93,1.193,15.147,3.579c4.217,2.386,7.408,5.778,9.575,10.175
			s3.25,9.563,3.25,15.495c0,4.385-0.594,8.37-1.779,11.955c-1.188,3.586-2.967,6.693-5.34,9.324s-5.287,4.643-8.743,6.035
			c-3.457,1.393-7.416,2.09-11.878,2.09c-4.437,0-8.409-0.717-11.916-2.148c-3.508-1.431-6.436-3.449-8.782-6.055
			c-2.348-2.604-4.121-5.738-5.32-9.4s-1.799-7.623-1.799-11.879c0-4.357,0.625-8.355,1.876-11.993
			c1.251-3.637,3.063-6.731,5.437-9.285c2.372-2.554,5.262-4.507,8.666-5.861C46.987,72.493,50.856,71.816,55.189,71.816z
			 M71.517,100.987c0-4.152-0.671-7.75-2.012-10.793c-1.342-3.044-3.257-5.346-5.745-6.906c-2.49-1.561-5.346-2.342-8.57-2.342
			c-2.296,0-4.417,0.434-6.364,1.297c-1.947,0.864-3.624,2.121-5.029,3.771c-1.406,1.651-2.515,3.76-3.327,6.326
			s-1.219,5.449-1.219,8.646c0,3.225,0.406,6.14,1.219,8.744c0.813,2.605,1.96,4.766,3.443,6.48c1.482,1.716,3.185,2.998,5.106,3.85
			s4.03,1.277,6.326,1.277c2.94,0,5.642-0.735,8.105-2.205c2.463-1.471,4.423-3.74,5.881-6.811
			C70.787,109.254,71.517,105.475,71.517,100.987z"/>
		<path fill="#2281C4" d="M146.774,106.443v10.872c0,1.444-0.142,2.598-0.426,3.462s-0.807,1.645-1.566,2.341
			c-0.762,0.696-1.735,1.367-2.921,2.012c-3.431,1.857-6.732,3.211-9.905,4.063c-3.172,0.852-6.629,1.277-10.368,1.277
			c-4.359,0-8.332-0.672-11.916-2.012c-3.586-1.342-6.643-3.289-9.17-5.843c-2.528-2.554-4.469-5.648-5.822-9.285
			c-1.354-3.638-2.031-7.699-2.031-12.188c0-4.411,0.657-8.446,1.973-12.109s3.25-6.771,5.804-9.324s5.661-4.507,9.324-5.861
			c3.662-1.354,7.815-2.031,12.458-2.031c3.816,0,7.196,0.509,10.137,1.528s5.325,2.302,7.157,3.85
			c1.831,1.547,3.211,3.186,4.14,4.913c0.929,1.729,1.393,3.263,1.393,4.604c0,1.444-0.535,2.676-1.605,3.694
			c-1.07,1.02-2.354,1.528-3.85,1.528c-0.825,0-1.619-0.193-2.379-0.58c-0.762-0.387-1.399-0.929-1.915-1.625
			c-1.419-2.219-2.618-3.895-3.599-5.029s-2.302-2.09-3.966-2.863c-1.663-0.773-3.785-1.16-6.364-1.16
			c-2.656,0-5.029,0.457-7.119,1.373c-2.089,0.916-3.875,2.244-5.358,3.984c-1.483,1.741-2.618,3.876-3.404,6.403
			c-0.787,2.528-1.18,5.327-1.18,8.396c0,6.654,1.528,11.775,4.584,15.359c3.057,3.586,7.318,5.379,12.787,5.379
			c2.656,0,5.151-0.349,7.486-1.045c2.334-0.697,4.701-1.689,7.1-2.979v-9.208h-8.898c-2.142,0-3.76-0.322-4.855-0.967
			c-1.097-0.645-1.645-1.741-1.645-3.289c0-1.264,0.458-2.309,1.374-3.134c0.915-0.825,2.159-1.237,3.733-1.237h13.038
			c1.599,0,2.953,0.142,4.063,0.425c1.108,0.284,2.005,0.916,2.688,1.896C146.433,103.012,146.774,104.483,146.774,106.443z"/>
		<path fill="#2281C4" d="M197.079,81.643h-25.884v13.928h23.833c1.754,0,3.063,0.394,3.927,1.18
			c0.864,0.787,1.296,1.826,1.296,3.115c0,1.29-0.426,2.34-1.276,3.152c-0.852,0.813-2.167,1.219-3.946,1.219h-23.833v16.134h26.773
			c1.805,0,3.166,0.42,4.082,1.258c0.915,0.839,1.373,1.954,1.373,3.347c0,1.342-0.458,2.432-1.373,3.27
			c-0.916,0.838-2.277,1.257-4.082,1.257h-31.223c-2.502,0-4.301-0.554-5.396-1.663c-1.097-1.109-1.645-2.902-1.645-5.379V79.825
			c0-1.65,0.245-2.999,0.735-4.043c0.489-1.044,1.257-1.805,2.302-2.282c1.045-0.477,2.379-0.716,4.004-0.716h30.333
			c1.831,0,3.191,0.406,4.081,1.219c0.891,0.813,1.335,1.876,1.335,3.192c0,1.341-0.444,2.418-1.335,3.23
			C200.271,81.237,198.91,81.643,197.079,81.643z"/>
		<path fill="#2281C4" d="M233.687,120.952l-9.093-36.137v39.154c0,2.166-0.483,3.791-1.45,4.875
			c-0.968,1.083-2.251,1.625-3.85,1.625c-1.548,0-2.812-0.536-3.792-1.605c-0.98-1.07-1.47-2.702-1.47-4.895v-44.88
			c0-2.476,0.645-4.146,1.935-5.01c1.289-0.864,3.03-1.296,5.223-1.296h3.56c2.141,0,3.694,0.193,4.662,0.58
			c0.967,0.387,1.683,1.083,2.147,2.089c0.464,1.006,0.992,2.644,1.586,4.913l8.241,31.068l8.24-31.068
			c0.593-2.269,1.122-3.907,1.586-4.913c0.465-1.006,1.181-1.702,2.147-2.089c0.968-0.387,2.521-0.58,4.662-0.58h3.56
			c2.192,0,3.933,0.432,5.223,1.296c1.29,0.864,1.935,2.534,1.935,5.01v44.88c0,2.166-0.483,3.791-1.45,4.875
			c-0.968,1.083-2.264,1.625-3.889,1.625c-1.522,0-2.772-0.542-3.753-1.625c-0.98-1.084-1.47-2.709-1.47-4.875V84.815l-9.092,36.137
			c-0.594,2.347-1.078,4.068-1.451,5.164c-0.374,1.098-1.064,2.096-2.07,2.999c-1.006,0.902-2.398,1.354-4.178,1.354
			c-1.342,0-2.477-0.291-3.405-0.871s-1.65-1.321-2.166-2.225c-0.517-0.902-0.923-1.902-1.219-2.998
			C234.299,123.28,233.996,122.137,233.687,120.952z"/>
		<path fill="#2281C4" d="M318.811,123.079l-2.708-7.118h-23.059l-2.708,7.273c-1.059,2.837-1.961,4.753-2.709,5.745
			s-1.973,1.49-3.675,1.49c-1.445,0-2.722-0.529-3.83-1.587c-1.109-1.058-1.664-2.257-1.664-3.599c0-0.773,0.129-1.572,0.387-2.398
			c0.258-0.824,0.684-1.973,1.277-3.443L294.63,82.61c0.412-1.057,0.909-2.327,1.489-3.811c0.581-1.483,1.2-2.714,1.857-3.695
			c0.658-0.98,1.521-1.773,2.593-2.379c1.069-0.606,2.392-0.909,3.965-0.909c1.6,0,2.935,0.303,4.005,0.909
			c1.069,0.606,1.935,1.387,2.592,2.341c0.658,0.954,1.212,1.979,1.664,3.076c0.451,1.097,1.025,2.56,1.722,4.391l14.817,36.601
			c1.161,2.785,1.741,4.811,1.741,6.074c0,1.314-0.548,2.521-1.645,3.617s-2.418,1.645-3.965,1.645
			c-0.903,0-1.678-0.162-2.321-0.484c-0.646-0.322-1.188-0.76-1.625-1.315c-0.439-0.554-0.909-1.405-1.412-2.554
			C319.604,124.969,319.172,123.956,318.811,123.079z M296.062,107.333h16.946l-8.551-23.406L296.062,107.333z"/>
	</g>
	<path fill="#2281C4" d="M326.743,46.417c-17.309-14.498-41.438-26.549-68.848-34.729C232.979,4.254,205.351,0,177.672,0
		c-27.678,0-55.308,4.254-80.224,11.688c-27.41,8.18-51.538,20.23-68.848,34.729C10.753,61.365,0,79.065,0,98.088
		c0,4.883,0.715,9.834,2.203,14.824c0.543,1.83,2.081,2.719,3.436,1.986c1.354-0.734,2.012-2.813,1.469-4.643
		c-1.224-4.1-1.811-8.164-1.811-12.168c0-16.311,9.804-31.974,26.077-45.605C48.186,38.402,71.743,26.661,98.587,18.65
		c24.498-7.31,51.731-11.493,79.085-11.493c27.354,0,54.587,4.184,79.085,11.493c26.844,8.011,50.402,19.752,67.213,33.833
		c16.273,13.631,26.078,29.294,26.078,45.605c0,4.004-0.588,8.068-1.811,12.168c-0.543,1.83,0.115,3.908,1.469,4.643
		c1.354,0.732,2.893-0.156,3.436-1.986c1.488-4.99,2.203-9.941,2.203-14.824C355.345,79.065,344.591,61.365,326.743,46.417z"/>
</g>
</svg>
