<?xml version="1.0" encoding="utf-8"?>
<!-- Generator: Adobe Illustrator 16.0.0, SVG Export Plug-In . SVG Version: 6.00 Build 0)  -->
<!DOCTYPE svg PUBLIC "-//W3C//DTD SVG 1.1//EN" "http://www.w3.org/Graphics/SVG/1.1/DTD/svg11.dtd">
<svg version="1.1" id="Ebene_1" xmlns="http://www.w3.org/2000/svg" xmlns:xlink="http://www.w3.org/1999/xlink" x="0px" y="0px"
	 width="221.584px" height="89.159px" viewBox="0 0 221.584 89.159" enable-background="new 0 0 221.584 89.159"
	 xml:space="preserve">
<g>
	<g>
		<path d="M3.196,53.872v-7.888c0-3.354,1.224-6.267,3.672-8.738c2.448-2.471,5.372-3.706,8.772-3.706
			c3.354,0,6.278,1.224,8.772,3.672c2.493,2.448,3.74,5.372,3.74,8.772v7.888c0,3.31-1.258,6.233-3.774,8.771
			c-2.516,2.539-5.429,3.809-8.738,3.809c-3.31,0-6.211-1.258-8.704-3.774C4.442,60.162,3.196,57.227,3.196,53.872z M6.528,53.872
			c0,2.447,0.895,4.636,2.686,6.563c1.791,1.927,3.933,2.889,6.426,2.889c2.493,0,4.646-0.962,6.46-2.889
			c1.813-1.927,2.72-4.115,2.72-6.563v-7.888c0-2.402-0.907-4.556-2.72-6.46c-1.814-1.904-3.967-2.856-6.46-2.856
			c-2.494,0-4.636,0.952-6.426,2.856c-1.791,1.904-2.686,4.058-2.686,6.46V53.872z"/>
		<path d="M33.32,73.116c0-3.536,1.972-6.029,5.916-7.48c-2.63-0.86-3.944-2.447-3.944-4.76c0-2.084,1.11-3.694,3.332-4.828
			c-2.403-2.131-3.604-4.986-3.604-8.568v-2.788c0-3.264,1.042-5.938,3.128-8.024c2.085-2.084,4.805-3.128,8.16-3.128
			c3.309,0,5.984,1.02,8.024,3.06c0.626-1.269,1.397-2.289,2.314-3.06c0.916-0.771,1.776-1.156,2.582-1.156
			c0.589,0,1.031,0.16,1.326,0.476c0.294,0.318,0.442,0.68,0.442,1.088c0,0.816-0.408,1.27-1.224,1.36
			c-1.587,0.091-2.895,1.111-3.926,3.06c1.167,1.587,1.75,3.695,1.75,6.324v2.788c0,3.265-1.06,5.962-3.177,8.092
			c-2.119,2.132-4.845,3.197-8.179,3.197c-2.04,0-3.832-0.432-5.372-1.293c-1.632,0.816-2.448,1.814-2.448,2.992
			c0,1.18,0.736,2.029,2.21,2.551c1.472,0.521,3.252,0.861,5.338,1.02c2.084,0.159,4.164,0.42,6.236,0.781
			c2.072,0.363,3.84,1.18,5.304,2.449c1.464,1.268,2.196,3.036,2.196,5.303c0,2.992-1.167,5.315-3.502,6.971
			c-2.335,1.654-5.498,2.482-9.486,2.482c-3.99,0-7.22-0.816-9.69-2.448C34.555,77.944,33.32,75.79,33.32,73.116z M36.516,72.776
			c0,1.948,0.906,3.523,2.72,4.726c1.813,1.2,4.306,1.802,7.48,1.802c3.061,0,5.436-0.59,7.124-1.768
			c1.687-1.18,2.532-2.788,2.532-4.828c0-0.998-0.237-1.848-0.708-2.551c-0.473-0.703-1.047-1.258-1.721-1.665
			c-0.675-0.408-1.541-0.748-2.598-1.021c-1.058-0.271-1.98-0.441-2.768-0.51c-0.788-0.068-1.77-0.147-2.949-0.238l-2.448-0.271
			C38.737,67.766,36.516,69.874,36.516,72.776z M38.284,47.412c0,2.493,0.725,4.546,2.176,6.153c1.451,1.61,3.422,2.414,5.916,2.414
			c2.448,0,4.397-0.792,5.848-2.379c1.45-1.587,2.176-3.627,2.176-6.121v-2.788c0-2.448-0.726-4.454-2.176-6.018
			c-1.451-1.564-3.423-2.346-5.916-2.346c-2.494,0-4.454,0.782-5.882,2.346c-1.428,1.564-2.142,3.57-2.142,6.018V47.412z"/>
		<path fill="#5EB130" d="M65.076,53.872v-8.092c0-3.354,1.224-6.232,3.672-8.636c2.448-2.402,5.394-3.604,8.84-3.604
			c3.336,0,6.221,1.179,8.656,3.536c2.434,2.357,3.652,5.281,3.652,8.772c0,1.223-0.147,2.209-0.441,2.958s-0.756,1.281-1.39,1.598
			c-0.633,0.318-1.209,0.511-1.729,0.578c-0.52,0.068-1.253,0.103-2.202,0.103H68.408v2.856c0,2.855,1.02,5.145,3.06,6.867
			c2.04,1.724,4.669,2.584,7.888,2.584c1.628,0,3.008-0.227,4.14-0.68c1.13-0.453,1.99-0.906,2.579-1.359
			c0.588-0.453,1.041-0.681,1.358-0.681c0.399,0,0.754,0.182,1.065,0.544c0.311,0.363,0.467,0.726,0.467,1.088
			c0,0.861-0.936,1.768-2.808,2.721c-1.873,0.951-4.185,1.428-6.936,1.428c-4.171,0-7.572-1.156-10.2-3.469
			C66.39,60.671,65.076,57.635,65.076,53.872z M68.408,48.295h14.484c1.541,0,2.561-0.158,3.06-0.477
			c0.498-0.316,0.748-0.974,0.748-1.971c0-2.402-0.862-4.556-2.584-6.46c-1.724-1.904-3.899-2.856-6.528-2.856
			c-2.539,0-4.704,0.884-6.494,2.652c-1.792,1.768-2.686,3.876-2.686,6.324V48.295z"/>
		<path d="M96.967,64.547v-29.24c0-0.906,0.544-1.36,1.632-1.36c0.453,0,0.838,0.125,1.156,0.374
			c0.317,0.25,0.476,0.578,0.476,0.986v3.4c1.949-3.445,4.986-5.168,9.112-5.168c2.221,0,4.205,0.612,5.95,1.836
			c1.744,1.224,3.07,2.879,3.979,4.964c1.133-2.221,2.628-3.91,4.487-5.066c1.858-1.156,3.808-1.734,5.849-1.734
			c3.082,0,5.734,1.122,7.955,3.366c2.221,2.244,3.332,5.27,3.332,9.078v18.564c0,0.363-0.17,0.703-0.51,1.02
			c-0.34,0.318-0.737,0.477-1.189,0.477c-0.454,0-0.84-0.158-1.156-0.477c-0.318-0.316-0.477-0.656-0.477-1.02V45.983
			c0-2.9-0.85-5.179-2.549-6.834c-1.701-1.654-3.639-2.482-5.814-2.482c-2.268,0-4.273,0.839-6.018,2.516
			c-1.746,1.678-2.619,3.831-2.619,6.46v18.972c0,0.951-0.566,1.428-1.699,1.428c-1.088,0-1.633-0.477-1.633-1.428V45.711
			c0-2.538-0.805-4.68-2.414-6.426c-1.609-1.745-3.569-2.618-5.881-2.618c-2.268,0-4.273,0.85-6.018,2.55
			c-1.746,1.7-2.618,3.956-2.618,6.766v18.564c0,0.363-0.17,0.703-0.51,1.02c-0.34,0.318-0.737,0.477-1.19,0.477
			c-0.454,0-0.839-0.146-1.156-0.441C97.125,65.307,96.967,64.956,96.967,64.547z"/>
		<path d="M147.354,57.475c0-3.399,1.349-5.768,4.047-7.105c2.696-1.337,6.629-2.006,11.797-2.006h3.672v-1.769
			c0-2.72-0.713-5.066-2.141-7.038c-1.429-1.972-3.57-2.958-6.427-2.958c-1.724,0-3.332,0.317-4.828,0.952
			c-1.495,0.636-2.267,0.952-2.312,0.952c-0.454,0-0.816-0.204-1.088-0.612c-0.272-0.408-0.408-0.816-0.408-1.224
			c0-0.771,0.939-1.484,2.822-2.142c1.881-0.657,3.863-0.986,5.949-0.986c4.035,0,7.004,1.235,8.908,3.706
			c1.904,2.471,2.855,5.587,2.855,9.35v17.952c0,0.408-0.158,0.76-0.475,1.055c-0.318,0.295-0.704,0.441-1.156,0.441
			c-0.454,0-0.84-0.146-1.156-0.441c-0.318-0.295-0.477-0.646-0.477-1.055v-3.264c-2.992,3.445-6.392,5.168-10.199,5.168
			c-2.766,0-5.021-0.759-6.767-2.278C148.227,62.655,147.354,60.422,147.354,57.475z M150.686,57.339c0,2.04,0.601,3.57,1.803,4.591
			c1.2,1.02,2.775,1.529,4.726,1.529c2.312,0,4.499-0.826,6.562-2.482c2.063-1.654,3.094-3.274,3.094-4.861v-5.032h-3.331
			c-1.95,0-3.582,0.067-4.896,0.204c-1.316,0.136-2.631,0.397-3.945,0.781c-1.314,0.387-2.312,1.021-2.991,1.904
			C151.025,54.858,150.686,55.979,150.686,57.339z"/>
	</g>
	<g>
		<path fill="#5EB130" d="M64.338,83.237v-1.429c0-0.718,0.273-1.347,0.819-1.883s1.192-0.806,1.939-0.806
			c0.747,0,1.395,0.267,1.946,0.799c0.551,0.531,0.826,1.162,0.826,1.89v1.429c0,0.709-0.278,1.339-0.833,1.89
			s-1.202,0.825-1.939,0.825s-1.381-0.272-1.932-0.818S64.338,83.956,64.338,83.237z M65.5,83.232c0,0.437,0.159,0.821,0.476,1.155
			s0.691,0.501,1.12,0.501c0.438,0,0.816-0.169,1.134-0.508s0.476-0.722,0.476-1.148v-1.419c0-0.418-0.159-0.793-0.476-1.127
			s-0.695-0.502-1.134-0.502c-0.439,0-0.814,0.168-1.127,0.502c-0.313,0.334-0.469,0.709-0.469,1.127V83.232z"/>
		<path fill="#5EB130" d="M71.981,88.626V79.61c0-0.121,0.054-0.219,0.161-0.293c0.107-0.075,0.24-0.113,0.399-0.113
			s0.289,0.039,0.392,0.114c0.103,0.075,0.154,0.175,0.154,0.298v0.582c0.168-0.302,0.416-0.557,0.742-0.766
			c0.327-0.207,0.705-0.313,1.134-0.313c0.7,0,1.295,0.265,1.785,0.791c0.49,0.528,0.735,1.16,0.735,1.897v1.429
			c0,0.709-0.247,1.339-0.742,1.89c-0.495,0.551-1.069,0.825-1.722,0.825c-0.411,0-0.786-0.105-1.127-0.318s-0.59-0.475-0.749-0.787
			v3.779c0,0.103-0.059,0.198-0.175,0.287c-0.117,0.089-0.254,0.134-0.413,0.134s-0.294-0.042-0.406-0.126
			C72.038,88.836,71.981,88.739,71.981,88.626z M73.144,83.608c0,0.232,0.161,0.504,0.483,0.814
			c0.322,0.311,0.688,0.466,1.099,0.466c0.42,0,0.791-0.169,1.113-0.508c0.322-0.339,0.483-0.722,0.483-1.148v-1.419
			c0-0.418-0.161-0.793-0.483-1.127c-0.322-0.334-0.702-0.502-1.141-0.502c-0.411,0-0.772,0.151-1.085,0.453
			c-0.313,0.301-0.469,0.693-0.469,1.176V83.608z"/>
		<path fill="#5EB130" d="M79.332,83.237v-1.471c0-0.719,0.273-1.339,0.819-1.861c0.546-0.523,1.202-0.785,1.967-0.785
			c0.728,0,1.358,0.244,1.89,0.732c0.532,0.486,0.798,1.098,0.798,1.83c0,0.273-0.033,0.494-0.098,0.659
			c-0.065,0.165-0.166,0.283-0.301,0.354c-0.135,0.07-0.261,0.115-0.378,0.135c-0.117,0.019-0.273,0.027-0.469,0.027h-3.066v0.42
			c0,0.514,0.185,0.924,0.553,1.232s0.847,0.462,1.435,0.462c0.308,0,0.576-0.046,0.805-0.14c0.229-0.094,0.413-0.185,0.553-0.273
			c0.14-0.088,0.252-0.133,0.336-0.133c0.131,0,0.243,0.059,0.336,0.176c0.093,0.116,0.14,0.234,0.14,0.356
			c0,0.215-0.212,0.434-0.637,0.657c-0.425,0.225-0.95,0.336-1.575,0.336c-0.915,0-1.662-0.249-2.24-0.748
			C79.621,84.704,79.332,84.048,79.332,83.237z M80.493,82.061h2.59c0.242,0,0.406-0.031,0.49-0.092s0.126-0.18,0.126-0.357
			c0-0.42-0.154-0.788-0.462-1.105s-0.686-0.477-1.134-0.477c-0.439,0-0.817,0.147-1.134,0.441s-0.476,0.656-0.476,1.085V82.061z"/>
		<path fill="#5EB130" d="M86.793,85.42V79.61c0-0.121,0.053-0.219,0.161-0.293c0.107-0.075,0.245-0.113,0.413-0.113
			c0.14,0,0.264,0.041,0.371,0.121c0.107,0.081,0.161,0.178,0.161,0.291v0.582c0.149-0.302,0.39-0.557,0.721-0.766
			c0.332-0.207,0.716-0.313,1.155-0.313c0.663,0,1.239,0.265,1.729,0.791c0.49,0.528,0.735,1.16,0.735,1.897v3.612
			c0,0.131-0.059,0.233-0.175,0.309c-0.117,0.074-0.254,0.111-0.413,0.111c-0.149,0-0.283-0.037-0.399-0.111
			c-0.117-0.074-0.175-0.178-0.175-0.308v-3.603c0-0.42-0.159-0.797-0.476-1.132s-0.69-0.503-1.12-0.503
			c-0.401,0-0.756,0.152-1.064,0.454c-0.308,0.303-0.462,0.696-0.462,1.181v3.603c0,0.103-0.061,0.198-0.182,0.286
			c-0.122,0.089-0.257,0.133-0.406,0.133c-0.159,0-0.294-0.042-0.406-0.126C86.849,85.63,86.793,85.532,86.793,85.42z"/>
		<path fill="#5EB130" d="M97.783,83.237v-1.471c0-0.719,0.273-1.339,0.819-1.861c0.546-0.523,1.202-0.785,1.967-0.785
			c0.728,0,1.358,0.244,1.89,0.732c0.532,0.486,0.798,1.098,0.798,1.83c0,0.273-0.033,0.494-0.098,0.659
			c-0.065,0.165-0.166,0.283-0.301,0.354c-0.135,0.07-0.261,0.115-0.378,0.135c-0.117,0.019-0.273,0.027-0.469,0.027h-3.066v0.42
			c0,0.514,0.185,0.924,0.553,1.232s0.847,0.462,1.435,0.462c0.308,0,0.576-0.046,0.805-0.14c0.229-0.094,0.413-0.185,0.553-0.273
			c0.14-0.088,0.252-0.133,0.336-0.133c0.131,0,0.243,0.059,0.336,0.176c0.093,0.116,0.14,0.234,0.14,0.356
			c0,0.215-0.212,0.434-0.637,0.657c-0.425,0.225-0.95,0.336-1.575,0.336c-0.915,0-1.662-0.249-2.24-0.748
			C98.072,84.704,97.783,84.048,97.783,83.237z M98.945,82.061h2.59c0.242,0,0.406-0.031,0.49-0.092s0.126-0.18,0.126-0.357
			c0-0.42-0.154-0.788-0.462-1.105s-0.686-0.477-1.134-0.477c-0.439,0-0.817,0.147-1.134,0.441s-0.476,0.656-0.476,1.085V82.061z"/>
		<path fill="#5EB130" d="M105.245,85.42V79.61c0-0.121,0.053-0.219,0.161-0.293c0.107-0.075,0.245-0.113,0.413-0.113
			c0.14,0,0.264,0.041,0.371,0.121c0.107,0.081,0.161,0.178,0.161,0.291v0.582c0.149-0.302,0.39-0.557,0.721-0.766
			c0.332-0.207,0.716-0.313,1.155-0.313c0.663,0,1.239,0.265,1.729,0.791c0.49,0.528,0.735,1.16,0.735,1.897v3.612
			c0,0.131-0.059,0.233-0.175,0.309c-0.117,0.074-0.254,0.111-0.413,0.111c-0.149,0-0.283-0.037-0.399-0.111
			c-0.117-0.074-0.175-0.178-0.175-0.308v-3.603c0-0.42-0.159-0.797-0.476-1.132s-0.69-0.503-1.12-0.503
			c-0.401,0-0.756,0.152-1.064,0.454c-0.308,0.303-0.462,0.696-0.462,1.181v3.603c0,0.103-0.061,0.198-0.182,0.286
			c-0.122,0.089-0.257,0.133-0.406,0.133c-0.159,0-0.294-0.042-0.406-0.126C105.301,85.63,105.245,85.532,105.245,85.42z"/>
		<path fill="#5EB130" d="M112.735,83.237v-1.471c0-0.719,0.273-1.339,0.819-1.861c0.546-0.523,1.202-0.785,1.967-0.785
			c0.728,0,1.357,0.244,1.89,0.732c0.532,0.486,0.798,1.098,0.798,1.83c0,0.273-0.033,0.494-0.098,0.659
			c-0.065,0.165-0.166,0.283-0.301,0.354c-0.136,0.07-0.262,0.115-0.379,0.135c-0.116,0.019-0.272,0.027-0.469,0.027h-3.066v0.42
			c0,0.514,0.185,0.924,0.553,1.232c0.368,0.309,0.847,0.462,1.435,0.462c0.309,0,0.576-0.046,0.805-0.14
			c0.229-0.094,0.414-0.185,0.554-0.273c0.14-0.088,0.252-0.133,0.336-0.133c0.131,0,0.243,0.059,0.336,0.176
			c0.093,0.116,0.14,0.234,0.14,0.356c0,0.215-0.212,0.434-0.637,0.657c-0.425,0.225-0.949,0.336-1.574,0.336
			c-0.916,0-1.662-0.249-2.241-0.748C113.024,84.704,112.735,84.048,112.735,83.237z M113.897,82.061h2.59
			c0.242,0,0.405-0.031,0.489-0.092s0.127-0.18,0.127-0.357c0-0.42-0.154-0.788-0.463-1.105c-0.308-0.317-0.686-0.477-1.133-0.477
			c-0.439,0-0.817,0.147-1.135,0.441s-0.476,0.656-0.476,1.085V82.061z"/>
		<path fill="#5EB130" d="M120.197,85.42V79.61c0-0.121,0.053-0.219,0.16-0.293c0.107-0.075,0.246-0.113,0.414-0.113
			c0.148,0,0.275,0.039,0.377,0.114c0.104,0.075,0.154,0.175,0.154,0.298v0.666c0.168-0.32,0.416-0.595,0.742-0.821
			s0.691-0.341,1.092-0.341h0.477c0.121,0,0.227,0.055,0.314,0.164c0.089,0.109,0.133,0.234,0.133,0.376s-0.044,0.265-0.133,0.368
			c-0.088,0.104-0.193,0.156-0.314,0.156h-0.477c-0.476,0-0.891,0.191-1.246,0.572c-0.354,0.383-0.531,0.876-0.531,1.48v3.185
			c0,0.103-0.059,0.198-0.176,0.286c-0.116,0.089-0.254,0.133-0.412,0.133c-0.159,0-0.295-0.042-0.406-0.126
			C120.253,85.63,120.197,85.532,120.197,85.42z"/>
		<path fill="#5EB130" d="M125.083,87.167c0-0.684,0.378-1.193,1.134-1.531c-0.457-0.178-0.686-0.491-0.686-0.941
			c0-0.43,0.224-0.775,0.672-1.037c-0.532-0.43-0.799-1.018-0.799-1.765V81.43c0-0.682,0.229-1.236,0.687-1.666
			c0.457-0.43,1.06-0.645,1.806-0.645c0.635,0,1.182,0.174,1.639,0.521c0.279-0.589,0.598-0.884,0.951-0.884
			c0.15,0,0.271,0.045,0.365,0.133c0.092,0.089,0.139,0.189,0.139,0.301c0,0.122-0.078,0.216-0.237,0.28
			c-0.317,0.093-0.569,0.303-0.756,0.63c0.289,0.346,0.434,0.789,0.434,1.33v0.462c0,0.673-0.237,1.228-0.714,1.666
			s-1.082,0.658-1.82,0.658c-0.383,0-0.728-0.069-1.035-0.21c-0.234,0.137-0.351,0.293-0.351,0.467s0.108,0.309,0.323,0.404
			s0.48,0.164,0.797,0.204c0.314,0.04,0.66,0.084,1.035,0.132s0.722,0.124,1.039,0.229c0.316,0.104,0.582,0.29,0.797,0.557
			c0.214,0.267,0.32,0.604,0.32,1.014c0,0.659-0.264,1.163-0.791,1.512c-0.527,0.348-1.211,0.522-2.051,0.522
			s-1.533-0.169-2.078-0.509C125.355,88.2,125.083,87.742,125.083,87.167z M126.189,87.038c0,0.365,0.16,0.659,0.482,0.88
			c0.322,0.22,0.754,0.331,1.295,0.331c0.522,0,0.94-0.111,1.253-0.332c0.313-0.221,0.47-0.516,0.47-0.883
			c0-0.15-0.026-0.281-0.078-0.395c-0.051-0.113-0.133-0.207-0.244-0.282c-0.112-0.075-0.225-0.14-0.336-0.19
			c-0.112-0.053-0.258-0.09-0.439-0.113c-0.18-0.024-0.325-0.043-0.437-0.058c-0.11-0.015-0.264-0.035-0.458-0.061
			s-0.328-0.043-0.402-0.053C126.558,86.126,126.189,86.511,126.189,87.038z M126.539,81.878c0,0.448,0.123,0.817,0.371,1.106
			c0.247,0.289,0.586,0.434,1.015,0.434c0.411,0,0.742-0.143,0.994-0.428c0.252-0.284,0.378-0.65,0.378-1.099V81.43
			c0-0.43-0.126-0.789-0.378-1.078s-0.588-0.434-1.008-0.434c-0.43,0-0.766,0.143-1.009,0.427c-0.242,0.285-0.363,0.646-0.363,1.085
			V81.878z"/>
		<path fill="#5EB130" d="M132.041,79.678c0-0.148,0.084-0.279,0.252-0.391s0.336-0.168,0.504-0.168c0.195,0,0.322,0.08,0.377,0.238
			l1.849,4.848l1.666-4.848c0.065-0.158,0.187-0.238,0.364-0.238c0.158,0,0.324,0.057,0.496,0.168
			c0.174,0.111,0.26,0.246,0.26,0.404c0,0.047-0.014,0.094-0.042,0.14l-2.128,5.7l-0.266,0.699c-0.047,0.131-0.141,0.355-0.28,0.673
			s-0.257,0.546-0.351,0.687c-0.094,0.14-0.224,0.324-0.392,0.553s-0.331,0.395-0.49,0.497s-0.348,0.196-0.567,0.28
			c-0.219,0.084-0.449,0.126-0.692,0.126c-0.364,0-0.546-0.18-0.546-0.539c0-0.351,0.111-0.524,0.336-0.524
			c0.42,0,0.828-0.235,1.225-0.704c0.396-0.47,0.666-1.071,0.805-1.805l-2.323-5.644C132.059,79.776,132.041,79.724,132.041,79.678z
			"/>
		<path fill="#5EB130" d="M143.017,85.42V79.61c0-0.121,0.054-0.219,0.161-0.293c0.107-0.075,0.244-0.113,0.412-0.113
			c0.15,0,0.275,0.039,0.379,0.114c0.102,0.075,0.154,0.175,0.154,0.298v0.582c0.168-0.312,0.412-0.568,0.734-0.772
			c0.322-0.203,0.697-0.306,1.127-0.306s0.814,0.131,1.155,0.39s0.595,0.601,0.763,1.024c0.233-0.462,0.541-0.813,0.924-1.053
			s0.784-0.361,1.204-0.361c0.653,0,1.216,0.244,1.687,0.729c0.472,0.485,0.707,1.139,0.707,1.96v3.612
			c0,0.103-0.058,0.198-0.174,0.287c-0.117,0.089-0.255,0.133-0.414,0.133c-0.148,0-0.281-0.044-0.398-0.133
			c-0.117-0.088-0.176-0.184-0.176-0.286v-3.603c0-0.503-0.146-0.901-0.44-1.195c-0.294-0.293-0.637-0.439-1.028-0.439
			c-0.393,0-0.74,0.149-1.043,0.447c-0.305,0.298-0.455,0.68-0.455,1.145v3.66c0,0.13-0.059,0.229-0.176,0.299
			c-0.117,0.07-0.254,0.105-0.412,0.105c-0.15,0-0.283-0.035-0.399-0.105c-0.117-0.069-0.175-0.169-0.175-0.299v-3.646
			c0-0.466-0.143-0.85-0.428-1.152c-0.285-0.302-0.627-0.454-1.029-0.454c-0.4,0-0.751,0.149-1.049,0.447
			c-0.299,0.298-0.449,0.693-0.449,1.188v3.603c0,0.103-0.058,0.198-0.174,0.286c-0.117,0.089-0.255,0.133-0.414,0.133
			c-0.158,0-0.293-0.042-0.405-0.126S143.017,85.532,143.017,85.42z"/>
		<path fill="#5EB130" d="M154.287,84.106c0-0.733,0.279-1.244,0.84-1.531c0.56-0.287,1.371-0.43,2.436-0.43h0.672v-0.297
			c0-0.47-0.129-0.879-0.385-1.227c-0.257-0.348-0.643-0.521-1.155-0.521c-0.392,0-0.737,0.07-1.036,0.211
			c-0.299,0.139-0.462,0.209-0.49,0.209c-0.131,0-0.235-0.063-0.314-0.188c-0.08-0.126-0.119-0.259-0.119-0.399
			c0-0.215,0.213-0.403,0.637-0.566c0.425-0.164,0.875-0.246,1.352-0.246c0.914,0,1.589,0.26,2.023,0.777
			c0.434,0.519,0.65,1.164,0.65,1.939v3.584c0,0.121-0.054,0.222-0.161,0.301c-0.107,0.08-0.245,0.119-0.413,0.119
			c-0.148,0-0.275-0.039-0.378-0.115c-0.103-0.078-0.153-0.176-0.153-0.293v-0.546c-0.635,0.711-1.34,1.065-2.114,1.065
			c-0.56,0-1.015-0.156-1.365-0.471S154.287,84.708,154.287,84.106z M155.463,83.979c0,0.35,0.098,0.614,0.293,0.794
			c0.197,0.18,0.458,0.27,0.785,0.27c0.392,0,0.771-0.159,1.141-0.476s0.553-0.641,0.553-0.971v-0.738h-0.49
			c-0.271,0-0.504,0.008-0.699,0.021c-0.196,0.014-0.399,0.043-0.609,0.086c-0.21,0.042-0.383,0.104-0.518,0.184
			c-0.136,0.08-0.246,0.189-0.33,0.326S155.463,83.78,155.463,83.979z"/>
		<path fill="#5EB130" d="M161.693,85.42V79.61c0-0.121,0.053-0.219,0.16-0.293c0.107-0.075,0.245-0.113,0.413-0.113
			c0.14,0,0.264,0.041,0.371,0.121c0.107,0.081,0.161,0.178,0.161,0.291v0.582c0.148-0.302,0.39-0.557,0.721-0.766
			c0.332-0.207,0.717-0.313,1.155-0.313c0.663,0,1.239,0.265,1.729,0.791c0.489,0.528,0.734,1.16,0.734,1.897v3.612
			c0,0.131-0.059,0.233-0.175,0.309c-0.117,0.074-0.255,0.111-0.413,0.111c-0.149,0-0.283-0.037-0.398-0.111
			c-0.117-0.074-0.176-0.178-0.176-0.308v-3.603c0-0.42-0.158-0.797-0.477-1.132c-0.316-0.335-0.689-0.503-1.119-0.503
			c-0.401,0-0.756,0.152-1.064,0.454c-0.308,0.303-0.462,0.696-0.462,1.181v3.603c0,0.103-0.061,0.198-0.182,0.286
			c-0.122,0.089-0.257,0.133-0.406,0.133c-0.159,0-0.294-0.042-0.405-0.126C161.748,85.63,161.693,85.532,161.693,85.42z"/>
		<path fill="#5EB130" d="M169,84.106c0-0.733,0.28-1.244,0.84-1.531c0.561-0.287,1.373-0.43,2.437-0.43h0.672v-0.297
			c0-0.47-0.128-0.879-0.385-1.227s-0.642-0.521-1.155-0.521c-0.392,0-0.737,0.07-1.035,0.211c-0.299,0.139-0.463,0.209-0.49,0.209
			c-0.131,0-0.236-0.063-0.315-0.188s-0.119-0.259-0.119-0.399c0-0.215,0.212-0.403,0.638-0.566
			c0.424-0.164,0.875-0.246,1.351-0.246c0.915,0,1.589,0.26,2.022,0.777c0.435,0.519,0.651,1.164,0.651,1.939v3.584
			c0,0.121-0.054,0.222-0.161,0.301c-0.107,0.08-0.244,0.119-0.412,0.119c-0.15,0-0.275-0.039-0.379-0.115
			c-0.103-0.078-0.154-0.176-0.154-0.293v-0.546c-0.635,0.711-1.339,1.065-2.113,1.065c-0.561,0-1.016-0.156-1.365-0.471
			S169,84.708,169,84.106z M170.176,83.979c0,0.35,0.099,0.614,0.295,0.794c0.195,0.18,0.457,0.27,0.783,0.27
			c0.393,0,0.772-0.159,1.142-0.476c0.368-0.316,0.553-0.641,0.553-0.971v-0.738h-0.489c-0.271,0-0.504,0.008-0.701,0.021
			c-0.195,0.014-0.398,0.043-0.608,0.086c-0.21,0.042-0.383,0.104-0.519,0.184c-0.135,0.08-0.244,0.189-0.328,0.326
			S170.176,83.78,170.176,83.979z"/>
		<path fill="#5EB130" d="M175.889,87.167c0-0.684,0.378-1.193,1.134-1.531c-0.458-0.178-0.687-0.491-0.687-0.941
			c0-0.43,0.225-0.775,0.673-1.037c-0.532-0.43-0.798-1.018-0.798-1.765V81.43c0-0.682,0.229-1.236,0.686-1.666
			s1.059-0.645,1.807-0.645c0.635,0,1.18,0.174,1.637,0.521c0.281-0.589,0.598-0.884,0.953-0.884c0.148,0,0.27,0.045,0.363,0.133
			c0.094,0.089,0.141,0.189,0.141,0.301c0,0.122-0.08,0.216-0.238,0.28c-0.317,0.093-0.569,0.303-0.756,0.63
			c0.289,0.346,0.434,0.789,0.434,1.33v0.462c0,0.673-0.238,1.228-0.714,1.666s-1.083,0.658-1.819,0.658
			c-0.383,0-0.729-0.069-1.037-0.21c-0.232,0.137-0.35,0.293-0.35,0.467s0.107,0.309,0.323,0.404s0.481,0.164,0.796,0.204
			c0.315,0.04,0.661,0.084,1.036,0.132c0.376,0.048,0.722,0.124,1.038,0.229c0.317,0.104,0.583,0.29,0.797,0.557
			c0.215,0.267,0.322,0.604,0.322,1.014c0,0.659-0.264,1.163-0.791,1.512c-0.527,0.348-1.211,0.522-2.051,0.522
			s-1.533-0.169-2.08-0.509C176.162,88.2,175.889,87.742,175.889,87.167z M176.994,87.038c0,0.365,0.162,0.659,0.483,0.88
			c0.322,0.22,0.753,0.331,1.295,0.331c0.522,0,0.94-0.111,1.253-0.332s0.469-0.516,0.469-0.883c0-0.15-0.025-0.281-0.076-0.395
			c-0.052-0.113-0.133-0.207-0.246-0.282c-0.111-0.075-0.223-0.14-0.335-0.19c-0.112-0.053-0.259-0.09-0.438-0.113
			c-0.181-0.024-0.326-0.043-0.438-0.058s-0.264-0.035-0.458-0.061s-0.329-0.043-0.402-0.053
			C177.363,86.126,176.994,86.511,176.994,87.038z M177.345,81.878c0,0.448,0.124,0.817,0.37,1.106
			c0.248,0.289,0.586,0.434,1.016,0.434c0.41,0,0.742-0.143,0.994-0.428c0.252-0.284,0.378-0.65,0.378-1.099V81.43
			c0-0.43-0.126-0.789-0.378-1.078s-0.588-0.434-1.008-0.434c-0.43,0-0.766,0.143-1.008,0.427c-0.243,0.285-0.364,0.646-0.364,1.085
			V81.878z"/>
		<path fill="#5EB130" d="M183.252,83.237v-1.471c0-0.719,0.273-1.339,0.819-1.861c0.546-0.523,1.202-0.785,1.967-0.785
			c0.728,0,1.358,0.244,1.89,0.732c0.533,0.486,0.799,1.098,0.799,1.83c0,0.273-0.033,0.494-0.098,0.659
			c-0.066,0.165-0.166,0.283-0.302,0.354c-0.136,0.07-0.261,0.115-0.378,0.135c-0.117,0.019-0.273,0.027-0.469,0.027h-3.066v0.42
			c0,0.514,0.185,0.924,0.553,1.232c0.369,0.309,0.848,0.462,1.436,0.462c0.309,0,0.576-0.046,0.805-0.14s0.413-0.185,0.553-0.273
			c0.141-0.088,0.252-0.133,0.336-0.133c0.131,0,0.243,0.059,0.336,0.176c0.094,0.116,0.141,0.234,0.141,0.356
			c0,0.215-0.213,0.434-0.637,0.657c-0.426,0.225-0.95,0.336-1.575,0.336c-0.915,0-1.661-0.249-2.24-0.748
			C183.541,84.704,183.252,84.048,183.252,83.237z M184.414,82.061h2.59c0.242,0,0.406-0.031,0.49-0.092s0.126-0.18,0.126-0.357
			c0-0.42-0.153-0.788-0.462-1.105s-0.686-0.477-1.134-0.477c-0.438,0-0.817,0.147-1.134,0.441
			c-0.318,0.294-0.477,0.656-0.477,1.085V82.061z"/>
		<path fill="#5EB130" d="M190.715,85.42V79.61c0-0.121,0.053-0.219,0.16-0.293c0.107-0.075,0.245-0.113,0.413-0.113
			c0.149,0,0.275,0.039,0.378,0.114s0.154,0.175,0.154,0.298v0.582c0.168-0.312,0.413-0.568,0.734-0.772
			c0.322-0.203,0.698-0.306,1.127-0.306c0.43,0,0.814,0.131,1.156,0.39c0.34,0.259,0.594,0.601,0.762,1.024
			c0.234-0.462,0.542-0.813,0.925-1.053c0.382-0.24,0.784-0.361,1.204-0.361c0.652,0,1.215,0.244,1.687,0.729
			c0.472,0.485,0.707,1.139,0.707,1.96v3.612c0,0.103-0.058,0.198-0.175,0.287s-0.254,0.133-0.413,0.133
			c-0.149,0-0.282-0.044-0.399-0.133c-0.116-0.088-0.175-0.184-0.175-0.286v-3.603c0-0.503-0.147-0.901-0.44-1.195
			c-0.295-0.293-0.637-0.439-1.029-0.439s-0.74,0.149-1.043,0.447c-0.304,0.298-0.455,0.68-0.455,1.145v3.66
			c0,0.13-0.059,0.229-0.175,0.299c-0.117,0.07-0.255,0.105-0.413,0.105c-0.149,0-0.283-0.035-0.398-0.105
			c-0.117-0.069-0.176-0.169-0.176-0.299v-3.646c0-0.466-0.143-0.85-0.427-1.152c-0.285-0.302-0.628-0.454-1.029-0.454
			s-0.751,0.149-1.05,0.447s-0.448,0.693-0.448,1.188v3.603c0,0.103-0.058,0.198-0.175,0.286c-0.117,0.089-0.254,0.133-0.413,0.133
			s-0.294-0.042-0.405-0.126C190.77,85.63,190.715,85.532,190.715,85.42z"/>
		<path fill="#5EB130" d="M202.166,83.237v-1.471c0-0.719,0.273-1.339,0.818-1.861c0.547-0.523,1.202-0.785,1.967-0.785
			c0.729,0,1.358,0.244,1.891,0.732c0.532,0.486,0.798,1.098,0.798,1.83c0,0.273-0.032,0.494-0.098,0.659s-0.166,0.283-0.302,0.354
			c-0.135,0.07-0.261,0.115-0.377,0.135c-0.117,0.019-0.273,0.027-0.47,0.027h-3.065v0.42c0,0.514,0.184,0.924,0.553,1.232
			s0.848,0.462,1.436,0.462c0.308,0,0.576-0.046,0.805-0.14s0.412-0.185,0.553-0.273c0.141-0.088,0.252-0.133,0.336-0.133
			c0.131,0,0.242,0.059,0.336,0.176c0.094,0.116,0.141,0.234,0.141,0.356c0,0.215-0.213,0.434-0.638,0.657
			c-0.425,0.225-0.95,0.336-1.575,0.336c-0.914,0-1.661-0.249-2.24-0.748C202.455,84.704,202.166,84.048,202.166,83.237z
			 M203.328,82.061h2.59c0.242,0,0.406-0.031,0.49-0.092s0.125-0.18,0.125-0.357c0-0.42-0.153-0.788-0.461-1.105
			c-0.309-0.317-0.687-0.477-1.135-0.477c-0.438,0-0.816,0.147-1.134,0.441s-0.476,0.656-0.476,1.085V82.061z"/>
		<path fill="#5EB130" d="M209.628,85.42V79.61c0-0.121,0.054-0.219,0.161-0.293c0.107-0.075,0.244-0.113,0.412-0.113
			c0.141,0,0.264,0.041,0.371,0.121c0.107,0.081,0.162,0.178,0.162,0.291v0.582c0.148-0.302,0.389-0.557,0.721-0.766
			c0.331-0.207,0.716-0.313,1.154-0.313c0.663,0,1.239,0.265,1.729,0.791c0.489,0.528,0.735,1.16,0.735,1.897v3.612
			c0,0.131-0.059,0.233-0.176,0.309c-0.117,0.074-0.254,0.111-0.412,0.111c-0.15,0-0.283-0.037-0.399-0.111
			c-0.117-0.074-0.175-0.178-0.175-0.308v-3.603c0-0.42-0.159-0.797-0.477-1.132s-0.69-0.503-1.119-0.503
			c-0.402,0-0.757,0.152-1.064,0.454c-0.309,0.303-0.463,0.696-0.463,1.181v3.603c0,0.103-0.061,0.198-0.182,0.286
			c-0.121,0.089-0.256,0.133-0.406,0.133c-0.158,0-0.293-0.042-0.405-0.126S209.628,85.532,209.628,85.42z"/>
		<path fill="#5EB130" d="M217.342,83.727v-7.211c0-0.111,0.061-0.207,0.182-0.287c0.121-0.079,0.252-0.119,0.393-0.119
			c0.148,0,0.285,0.04,0.406,0.119c0.121,0.08,0.182,0.176,0.182,0.287v2.688h1.764c0.104,0,0.188,0.047,0.252,0.141
			c0.065,0.094,0.099,0.201,0.099,0.322s-0.033,0.227-0.099,0.314c-0.064,0.09-0.148,0.133-0.252,0.133h-1.764v3.58
			c0,0.398,0.086,0.678,0.26,0.84c0.172,0.162,0.473,0.242,0.902,0.242h0.434c0.158,0,0.283,0.052,0.371,0.154
			c0.089,0.102,0.133,0.225,0.133,0.371c0,0.146-0.047,0.271-0.14,0.379s-0.215,0.16-0.364,0.16h-0.434
			C218.117,85.84,217.342,85.135,217.342,83.727z"/>
	</g>
	<g>
		
			<path fill-rule="evenodd" clip-rule="evenodd" fill="none" stroke="#5EB130" stroke-width="3.2" stroke-linecap="round" stroke-miterlimit="10" d="
			M106.056,28.29c0-7.044-12.978-12.753-28.986-12.753c-16.009,0-28.986,5.709-28.986,12.753"/>
	</g>
	<path fill-rule="evenodd" clip-rule="evenodd" fill="#5EB130" d="M185.223,43.826c-2.297,0-4.223-1.797-4.384-4.09
		c-0.084-1.173,0.294-2.309,1.064-3.196c0.771-0.889,1.841-1.424,3.014-1.507c0.096-0.007,0.191-0.009,0.287-0.009
		c0.275,0,0.562,0.026,0.853,0.081c0.032,0.006,0.063,0.009,0.096,0.009c0.195,0,0.378-0.11,0.466-0.291l2.482-5.104
		c0.116-0.237,0.034-0.524-0.189-0.665c-2.505-1.581-4.125-4.284-4.334-7.23c-0.212-2.993,1.044-5.924,3.359-7.842
		c0.205-0.171,0.248-0.469,0.099-0.69l-3.099-4.584c-0.099-0.146-0.261-0.229-0.43-0.229c-0.062,0-0.124,0.011-0.185,0.034
		c-0.41,0.155-0.836,0.25-1.267,0.28c-0.106,0.008-0.212,0.011-0.316,0.011c-2.297,0-4.223-1.797-4.384-4.092
		c-0.172-2.42,1.657-4.528,4.079-4.701C182.54,0.004,182.646,0,182.751,0c2.296,0,4.222,1.798,4.385,4.092
		c0.08,1.145-0.283,2.262-1.024,3.145c-0.148,0.177-0.161,0.432-0.032,0.624l3.174,4.691c0.099,0.147,0.262,0.229,0.43,0.229
		c0.074,0,0.149-0.017,0.22-0.05c1.047-0.492,2.162-0.783,3.315-0.866c0.223-0.016,0.444-0.023,0.666-0.023
		c4.478,0,8.327,3.194,9.153,7.596c0.046,0.247,0.262,0.423,0.509,0.423c0.012,0,5.799-0.409,5.799-0.409
		c0.235-0.017,0.431-0.19,0.473-0.424c0.362-1.975,2.013-3.452,4.013-3.594c0.106-0.008,0.212-0.012,0.317-0.012
		c2.296,0,4.224,1.797,4.388,4.091c0.17,2.42-1.66,4.529-4.08,4.701c-0.106,0.008-0.212,0.012-0.316,0.012l0,0
		c-1.891-0.001-3.563-1.207-4.164-3.003c-0.071-0.213-0.271-0.354-0.491-0.354c-0.013,0-5.826,0.414-5.826,0.414
		c-0.258,0.018-0.464,0.225-0.48,0.484c-0.292,4.629-4.008,8.368-8.642,8.698c-0.223,0.016-0.443,0.023-0.662,0.023
		c-0.968,0-1.928-0.15-2.851-0.447c-0.053-0.018-0.105-0.026-0.158-0.026c-0.194,0-0.378,0.11-0.467,0.292l-2.489,5.114
		c-0.104,0.214-0.049,0.473,0.135,0.625c0.931,0.775,1.491,1.864,1.576,3.067c0.083,1.173-0.295,2.309-1.066,3.197
		c-0.77,0.888-1.84,1.423-3.012,1.505C185.434,43.822,185.328,43.826,185.223,43.826z M185.231,36.445
		c-0.071,0-0.143,0.003-0.214,0.008c-0.792,0.056-1.517,0.417-2.038,1.019c-0.522,0.602-0.779,1.37-0.723,2.163
		c0.11,1.553,1.414,2.77,2.969,2.77c0.07,0,0.142-0.003,0.214-0.008c0.794-0.057,1.519-0.418,2.04-1.02s0.777-1.37,0.72-2.164
		C188.089,37.661,186.785,36.445,185.231,36.445z M193.085,25.452c-0.195,0-0.378,0.11-0.467,0.291l-1.127,2.316
		c-0.068,0.139-0.07,0.301-0.006,0.441c0.063,0.141,0.188,0.246,0.337,0.286c0.678,0.183,1.372,0.275,2.063,0.275
		c0.183,0,0.365-0.006,0.549-0.02c3.81-0.271,6.873-3.221,7.287-7.014c0.017-0.152-0.036-0.305-0.143-0.416
		c-0.098-0.102-0.232-0.159-0.373-0.159c-0.013,0-2.37,0.167-2.37,0.167c-0.232,0.017-0.424,0.187-0.471,0.414
		c-0.395,1.926-2.039,3.367-3.999,3.507c-0.098,0.007-0.196,0.011-0.293,0.011c-0.29,0-0.589-0.031-0.886-0.091
		C193.153,25.455,193.118,25.452,193.085,25.452z M188.997,15.119c-0.126,0-0.248,0.046-0.344,0.131
		c-1.862,1.646-2.831,4.006-2.656,6.473c0.171,2.417,1.422,4.591,3.432,5.963c0.087,0.06,0.189,0.091,0.293,0.091
		c0.044,0,0.089-0.006,0.133-0.018c0.146-0.039,0.268-0.139,0.333-0.274l1.148-2.36c0.104-0.213,0.05-0.469-0.131-0.622
		c-0.908-0.771-1.455-1.851-1.54-3.038c-0.087-1.229,0.33-2.403,1.173-3.307c0.165-0.177,0.186-0.443,0.051-0.644l-1.462-2.166
		c-0.084-0.124-0.217-0.205-0.364-0.225C189.04,15.12,189.019,15.119,188.997,15.119z M194.057,18.172
		c-0.07,0-0.141,0.003-0.211,0.008c-1.639,0.117-2.877,1.544-2.762,3.182c0.11,1.553,1.415,2.77,2.97,2.77
		c0.069,0,0.141-0.003,0.213-0.008c0.794-0.057,1.519-0.418,2.04-1.02s0.777-1.369,0.72-2.163
		C196.917,19.389,195.612,18.172,194.057,18.172z M214.144,16.844c-0.07,0-0.141,0.002-0.212,0.008
		c-1.64,0.116-2.878,1.544-2.762,3.182c0.11,1.553,1.415,2.77,2.972,2.77c0.07,0,0.141-0.003,0.212-0.009
		c1.638-0.115,2.876-1.544,2.761-3.183C217.005,18.06,215.701,16.844,214.144,16.844z M194.061,16.75c1.93,0,3.614,1.24,4.192,3.086
		c0.068,0.218,0.27,0.364,0.494,0.364c0.013,0,2.352-0.166,2.352-0.166c0.151-0.011,0.289-0.087,0.38-0.208
		c0.09-0.122,0.123-0.277,0.089-0.425c-0.812-3.556-4.043-6.137-7.686-6.137c-0.187,0-0.375,0.007-0.564,0.021
		c-0.83,0.058-1.647,0.25-2.43,0.57c-0.144,0.059-0.254,0.18-0.299,0.329c-0.046,0.149-0.021,0.312,0.066,0.44l1.446,2.144
		c0.099,0.146,0.261,0.229,0.43,0.229c0.054,0,0.107-0.008,0.16-0.024c0.357-0.116,0.712-0.188,1.054-0.212
		C193.852,16.753,193.956,16.75,194.061,16.75z M182.748,1.425c-0.071,0-0.143,0.003-0.214,0.008
		c-0.794,0.057-1.519,0.419-2.039,1.02c-0.521,0.601-0.777,1.368-0.721,2.161c0.108,1.553,1.413,2.769,2.969,2.769
		c0.07,0,0.142-0.002,0.213-0.008c1.637-0.115,2.875-1.544,2.76-3.183C185.606,2.64,184.303,1.425,182.748,1.425z"/>
</g>
</svg>
