<?xml version="1.0" encoding="utf-8"?>
<!-- Generator: Adobe Illustrator 16.0.0, SVG Export Plug-In . SVG Version: 6.00 Build 0)  -->
<!DOCTYPE svg PUBLIC "-//W3C//DTD SVG 1.1//EN" "http://www.w3.org/Graphics/SVG/1.1/DTD/svg11.dtd">
<svg version="1.1" id="Ebene_1" xmlns="http://www.w3.org/2000/svg" xmlns:xlink="http://www.w3.org/1999/xlink" x="0px" y="0px"
	 width="150.204px" height="32.262px" viewBox="0 0 150.204 32.262" enable-background="new 0 0 150.204 32.262"
	 xml:space="preserve">
<g>
	<path fill="#010202" d="M91.756,14.994c0,0.361-0.068,0.68-0.205,0.957s-0.32,0.504-0.552,0.684
		c-0.273,0.215-0.574,0.368-0.9,0.459c-0.328,0.091-0.743,0.137-1.248,0.137h-2.578V9.96h2.153c0.53,0,0.928,0.02,1.191,0.059
		s0.516,0.121,0.757,0.244c0.267,0.14,0.461,0.32,0.581,0.54s0.181,0.482,0.181,0.789c0,0.345-0.088,0.639-0.264,0.881
		s-0.41,0.437-0.703,0.583v0.039c0.491,0.101,0.879,0.316,1.162,0.647S91.756,14.49,91.756,14.994z M90.13,11.718
		c0-0.176-0.029-0.324-0.088-0.444s-0.153-0.218-0.283-0.293c-0.153-0.088-0.339-0.143-0.557-0.164s-0.488-0.032-0.811-0.032H87.24
		v2.1h1.25c0.303,0,0.544-0.016,0.723-0.046s0.345-0.095,0.498-0.193s0.262-0.224,0.324-0.378
		C90.099,12.112,90.13,11.929,90.13,11.718z M90.75,15.033c0-0.293-0.044-0.526-0.132-0.698s-0.247-0.319-0.479-0.439
		c-0.156-0.082-0.346-0.134-0.568-0.159c-0.224-0.024-0.494-0.037-0.813-0.037H87.24v2.705h1.279c0.423,0,0.77-0.022,1.04-0.066
		s0.491-0.125,0.664-0.242c0.183-0.127,0.315-0.272,0.4-0.435S90.75,15.291,90.75,15.033z"/>
	<path fill="#010202" d="M97.577,17.231h-0.918v-0.606c-0.31,0.244-0.605,0.431-0.889,0.562s-0.596,0.195-0.938,0.195
		c-0.573,0-1.019-0.174-1.338-0.524c-0.319-0.35-0.479-0.863-0.479-1.541v-3.54h0.918v3.105c0,0.277,0.013,0.514,0.039,0.71
		s0.081,0.365,0.166,0.505c0.088,0.143,0.202,0.248,0.342,0.313s0.344,0.098,0.61,0.098c0.237,0,0.497-0.062,0.779-0.186
		c0.281-0.124,0.544-0.282,0.788-0.474v-4.072h0.918V17.231z"/>
	<path fill="#010202" d="M100.37,10.863h-1.035V9.911h1.035V10.863z M100.311,17.231h-0.918v-5.455h0.918V17.231z"/>
	<path fill="#010202" d="M103.055,17.231h-0.918V9.633h0.918V17.231z"/>
	<path fill="#010202" d="M109.295,17.231h-0.918v-0.572c-0.264,0.228-0.539,0.405-0.825,0.532c-0.286,0.127-0.598,0.19-0.933,0.19
		c-0.651,0-1.168-0.25-1.55-0.751c-0.383-0.501-0.574-1.196-0.574-2.085c0-0.462,0.066-0.874,0.197-1.235
		c0.133-0.361,0.311-0.669,0.535-0.923c0.222-0.248,0.479-0.436,0.773-0.566c0.295-0.13,0.601-0.195,0.916-0.195
		c0.286,0,0.54,0.03,0.762,0.09s0.454,0.154,0.698,0.281V9.633h0.918V17.231z M108.377,15.888v-3.13
		c-0.247-0.111-0.469-0.187-0.664-0.229s-0.408-0.063-0.64-0.063c-0.515,0-0.915,0.179-1.201,0.537s-0.43,0.866-0.43,1.523
		c0,0.648,0.11,1.14,0.332,1.477s0.576,0.505,1.064,0.505c0.261,0,0.524-0.058,0.791-0.173S108.146,16.07,108.377,15.888z"/>
	<path fill="#010202" d="M112.088,10.863h-1.035V9.911h1.035V10.863z M112.03,17.231h-0.918v-5.455h0.918V17.231z"/>
	<path fill="#010202" d="M118.407,17.231h-0.918v-3.106c0-0.25-0.015-0.486-0.044-0.706s-0.083-0.392-0.161-0.515
		c-0.081-0.137-0.198-0.238-0.352-0.305s-0.352-0.1-0.596-0.1c-0.251,0-0.513,0.062-0.786,0.186s-0.535,0.282-0.786,0.474v4.073
		h-0.918v-5.455h0.918v0.605c0.286-0.238,0.583-0.423,0.889-0.557s0.62-0.2,0.942-0.2c0.589,0,1.038,0.177,1.348,0.532
		s0.464,0.866,0.464,1.533V17.231z"/>
	<path fill="#010202" d="M124.598,16.61c0,0.924-0.21,1.603-0.63,2.037c-0.42,0.433-1.066,0.648-1.938,0.648
		c-0.29,0-0.572-0.02-0.847-0.061c-0.275-0.041-0.547-0.099-0.813-0.174v-0.938h0.049c0.149,0.059,0.388,0.131,0.713,0.218
		s0.651,0.13,0.977,0.13c0.313,0,0.571-0.038,0.776-0.113c0.205-0.074,0.364-0.179,0.479-0.313c0.114-0.127,0.195-0.279,0.244-0.459
		c0.049-0.179,0.073-0.379,0.073-0.6v-0.498c-0.276,0.221-0.541,0.387-0.794,0.496c-0.252,0.109-0.573,0.164-0.964,0.164
		c-0.651,0-1.168-0.235-1.55-0.706c-0.383-0.47-0.574-1.134-0.574-1.99c0-0.469,0.066-0.873,0.197-1.213
		c0.133-0.34,0.313-0.634,0.54-0.881c0.212-0.231,0.469-0.411,0.771-0.54s0.604-0.193,0.903-0.193c0.315,0,0.58,0.032,0.793,0.095
		c0.214,0.063,0.439,0.16,0.677,0.291l0.059-0.234h0.859V16.61z M123.68,15.731v-2.974c-0.244-0.111-0.472-0.189-0.681-0.237
		c-0.211-0.047-0.42-0.071-0.628-0.071c-0.505,0-0.901,0.169-1.191,0.508s-0.435,0.83-0.435,1.475c0,0.612,0.107,1.076,0.322,1.392
		s0.571,0.474,1.069,0.474c0.267,0,0.534-0.051,0.804-0.154C123.208,16.042,123.456,15.904,123.68,15.731z"/>
	<path fill="#010202" d="M92.748,29.231h-0.967v-6.266l-2.021,4.264h-0.576l-2.007-4.264v6.266h-0.903v-7.271h1.318l1.938,4.049
		l1.875-4.049h1.343V29.231z"/>
	<path fill="#010202" d="M98.866,29.231h-0.913v-0.582c-0.081,0.056-0.191,0.133-0.33,0.232c-0.138,0.1-0.272,0.178-0.402,0.236
		c-0.153,0.075-0.329,0.139-0.527,0.188s-0.432,0.075-0.698,0.075c-0.491,0-0.908-0.162-1.25-0.488
		c-0.342-0.325-0.513-0.74-0.513-1.244c0-0.414,0.089-0.748,0.266-1.004c0.178-0.256,0.431-0.457,0.76-0.604
		c0.332-0.146,0.73-0.245,1.196-0.297c0.466-0.053,0.965-0.092,1.499-0.117v-0.143c0-0.208-0.037-0.381-0.109-0.518
		c-0.074-0.137-0.179-0.244-0.315-0.322c-0.13-0.074-0.286-0.125-0.469-0.15c-0.183-0.026-0.373-0.039-0.571-0.039
		c-0.241,0-0.51,0.031-0.806,0.095s-0.603,0.155-0.918,0.276h-0.049v-0.934c0.179-0.049,0.438-0.102,0.776-0.16
		s0.672-0.088,1.001-0.088c0.384,0,0.719,0.031,1.003,0.095c0.285,0.063,0.532,0.172,0.74,0.325c0.205,0.149,0.361,0.343,0.469,0.58
		c0.107,0.238,0.161,0.533,0.161,0.885V29.231z M97.953,27.887V26.37c-0.28,0.016-0.609,0.04-0.988,0.072
		c-0.38,0.033-0.68,0.08-0.901,0.143c-0.264,0.074-0.477,0.191-0.64,0.349s-0.244,0.375-0.244,0.651
		c0,0.313,0.095,0.549,0.283,0.706s0.477,0.237,0.864,0.237c0.322,0,0.617-0.063,0.884-0.188S97.725,28.063,97.953,27.887z"/>
	<path fill="#010202" d="M105.194,29.231h-0.918v-3.105c0-0.251-0.015-0.486-0.044-0.706s-0.083-0.392-0.161-0.515
		c-0.081-0.137-0.198-0.238-0.352-0.306s-0.352-0.101-0.596-0.101c-0.251,0-0.513,0.063-0.786,0.186
		c-0.273,0.124-0.535,0.282-0.786,0.475v4.072h-0.918v-5.455h0.918v0.605c0.286-0.237,0.583-0.423,0.889-0.557
		c0.306-0.133,0.62-0.199,0.942-0.199c0.589,0,1.038,0.177,1.348,0.531c0.31,0.355,0.464,0.866,0.464,1.533V29.231z"/>
	<path fill="#010202" d="M111.2,29.231h-0.913v-0.582c-0.081,0.056-0.191,0.133-0.33,0.232c-0.138,0.1-0.272,0.178-0.402,0.236
		c-0.153,0.075-0.329,0.139-0.527,0.188s-0.432,0.075-0.698,0.075c-0.491,0-0.908-0.162-1.25-0.488
		c-0.342-0.325-0.513-0.74-0.513-1.244c0-0.414,0.089-0.748,0.266-1.004c0.178-0.256,0.431-0.457,0.76-0.604
		c0.332-0.146,0.73-0.245,1.196-0.297c0.466-0.053,0.965-0.092,1.499-0.117v-0.143c0-0.208-0.037-0.381-0.109-0.518
		c-0.074-0.137-0.179-0.244-0.315-0.322c-0.13-0.074-0.286-0.125-0.469-0.15c-0.183-0.026-0.373-0.039-0.571-0.039
		c-0.241,0-0.51,0.031-0.806,0.095s-0.603,0.155-0.918,0.276h-0.049v-0.934c0.179-0.049,0.438-0.102,0.776-0.16
		s0.672-0.088,1.001-0.088c0.384,0,0.719,0.031,1.003,0.095c0.285,0.063,0.532,0.172,0.74,0.325c0.205,0.149,0.361,0.343,0.469,0.58
		c0.107,0.238,0.161,0.533,0.161,0.885V29.231z M110.287,27.887V26.37c-0.28,0.016-0.609,0.04-0.988,0.072
		c-0.38,0.033-0.68,0.08-0.901,0.143c-0.264,0.074-0.477,0.191-0.64,0.349s-0.244,0.375-0.244,0.651
		c0,0.313,0.095,0.549,0.283,0.706s0.477,0.237,0.864,0.237c0.322,0,0.617-0.063,0.884-0.188S110.059,28.063,110.287,27.887z"/>
	<path fill="#010202" d="M117.391,28.61c0,0.925-0.21,1.604-0.63,2.037c-0.42,0.433-1.066,0.648-1.938,0.648
		c-0.29,0-0.572-0.02-0.847-0.061c-0.275-0.041-0.547-0.099-0.813-0.174v-0.938h0.049c0.149,0.059,0.388,0.131,0.713,0.218
		s0.651,0.13,0.977,0.13c0.313,0,0.571-0.038,0.776-0.113c0.205-0.074,0.364-0.179,0.479-0.313c0.114-0.127,0.195-0.279,0.244-0.459
		c0.049-0.179,0.073-0.379,0.073-0.6v-0.498c-0.276,0.221-0.541,0.387-0.794,0.495c-0.252,0.108-0.573,0.163-0.964,0.163
		c-0.651,0-1.168-0.234-1.55-0.705c-0.383-0.471-0.574-1.134-0.574-1.99c0-0.469,0.066-0.873,0.197-1.213
		c0.133-0.34,0.313-0.634,0.54-0.881c0.212-0.231,0.469-0.412,0.771-0.54s0.604-0.192,0.903-0.192c0.315,0,0.58,0.031,0.793,0.095
		c0.214,0.063,0.439,0.16,0.677,0.29l0.059-0.234h0.859V28.61z M116.473,27.731v-2.973c-0.244-0.111-0.472-0.189-0.681-0.237
		c-0.211-0.048-0.42-0.071-0.628-0.071c-0.505,0-0.901,0.17-1.191,0.508c-0.29,0.339-0.435,0.83-0.435,1.475
		c0,0.612,0.107,1.076,0.322,1.393c0.215,0.315,0.571,0.473,1.069,0.473c0.267,0,0.534-0.051,0.804-0.153
		C116.001,28.042,116.249,27.904,116.473,27.731z"/>
	<path fill="#010202" d="M123.763,26.598h-4.019c0,0.336,0.051,0.628,0.151,0.877s0.239,0.453,0.415,0.613
		c0.169,0.156,0.37,0.273,0.603,0.352c0.233,0.078,0.489,0.117,0.77,0.117c0.371,0,0.744-0.074,1.121-0.223
		c0.375-0.148,0.644-0.294,0.803-0.438h0.049v1.002c-0.31,0.13-0.625,0.238-0.947,0.326s-0.661,0.133-1.016,0.133
		c-0.905,0-1.611-0.246-2.119-0.735s-0.762-1.186-0.762-2.087c0-0.893,0.243-1.601,0.73-2.125c0.486-0.523,1.127-0.785,1.921-0.785
		c0.735,0,1.303,0.215,1.702,0.645c0.398,0.43,0.598,1.039,0.598,1.83V26.598z M122.87,25.895c-0.003-0.481-0.124-0.854-0.364-1.117
		c-0.238-0.264-0.603-0.396-1.091-0.396c-0.491,0-0.883,0.146-1.175,0.436c-0.291,0.289-0.456,0.648-0.495,1.078H122.87z"/>
	<path fill="#010202" d="M133.114,29.231h-0.918v-3.105c0-0.234-0.011-0.461-0.032-0.68c-0.021-0.218-0.065-0.392-0.134-0.521
		c-0.075-0.141-0.183-0.246-0.322-0.318c-0.14-0.071-0.342-0.107-0.605-0.107c-0.257,0-0.515,0.064-0.771,0.193
		s-0.515,0.292-0.771,0.49c0.01,0.075,0.018,0.162,0.024,0.262s0.01,0.197,0.01,0.295v3.492h-0.918v-3.105
		c0-0.241-0.011-0.471-0.031-0.687c-0.021-0.216-0.066-0.39-0.135-0.521c-0.075-0.14-0.183-0.244-0.322-0.314
		s-0.342-0.105-0.605-0.105c-0.251,0-0.502,0.063-0.754,0.186c-0.253,0.124-0.504,0.282-0.755,0.475v4.072h-0.918v-5.455h0.918
		v0.605c0.286-0.237,0.572-0.423,0.856-0.557c0.285-0.133,0.589-0.199,0.911-0.199c0.371,0,0.687,0.078,0.944,0.234
		c0.26,0.156,0.452,0.372,0.579,0.648c0.371-0.313,0.71-0.537,1.016-0.676s0.633-0.207,0.981-0.207c0.599,0,1.041,0.182,1.326,0.544
		c0.284,0.362,0.427,0.87,0.427,1.521V29.231z"/>
	<path fill="#010202" d="M139.447,26.598h-4.019c0,0.336,0.051,0.628,0.151,0.877s0.239,0.453,0.415,0.613
		c0.169,0.156,0.37,0.273,0.603,0.352c0.233,0.078,0.489,0.117,0.77,0.117c0.371,0,0.744-0.074,1.121-0.223
		c0.375-0.148,0.644-0.294,0.803-0.438h0.049v1.002c-0.31,0.13-0.625,0.238-0.947,0.326s-0.661,0.133-1.016,0.133
		c-0.905,0-1.611-0.246-2.119-0.735s-0.762-1.186-0.762-2.087c0-0.893,0.243-1.601,0.73-2.125c0.486-0.523,1.127-0.785,1.921-0.785
		c0.735,0,1.303,0.215,1.702,0.645c0.398,0.43,0.598,1.039,0.598,1.83V26.598z M138.553,25.895
		c-0.003-0.481-0.124-0.854-0.364-1.117c-0.238-0.264-0.603-0.396-1.091-0.396c-0.491,0-0.883,0.146-1.175,0.436
		c-0.291,0.289-0.456,0.648-0.495,1.078H138.553z"/>
	<path fill="#010202" d="M145.399,29.231h-0.918v-3.105c0-0.251-0.015-0.486-0.044-0.706s-0.083-0.392-0.161-0.515
		c-0.081-0.137-0.198-0.238-0.352-0.306s-0.352-0.101-0.596-0.101c-0.251,0-0.513,0.063-0.786,0.186
		c-0.273,0.124-0.535,0.282-0.786,0.475v4.072h-0.918v-5.455h0.918v0.605c0.286-0.237,0.583-0.423,0.889-0.557
		c0.306-0.133,0.62-0.199,0.942-0.199c0.589,0,1.038,0.177,1.348,0.531c0.31,0.355,0.464,0.866,0.464,1.533V29.231z"/>
	<path fill="#010202" d="M149.999,29.182c-0.173,0.045-0.36,0.082-0.563,0.111c-0.204,0.029-0.386,0.045-0.545,0.045
		c-0.557,0-0.979-0.15-1.27-0.449c-0.29-0.3-0.435-0.78-0.435-1.441v-2.9h-0.62v-0.771h0.62v-1.566h0.918v1.566h1.895v0.771h-1.895
		v2.486c0,0.286,0.007,0.51,0.02,0.671s0.059,0.312,0.137,0.452c0.071,0.13,0.17,0.225,0.296,0.285
		c0.125,0.061,0.316,0.09,0.573,0.09c0.149,0,0.306-0.021,0.469-0.065s0.28-0.081,0.352-0.11h0.049V29.182z"/>
</g>
<g>
	<path fill-rule="evenodd" clip-rule="evenodd" fill="#020304" d="M0,25.473c0.071-0.008,0.064-0.069,0.08-0.115
		c0.319-0.956,1.189-1.346,2.114-0.935c0.541,0.241,0.999,0.62,1.481,0.955c0.885,0.614,1.829,1.08,2.904,1.263
		c1.367,0.234,2.66,0.031,3.869-0.645c1.271-0.71,1.507-2.488,0.483-3.575c-0.49-0.519-1.109-0.851-1.743-1.155
		c-1.492-0.716-3.044-1.292-4.558-1.959c-0.904-0.398-1.735-0.895-2.439-1.596c-0.992-0.987-1.371-2.198-1.217-3.551
		c0.257-2.271,1.603-3.725,3.669-4.557c2.276-0.917,4.548-0.714,6.797,0.132c0.692,0.26,1.349,0.592,1.932,1.052
		c0.536,0.422,0.964,0.924,1.073,1.626c0.149,0.957-0.938,1.835-1.845,1.496c-0.383-0.143-0.752-0.313-1.098-0.53
		c-0.705-0.443-1.44-0.832-2.199-1.171c-0.882-0.394-1.807-0.361-2.732-0.193c-0.643,0.117-1.229,0.357-1.689,0.846
		c-0.179,0.19-0.328,0.401-0.452,0.63c-0.515,0.944-0.052,1.882,0.669,2.542c0.802,0.734,1.779,1.151,2.791,1.507
		c1.077,0.38,2.168,0.725,3.212,1.193c0.722,0.323,1.419,0.69,2.042,1.18c1.682,1.318,2.145,3.049,1.667,5.069
		c-0.388,1.641-1.471,2.737-2.885,3.563c-1.072,0.627-2.242,0.901-3.464,1.002c-2.083,0.17-4.079-0.125-5.946-1.111
		c-0.655-0.346-1.239-0.793-1.805-1.264c-0.331-0.275-0.493-0.659-0.609-1.064C0.08,26.032,0.104,25.929,0,25.889
		C0,25.75,0,25.612,0,25.473z"/>
	<path fill-rule="evenodd" clip-rule="evenodd" fill="#020304" d="M54.193,30.299c-0.035-0.097-0.13-0.074-0.198-0.092
		c-1.764-0.431-2.938-2.143-2.642-3.855c0.325-1.878,1.924-3.125,3.781-2.947c1.671,0.159,2.992,1.532,3.108,3.232
		c0.113,1.648-1.032,3.184-2.65,3.566c-0.103,0.024-0.226-0.004-0.307,0.096C54.922,30.299,54.557,30.299,54.193,30.299z
		 M56.438,26.833c-0.005-0.912-0.735-1.639-1.654-1.641c-0.921-0.004-1.673,0.748-1.662,1.663c0.011,0.913,0.745,1.641,1.658,1.642
		C55.706,28.498,56.444,27.756,56.438,26.833z"/>
	<path fill-rule="evenodd" clip-rule="evenodd" fill="#020304" d="M77.358,30.299c-0.042-0.104-0.146-0.078-0.222-0.098
		c-1.685-0.414-2.792-1.967-2.635-3.699c0.147-1.631,1.536-2.996,3.154-3.102c1.767-0.114,3.282,0.992,3.674,2.678
		c0.018,0.076-0.012,0.18,0.091,0.225c0,0.398,0,0.796,0,1.193c-0.122,0.007-0.085,0.111-0.104,0.175
		c-0.389,1.354-1.265,2.206-2.638,2.552c-0.06,0.016-0.146-0.018-0.173,0.076C78.122,30.299,77.74,30.299,77.358,30.299z
		 M79.606,26.86c0.008-0.926-0.725-1.664-1.653-1.669c-0.911-0.005-1.656,0.729-1.664,1.638c-0.006,0.91,0.723,1.654,1.631,1.667
		C78.85,28.508,79.598,27.782,79.606,26.86z"/>
	<path fill-rule="evenodd" clip-rule="evenodd" fill="#020304" d="M20.927,0c0.044,0.106,0.15,0.069,0.225,0.085
		c1.746,0.395,2.868,1.962,2.695,3.773c-0.159,1.657-1.613,3-3.308,3.053c-1.77,0.056-3.277-1.184-3.556-2.924
		c-0.281-1.755,0.865-3.461,2.606-3.885C19.673,0.083,19.785,0.11,19.834,0C20.198,0,20.563,0,20.927,0z M20.396,1.809
		c-0.92,0.005-1.662,0.759-1.65,1.677c0.012,0.9,0.774,1.643,1.676,1.633c0.91-0.01,1.647-0.752,1.646-1.658
		C22.069,2.541,21.322,1.804,20.396,1.809z"/>
	<path fill-rule="evenodd" clip-rule="evenodd" fill="#FFFFFF" d="M26.225,19.116c0.091-2.944,1.455-5.812,4.276-7.923
		c2.192-1.64,4.685-2.286,7.408-2.012c1.763,0.178,3.378,0.783,4.841,1.779c1.267,0.863,2.306,1.947,3.082,3.268
		c0.477,0.812,0.33,1.792-0.609,2.271c-0.237,0.122-0.462,0.268-0.694,0.402c-2.498,1.438-4.994,2.877-7.491,4.314
		c-1.893,1.09-3.787,2.178-5.681,3.266c-0.322,0.186-0.328,0.188-0.075,0.441c1.822,1.821,4.019,2.662,6.577,2.266
		c3.25-0.504,5.347-2.403,6.298-5.543c0.247-0.82,1.041-1.307,1.827-1.086c0.813,0.229,1.236,1.045,1.004,1.882
		c-0.56,2.022-1.622,3.737-3.194,5.125c-1.413,1.247-3.054,2.058-4.911,2.433c-1.451,0.293-2.902,0.298-4.335-0.037
		c-3.281-0.766-5.705-2.65-7.229-5.653C26.581,22.852,26.227,21.297,26.225,19.116z M29.157,19.612
		c-0.017,0.775,0.124,1.529,0.326,2.273c0.046,0.166,0.1,0.246,0.303,0.129c1.759-1.023,3.526-2.031,5.29-3.047
		c2.393-1.379,4.785-2.758,7.177-4.137c0.298-0.171,0.304-0.18,0.073-0.407c-2.31-2.271-5.036-2.976-8.104-1.933
		C31.142,13.537,29.188,16.398,29.157,19.612z"/>
	<path fill-rule="evenodd" clip-rule="evenodd" fill="#020304" d="M51.421,18.34c0-0.701,0.002-1.401,0-2.102
		c-0.012-3.67,2.707-6.822,6.409-7.243c2.618-0.297,4.803,0.613,6.513,2.616c0.153,0.18,0.198,0.164,0.344-0.003
		c2.029-2.319,4.575-3.205,7.552-2.39c2.964,0.812,4.695,2.858,5.282,5.866c0.105,0.541,0.078,1.083,0.074,1.627
		c-0.008,1.453,0.002,2.905-0.005,4.358c-0.004,0.955-0.729,1.606-1.651,1.505c-0.726-0.08-1.277-0.701-1.279-1.462
		c-0.005-1.652-0.002-3.303-0.002-4.955c0-2.428-2.046-4.387-4.484-4.293c-2.073,0.081-3.764,1.543-4.133,3.58
		c-0.077,0.42-0.042,0.846-0.044,1.268c-0.009,1.454,0.003,2.905-0.005,4.358c-0.007,1.073-0.978,1.778-1.958,1.438
		c-0.591-0.205-0.974-0.755-0.977-1.422c-0.004-1.365,0.006-2.731-0.005-4.098c-0.004-0.594,0.035-1.191-0.105-1.78
		c-0.482-2.012-2.315-3.414-4.389-3.343c-2.078,0.072-3.802,1.581-4.144,3.63c-0.07,0.42-0.063,0.845-0.063,1.268
		c-0.001,1.426,0.004,2.854-0.003,4.28c-0.004,0.693-0.495,1.279-1.155,1.415c-0.665,0.136-1.329-0.188-1.626-0.794
		c-0.105-0.215-0.145-0.441-0.144-0.679c0.003-0.882,0.001-1.765,0.001-2.646H51.421z"/>
	<path fill-rule="evenodd" clip-rule="evenodd" fill="#020304" d="M22.06,19.321c0,2.836,0,5.672,0,8.508
		c0,0.905-0.426,1.5-1.217,1.711c-0.997,0.267-1.958-0.389-2.064-1.406c-0.014-0.129-0.019-0.26-0.019-0.389
		c0-5.585,0-11.169,0-16.755c0-0.146,0.004-0.294,0.019-0.44c0.099-0.959,0.767-1.557,1.699-1.522
		c0.912,0.034,1.566,0.709,1.579,1.657c0.013,1.011,0.003,2.022,0.003,3.034C22.06,15.586,22.06,17.454,22.06,19.321z"/>
</g>
</svg>
