<?xml version="1.0" encoding="utf-8"?>
<!-- Generator: Adobe Illustrator 16.0.0, SVG Export Plug-In . SVG Version: 6.00 Build 0)  -->
<!DOCTYPE svg PUBLIC "-//W3C//DTD SVG 1.1//EN" "http://www.w3.org/Graphics/SVG/1.1/DTD/svg11.dtd">
<svg version="1.1" id="Ebene_1" xmlns="http://www.w3.org/2000/svg" xmlns:xlink="http://www.w3.org/1999/xlink" x="0px" y="0px"
	 width="254.897px" height="78px" viewBox="0 0 254.897 78" enable-background="new 0 0 254.897 78" xml:space="preserve">
<g>
	<g>
		<g enable-background="new    ">
			<path fill="#3399CC" d="M81.339,67.63v-1.367c0-0.782,0.302-1.465,0.906-2.05c0.604-0.584,1.327-0.877,2.169-0.877
				c0.822,0,1.54,0.29,2.154,0.869c0.613,0.58,0.921,1.266,0.921,2.058v1.367c0,0.772-0.31,1.459-0.929,2.058
				c-0.619,0.6-1.335,0.898-2.146,0.898c-0.822,0-1.54-0.297-2.154-0.891C81.646,69.101,81.339,68.413,81.339,67.63z M82.898,67.626
				c0,0.403,0.148,0.765,0.445,1.084c0.298,0.32,0.654,0.479,1.07,0.479c0.406,0,0.76-0.159,1.063-0.479
				c0.302-0.319,0.453-0.681,0.453-1.084v-1.358c0-0.394-0.151-0.747-0.453-1.063c-0.303-0.314-0.656-0.473-1.063-0.473
				c-0.416,0-0.772,0.158-1.07,0.473c-0.297,0.315-0.445,0.669-0.445,1.063V67.626z"/>
			<path fill="#3399CC" d="M89.391,73.291v-9.359c0-0.148,0.071-0.27,0.216-0.364c0.143-0.094,0.319-0.141,0.527-0.141
				s0.381,0.047,0.52,0.143c0.139,0.095,0.208,0.218,0.208,0.368v0.541c0.179-0.32,0.443-0.591,0.795-0.811
				c0.352-0.221,0.75-0.331,1.196-0.331c0.742,0,1.374,0.288,1.894,0.862c0.521,0.574,0.78,1.263,0.78,2.064v1.367
				c0,0.772-0.263,1.459-0.787,2.058c-0.525,0.6-1.135,0.898-1.828,0.898c-0.426,0-0.819-0.114-1.181-0.345s-0.622-0.506-0.78-0.826
				v3.874c0,0.139-0.079,0.261-0.237,0.365c-0.158,0.104-0.347,0.156-0.564,0.156s-0.399-0.053-0.542-0.156
				C89.462,73.55,89.391,73.429,89.391,73.291z M90.95,67.965c0,0.217,0.151,0.475,0.453,0.774c0.303,0.301,0.651,0.45,1.048,0.45
				c0.396,0,0.748-0.159,1.055-0.479c0.307-0.319,0.461-0.681,0.461-1.084v-1.358c0-0.394-0.154-0.747-0.461-1.063
				c-0.307-0.314-0.669-0.473-1.085-0.473c-0.386,0-0.728,0.141-1.024,0.421c-0.298,0.28-0.446,0.652-0.446,1.114V67.965z"/>
			<path fill="#3399CC" d="M97.146,67.63v-1.411c0-0.782,0.302-1.459,0.906-2.028c0.604-0.569,1.332-0.854,2.184-0.854
				c0.813,0,1.508,0.258,2.088,0.773c0.579,0.516,0.869,1.165,0.869,1.95c0,0.304-0.035,0.548-0.104,0.735
				c-0.069,0.187-0.178,0.317-0.327,0.394c-0.148,0.075-0.287,0.124-0.415,0.144c-0.129,0.021-0.298,0.03-0.506,0.03h-3.135v0.345
				c0,0.499,0.179,0.896,0.535,1.189c0.356,0.295,0.822,0.442,1.396,0.442c0.406,0,0.79-0.095,1.151-0.285
				c0.361-0.189,0.582-0.284,0.661-0.284c0.168,0,0.312,0.08,0.431,0.239c0.119,0.158,0.179,0.313,0.179,0.462
				c0,0.244-0.238,0.492-0.713,0.741c-0.476,0.25-1.061,0.374-1.754,0.374c-1.01,0-1.837-0.271-2.48-0.816
				C97.468,69.225,97.146,68.512,97.146,67.63z M98.706,66.368h2.467c0.218,0,0.363-0.029,0.438-0.088
				c0.075-0.059,0.112-0.176,0.112-0.351c0-0.39-0.145-0.722-0.432-0.994c-0.287-0.273-0.644-0.41-1.069-0.41
				c-0.416,0-0.772,0.13-1.069,0.388c-0.298,0.259-0.446,0.588-0.446,0.987V66.368z"/>
			<path fill="#3399CC" d="M104.976,69.948v-6.017c0-0.148,0.071-0.27,0.215-0.364c0.144-0.094,0.329-0.141,0.558-0.141
				c0.198,0,0.364,0.047,0.497,0.143c0.134,0.095,0.201,0.218,0.201,0.368v0.541c0.158-0.32,0.413-0.591,0.765-0.811
				c0.352-0.221,0.761-0.331,1.226-0.331c0.703,0,1.311,0.288,1.82,0.862s0.766,1.263,0.766,2.064v3.685
				c0,0.159-0.077,0.285-0.23,0.379c-0.154,0.095-0.34,0.142-0.558,0.142c-0.198,0-0.376-0.047-0.534-0.141
				c-0.159-0.094-0.238-0.22-0.238-0.378v-3.675c0-0.396-0.148-0.751-0.445-1.067c-0.298-0.316-0.649-0.475-1.055-0.475
				c-0.377,0-0.709,0.142-0.996,0.423s-0.431,0.654-0.431,1.119v3.675c0,0.128-0.079,0.247-0.237,0.355
				c-0.159,0.108-0.342,0.163-0.55,0.163c-0.218,0-0.401-0.055-0.55-0.164C105.05,70.196,104.976,70.077,104.976,69.948z"/>
			<path fill="#3399CC" d="M116.341,67.63v-1.411c0-0.782,0.302-1.459,0.906-2.028c0.604-0.569,1.332-0.854,2.184-0.854
				c0.813,0,1.508,0.258,2.088,0.773c0.579,0.516,0.869,1.165,0.869,1.95c0,0.304-0.035,0.548-0.104,0.735
				c-0.069,0.187-0.178,0.317-0.327,0.394c-0.148,0.075-0.287,0.124-0.415,0.144c-0.129,0.021-0.298,0.03-0.506,0.03H117.9v0.345
				c0,0.499,0.179,0.896,0.535,1.189c0.356,0.295,0.822,0.442,1.396,0.442c0.406,0,0.79-0.095,1.151-0.285
				c0.361-0.189,0.582-0.284,0.661-0.284c0.168,0,0.312,0.08,0.431,0.239c0.119,0.158,0.179,0.313,0.179,0.462
				c0,0.244-0.238,0.492-0.713,0.741c-0.476,0.25-1.061,0.374-1.754,0.374c-1.01,0-1.837-0.271-2.48-0.816
				C116.662,69.225,116.341,68.512,116.341,67.63z M117.9,66.368h2.467c0.218,0,0.363-0.029,0.438-0.088
				c0.075-0.059,0.112-0.176,0.112-0.351c0-0.39-0.145-0.722-0.432-0.994c-0.287-0.273-0.644-0.41-1.069-0.41
				c-0.416,0-0.772,0.13-1.069,0.388c-0.298,0.259-0.446,0.588-0.446,0.987V66.368z"/>
			<path fill="#3399CC" d="M124.17,69.948v-6.017c0-0.148,0.071-0.27,0.215-0.364c0.144-0.094,0.329-0.141,0.558-0.141
				c0.198,0,0.364,0.047,0.497,0.143c0.134,0.095,0.201,0.218,0.201,0.368v0.541c0.158-0.32,0.413-0.591,0.765-0.811
				c0.352-0.221,0.761-0.331,1.225-0.331c0.703,0,1.311,0.288,1.82,0.862s0.766,1.263,0.766,2.064v3.685
				c0,0.159-0.076,0.285-0.23,0.379c-0.154,0.095-0.34,0.142-0.557,0.142c-0.199,0-0.377-0.047-0.535-0.141s-0.238-0.22-0.238-0.378
				v-3.675c0-0.396-0.148-0.751-0.445-1.067s-0.648-0.475-1.054-0.475c-0.377,0-0.709,0.142-0.996,0.423s-0.431,0.654-0.431,1.119
				v3.675c0,0.128-0.079,0.247-0.237,0.355c-0.159,0.108-0.342,0.163-0.55,0.163c-0.218,0-0.401-0.055-0.55-0.164
				C124.244,70.196,124.17,70.077,124.17,69.948z"/>
			<path fill="#3399CC" d="M132.044,67.63v-1.411c0-0.782,0.301-1.459,0.906-2.028c0.604-0.569,1.332-0.854,2.184-0.854
				c0.813,0,1.508,0.258,2.088,0.773c0.578,0.516,0.869,1.165,0.869,1.95c0,0.304-0.035,0.548-0.105,0.735
				c-0.068,0.187-0.178,0.317-0.326,0.394c-0.148,0.075-0.287,0.124-0.416,0.144c-0.129,0.021-0.297,0.03-0.506,0.03h-3.135v0.345
				c0,0.499,0.18,0.896,0.535,1.189c0.357,0.295,0.822,0.442,1.396,0.442c0.406,0,0.791-0.095,1.152-0.285
				c0.361-0.189,0.582-0.284,0.66-0.284c0.168,0,0.313,0.08,0.432,0.239c0.119,0.158,0.178,0.313,0.178,0.462
				c0,0.244-0.238,0.492-0.713,0.741c-0.475,0.25-1.061,0.374-1.754,0.374c-1.01,0-1.836-0.271-2.48-0.816
				S132.044,68.512,132.044,67.63z M133.603,66.368h2.467c0.219,0,0.363-0.029,0.438-0.088c0.076-0.059,0.113-0.176,0.113-0.351
				c0-0.39-0.145-0.722-0.432-0.994c-0.287-0.273-0.645-0.41-1.07-0.41c-0.416,0-0.771,0.13-1.068,0.388
				c-0.299,0.259-0.447,0.588-0.447,0.987V66.368z"/>
			<path fill="#3399CC" d="M139.873,69.948v-6.017c0-0.148,0.072-0.27,0.215-0.364c0.145-0.094,0.324-0.141,0.543-0.141
				c0.197,0,0.367,0.047,0.506,0.143c0.139,0.095,0.207,0.218,0.207,0.368v0.661c0.168-0.351,0.424-0.648,0.766-0.894
				s0.715-0.368,1.121-0.368h0.477c0.158,0,0.297,0.068,0.416,0.203c0.117,0.136,0.178,0.298,0.178,0.488s-0.061,0.355-0.178,0.495
				c-0.119,0.141-0.258,0.21-0.416,0.21h-0.477c-0.475,0-0.893,0.203-1.256,0.608c-0.361,0.404-0.541,0.929-0.541,1.57v3.038
				c0,0.128-0.08,0.247-0.238,0.355s-0.346,0.163-0.564,0.163s-0.398-0.055-0.543-0.164
				C139.945,70.196,139.873,70.077,139.873,69.948z"/>
			<path fill="#3399CC" d="M145.132,71.794c0-0.701,0.389-1.236,1.164-1.607c-0.439-0.199-0.658-0.528-0.658-0.988
				c0-0.438,0.232-0.818,0.699-1.138c-0.596-0.455-0.893-1.079-0.893-1.872v-0.416c0-0.713,0.256-1.297,0.766-1.753
				c0.51-0.455,1.176-0.684,1.998-0.684c0.693,0,1.268,0.169,1.723,0.506c0.287-0.664,0.609-0.996,0.967-0.996
				c0.188,0,0.342,0.058,0.459,0.171c0.119,0.114,0.18,0.235,0.18,0.364c0,0.158-0.084,0.282-0.254,0.371
				c-0.316,0.14-0.564,0.337-0.742,0.595c0.316,0.396,0.475,0.871,0.475,1.426v0.416c0,0.714-0.262,1.303-0.787,1.769
				s-1.197,0.698-2.02,0.698c-0.387,0-0.729-0.06-1.025-0.179c-0.188,0.13-0.283,0.27-0.283,0.419c0,0.2,0.156,0.345,0.469,0.436
				c0.313,0.09,0.688,0.16,1.129,0.21s0.881,0.123,1.322,0.218s0.818,0.298,1.129,0.608c0.313,0.311,0.469,0.721,0.469,1.231
				c0,0.732-0.295,1.284-0.885,1.655c-0.588,0.371-1.334,0.557-2.236,0.557c-0.9,0-1.652-0.183-2.258-0.548
				C145.435,72.897,145.132,72.408,145.132,71.794z M146.603,71.629c0,0.359,0.156,0.647,0.469,0.863
				c0.313,0.215,0.715,0.322,1.211,0.322c0.484,0,0.877-0.104,1.174-0.314c0.297-0.211,0.445-0.496,0.445-0.856
				c0-0.23-0.07-0.423-0.207-0.578c-0.141-0.155-0.346-0.271-0.617-0.346c-0.273-0.075-0.506-0.125-0.699-0.15
				c-0.193-0.024-0.453-0.047-0.779-0.067C146.935,70.752,146.603,71.128,146.603,71.629z M146.96,66.174
				c0,0.437,0.113,0.793,0.342,1.069c0.227,0.278,0.539,0.416,0.936,0.416c0.387,0,0.693-0.136,0.922-0.408
				c0.227-0.272,0.342-0.626,0.342-1.063v-0.416c0-0.416-0.115-0.76-0.342-1.032c-0.229-0.272-0.541-0.408-0.938-0.408
				c-0.385,0-0.693,0.136-0.92,0.408c-0.229,0.272-0.342,0.616-0.342,1.032V66.174z"/>
			<path fill="#3399CC" d="M152.398,73.142c0-0.445,0.143-0.668,0.43-0.668c0.447,0,0.887-0.214,1.322-0.64s0.703-1.024,0.803-1.797
				l-2.496-5.765c-0.039-0.05-0.059-0.119-0.059-0.208c0-0.188,0.113-0.359,0.342-0.513c0.227-0.153,0.455-0.23,0.684-0.23
				c0.246,0,0.406,0.095,0.475,0.282l1.873,4.829l1.604-4.829c0.09-0.188,0.238-0.282,0.445-0.282c0.209,0,0.434,0.077,0.676,0.23
				c0.244,0.153,0.365,0.334,0.365,0.542c0,0.09-0.01,0.148-0.031,0.179l-2.197,5.809l-0.254,0.669
				c-0.059,0.139-0.15,0.352-0.273,0.639c-0.125,0.287-0.23,0.505-0.32,0.653l-0.355,0.55c-0.15,0.228-0.299,0.398-0.447,0.513
				s-0.316,0.232-0.504,0.356c-0.189,0.124-0.396,0.213-0.625,0.268c-0.227,0.055-0.471,0.082-0.727,0.082
				C152.64,73.811,152.398,73.588,152.398,73.142z"/>
			<path fill="#3399CC" d="M163.867,69.948v-6.017c0-0.148,0.07-0.27,0.215-0.364c0.143-0.094,0.328-0.141,0.557-0.141
				c0.188,0,0.352,0.047,0.49,0.143c0.139,0.095,0.209,0.218,0.209,0.368v0.541c0.426-0.761,1.084-1.142,1.975-1.142
				c0.436,0,0.826,0.138,1.166,0.413c0.342,0.275,0.604,0.638,0.781,1.088c0.248-0.49,0.572-0.863,0.973-1.118
				s0.824-0.383,1.27-0.383c0.703,0,1.311,0.266,1.82,0.795c0.51,0.53,0.766,1.241,0.766,2.132v3.685
				c0,0.129-0.08,0.248-0.238,0.356c-0.158,0.109-0.342,0.164-0.549,0.164c-0.199,0-0.377-0.055-0.535-0.163
				s-0.238-0.228-0.238-0.355v-3.675c0-0.484-0.139-0.864-0.416-1.142c-0.277-0.276-0.6-0.415-0.965-0.415
				c-0.367,0-0.691,0.139-0.973,0.415c-0.283,0.277-0.424,0.647-0.424,1.111v3.72c0,0.168-0.078,0.294-0.23,0.378
				c-0.154,0.084-0.34,0.126-0.557,0.126c-0.199,0-0.377-0.042-0.535-0.126s-0.238-0.21-0.238-0.378v-3.705
				c0-0.444-0.137-0.81-0.408-1.097c-0.273-0.286-0.598-0.43-0.973-0.43c-0.377,0-0.701,0.139-0.975,0.415
				c-0.271,0.277-0.408,0.652-0.408,1.127v3.675c0,0.128-0.078,0.247-0.236,0.355c-0.16,0.108-0.342,0.163-0.551,0.163
				c-0.217,0-0.4-0.055-0.549-0.164C163.941,70.196,163.867,70.077,163.867,69.948z"/>
			<path fill="#3399CC" d="M175.736,68.625c0-0.792,0.299-1.344,0.893-1.656c0.594-0.312,1.455-0.468,2.584-0.468h0.654v-0.273
				c0-0.446-0.121-0.832-0.363-1.156c-0.244-0.325-0.611-0.487-1.107-0.487c-0.426,0-0.801,0.082-1.121,0.245
				c-0.322,0.164-0.498,0.245-0.527,0.245c-0.17,0-0.305-0.081-0.41-0.245c-0.104-0.163-0.154-0.344-0.154-0.542
				c0-0.258,0.24-0.48,0.721-0.669c0.479-0.188,0.986-0.282,1.521-0.282c1.02,0,1.775,0.275,2.266,0.825s0.736,1.235,0.736,2.058
				v3.729c0,0.139-0.072,0.261-0.217,0.364c-0.143,0.104-0.324,0.156-0.541,0.156c-0.199,0-0.367-0.052-0.506-0.156
				c-0.139-0.104-0.207-0.226-0.207-0.364v-0.52c-0.664,0.772-1.412,1.158-2.244,1.158c-0.574,0-1.047-0.168-1.418-0.505
				C175.921,69.746,175.736,69.259,175.736,68.625z M177.312,68.433c0,0.316,0.088,0.557,0.268,0.72
				c0.178,0.164,0.41,0.245,0.697,0.245c0.377,0,0.736-0.158,1.078-0.475c0.342-0.317,0.512-0.654,0.512-1.011v-0.55h-0.371
				c-0.445,0-0.811,0.021-1.092,0.06c-0.283,0.04-0.535,0.144-0.758,0.313C177.423,67.903,177.312,68.135,177.312,68.433z"/>
			<path fill="#3399CC" d="M183.537,69.948v-6.017c0-0.148,0.07-0.27,0.215-0.364c0.143-0.094,0.328-0.141,0.557-0.141
				c0.199,0,0.365,0.047,0.498,0.143c0.133,0.095,0.201,0.218,0.201,0.368v0.541c0.158-0.32,0.412-0.591,0.764-0.811
				c0.352-0.221,0.762-0.331,1.227-0.331c0.703,0,1.311,0.288,1.82,0.862s0.766,1.263,0.766,2.064v3.685
				c0,0.159-0.078,0.285-0.23,0.379c-0.154,0.095-0.34,0.142-0.559,0.142c-0.197,0-0.375-0.047-0.533-0.141
				c-0.16-0.094-0.238-0.22-0.238-0.378v-3.675c0-0.396-0.148-0.751-0.445-1.067c-0.299-0.316-0.65-0.475-1.055-0.475
				c-0.377,0-0.709,0.142-0.996,0.423s-0.432,0.654-0.432,1.119v3.675c0,0.128-0.078,0.247-0.236,0.355
				c-0.16,0.108-0.342,0.163-0.551,0.163c-0.217,0-0.4-0.055-0.549-0.164C183.611,70.196,183.537,70.077,183.537,69.948z"/>
			<path fill="#3399CC" d="M191.232,68.625c0-0.792,0.297-1.344,0.891-1.656c0.596-0.312,1.457-0.468,2.586-0.468h0.654v-0.273
				c0-0.446-0.123-0.832-0.365-1.156c-0.242-0.325-0.611-0.487-1.107-0.487c-0.426,0-0.799,0.082-1.121,0.245
				c-0.322,0.164-0.498,0.245-0.527,0.245c-0.168,0-0.305-0.081-0.408-0.245c-0.104-0.163-0.156-0.344-0.156-0.542
				c0-0.258,0.24-0.48,0.721-0.669c0.48-0.188,0.988-0.282,1.523-0.282c1.02,0,1.775,0.275,2.266,0.825s0.734,1.235,0.734,2.058
				v3.729c0,0.139-0.072,0.261-0.215,0.364c-0.145,0.104-0.324,0.156-0.543,0.156c-0.197,0-0.365-0.052-0.504-0.156
				c-0.139-0.104-0.209-0.226-0.209-0.364v-0.52c-0.664,0.772-1.41,1.158-2.242,1.158c-0.576,0-1.049-0.168-1.42-0.505
				C191.417,69.746,191.232,69.259,191.232,68.625z M192.806,68.433c0,0.316,0.09,0.557,0.268,0.72
				c0.178,0.164,0.412,0.245,0.699,0.245c0.375,0,0.734-0.158,1.076-0.475c0.342-0.317,0.514-0.654,0.514-1.011v-0.55h-0.373
				c-0.445,0-0.809,0.021-1.092,0.06c-0.281,0.04-0.535,0.144-0.758,0.313C192.917,67.903,192.806,68.135,192.806,68.433z"/>
			<path fill="#3399CC" d="M198.496,71.794c0-0.701,0.389-1.236,1.164-1.607c-0.439-0.199-0.658-0.528-0.658-0.988
				c0-0.438,0.232-0.818,0.699-1.138c-0.596-0.455-0.893-1.079-0.893-1.872v-0.416c0-0.713,0.256-1.297,0.766-1.753
				c0.51-0.455,1.176-0.684,1.998-0.684c0.693,0,1.268,0.169,1.723,0.506c0.287-0.664,0.609-0.996,0.967-0.996
				c0.188,0,0.342,0.058,0.459,0.171c0.119,0.114,0.18,0.235,0.18,0.364c0,0.158-0.084,0.282-0.254,0.371
				c-0.316,0.14-0.564,0.337-0.742,0.595c0.316,0.396,0.475,0.871,0.475,1.426v0.416c0,0.714-0.262,1.303-0.787,1.769
				s-1.197,0.698-2.02,0.698c-0.387,0-0.729-0.06-1.025-0.179c-0.188,0.13-0.283,0.27-0.283,0.419c0,0.2,0.156,0.345,0.469,0.436
				c0.313,0.09,0.688,0.16,1.129,0.21s0.881,0.123,1.322,0.218s0.818,0.298,1.129,0.608c0.313,0.311,0.469,0.721,0.469,1.231
				c0,0.732-0.295,1.284-0.885,1.655c-0.588,0.371-1.334,0.557-2.236,0.557c-0.9,0-1.652-0.183-2.258-0.548
				C198.798,72.897,198.496,72.408,198.496,71.794z M199.966,71.629c0,0.359,0.156,0.647,0.469,0.863
				c0.313,0.215,0.715,0.322,1.211,0.322c0.484,0,0.877-0.104,1.174-0.314c0.297-0.211,0.445-0.496,0.445-0.856
				c0-0.23-0.07-0.423-0.207-0.578c-0.141-0.155-0.346-0.271-0.617-0.346c-0.273-0.075-0.506-0.125-0.699-0.15
				c-0.193-0.024-0.453-0.047-0.779-0.067C200.298,70.752,199.966,71.128,199.966,71.629z M200.324,66.174
				c0,0.437,0.113,0.793,0.342,1.069c0.227,0.278,0.539,0.416,0.936,0.416c0.387,0,0.693-0.136,0.922-0.408
				c0.227-0.272,0.342-0.626,0.342-1.063v-0.416c0-0.416-0.115-0.76-0.342-1.032c-0.229-0.272-0.541-0.408-0.938-0.408
				c-0.385,0-0.693,0.136-0.92,0.408c-0.229,0.272-0.342,0.616-0.342,1.032V66.174z"/>
			<path fill="#3399CC" d="M206.164,67.63v-1.411c0-0.782,0.301-1.459,0.906-2.028c0.604-0.569,1.332-0.854,2.184-0.854
				c0.813,0,1.508,0.258,2.088,0.773c0.578,0.516,0.869,1.165,0.869,1.95c0,0.304-0.035,0.548-0.105,0.735
				c-0.068,0.187-0.178,0.317-0.326,0.394c-0.148,0.075-0.287,0.124-0.416,0.144c-0.129,0.021-0.297,0.03-0.506,0.03h-3.135v0.345
				c0,0.499,0.18,0.896,0.535,1.189c0.357,0.295,0.822,0.442,1.396,0.442c0.406,0,0.791-0.095,1.152-0.285
				c0.361-0.189,0.582-0.284,0.66-0.284c0.168,0,0.313,0.08,0.432,0.239c0.119,0.158,0.178,0.313,0.178,0.462
				c0,0.244-0.238,0.492-0.713,0.741c-0.475,0.25-1.061,0.374-1.754,0.374c-1.01,0-1.836-0.271-2.48-0.816
				S206.164,68.512,206.164,67.63z M207.722,66.368h2.467c0.219,0,0.363-0.029,0.438-0.088c0.076-0.059,0.113-0.176,0.113-0.351
				c0-0.39-0.145-0.722-0.432-0.994c-0.287-0.273-0.645-0.41-1.07-0.41c-0.416,0-0.771,0.13-1.068,0.388
				c-0.299,0.259-0.447,0.588-0.447,0.987V66.368z"/>
			<path fill="#3399CC" d="M213.992,69.948v-6.017c0-0.148,0.072-0.27,0.215-0.364c0.145-0.094,0.33-0.141,0.559-0.141
				c0.188,0,0.352,0.047,0.49,0.143c0.139,0.095,0.207,0.218,0.207,0.368v0.541c0.426-0.761,1.084-1.142,1.977-1.142
				c0.436,0,0.824,0.138,1.166,0.413s0.602,0.638,0.779,1.088c0.248-0.49,0.572-0.863,0.975-1.118c0.4-0.255,0.824-0.383,1.27-0.383
				c0.703,0,1.309,0.266,1.82,0.795c0.51,0.53,0.764,1.241,0.764,2.132v3.685c0,0.129-0.078,0.248-0.236,0.356
				c-0.158,0.109-0.342,0.164-0.551,0.164c-0.197,0-0.375-0.055-0.535-0.163c-0.158-0.108-0.236-0.228-0.236-0.355v-3.675
				c0-0.484-0.139-0.864-0.416-1.142c-0.277-0.276-0.6-0.415-0.967-0.415c-0.365,0-0.689,0.139-0.973,0.415
				c-0.281,0.277-0.424,0.647-0.424,1.111v3.72c0,0.168-0.076,0.294-0.23,0.378c-0.152,0.084-0.338,0.126-0.557,0.126
				c-0.197,0-0.377-0.042-0.535-0.126s-0.236-0.21-0.236-0.378v-3.705c0-0.444-0.137-0.81-0.41-1.097
				c-0.271-0.286-0.596-0.43-0.973-0.43s-0.701,0.139-0.973,0.415c-0.273,0.277-0.408,0.652-0.408,1.127v3.675
				c0,0.128-0.08,0.247-0.238,0.355s-0.342,0.163-0.549,0.163c-0.219,0-0.402-0.055-0.551-0.164
				C214.066,70.196,213.992,70.077,213.992,69.948z"/>
			<path fill="#3399CC" d="M226.041,67.63v-1.411c0-0.782,0.303-1.459,0.906-2.028s1.332-0.854,2.184-0.854
				c0.813,0,1.508,0.258,2.088,0.773s0.869,1.165,0.869,1.95c0,0.304-0.035,0.548-0.104,0.735c-0.07,0.187-0.178,0.317-0.328,0.394
				c-0.148,0.075-0.287,0.124-0.414,0.144c-0.129,0.021-0.299,0.03-0.506,0.03h-3.135v0.345c0,0.499,0.178,0.896,0.535,1.189
				c0.355,0.295,0.822,0.442,1.396,0.442c0.406,0,0.789-0.095,1.15-0.285c0.361-0.189,0.582-0.284,0.662-0.284
				c0.168,0,0.311,0.08,0.43,0.239c0.119,0.158,0.18,0.313,0.18,0.462c0,0.244-0.238,0.492-0.713,0.741
				c-0.477,0.25-1.061,0.374-1.754,0.374c-1.01,0-1.838-0.271-2.48-0.816C226.363,69.225,226.041,68.512,226.041,67.63z
				 M227.601,66.368h2.467c0.217,0,0.363-0.029,0.438-0.088s0.111-0.176,0.111-0.351c0-0.39-0.145-0.722-0.432-0.994
				c-0.287-0.273-0.643-0.41-1.068-0.41c-0.416,0-0.773,0.13-1.07,0.388c-0.297,0.259-0.445,0.588-0.445,0.987V66.368z"/>
			<path fill="#3399CC" d="M233.871,69.948v-6.017c0-0.148,0.07-0.27,0.215-0.364c0.143-0.094,0.328-0.141,0.557-0.141
				c0.199,0,0.365,0.047,0.498,0.143c0.133,0.095,0.201,0.218,0.201,0.368v0.541c0.158-0.32,0.412-0.591,0.764-0.811
				c0.352-0.221,0.762-0.331,1.227-0.331c0.703,0,1.311,0.288,1.82,0.862s0.766,1.263,0.766,2.064v3.685
				c0,0.159-0.078,0.285-0.23,0.379c-0.154,0.095-0.34,0.142-0.559,0.142c-0.197,0-0.375-0.047-0.533-0.141
				c-0.16-0.094-0.238-0.22-0.238-0.378v-3.675c0-0.396-0.148-0.751-0.445-1.067c-0.299-0.316-0.65-0.475-1.055-0.475
				c-0.377,0-0.709,0.142-0.996,0.423s-0.432,0.654-0.432,1.119v3.675c0,0.128-0.078,0.247-0.236,0.355
				c-0.16,0.108-0.342,0.163-0.551,0.163c-0.217,0-0.4-0.055-0.549-0.164C233.945,70.196,233.871,70.077,233.871,69.948z"/>
			<path fill="#3399CC" d="M241.998,68.15v-7.442c0-0.139,0.078-0.258,0.236-0.356c0.158-0.1,0.338-0.149,0.535-0.149
				s0.379,0.05,0.543,0.149c0.162,0.099,0.244,0.218,0.244,0.356v2.719h1.813c0.129,0,0.232,0.057,0.313,0.171
				c0.078,0.113,0.119,0.25,0.119,0.408s-0.041,0.295-0.119,0.408c-0.08,0.114-0.184,0.171-0.313,0.171h-1.813v3.565
				c0,0.357,0.076,0.609,0.23,0.758s0.424,0.224,0.811,0.224h0.52c0.207,0,0.371,0.064,0.49,0.192
				c0.119,0.129,0.178,0.288,0.178,0.476c0,0.188-0.059,0.347-0.178,0.476s-0.283,0.193-0.49,0.193h-0.52
				C242.863,70.468,241.998,69.696,241.998,68.15z"/>
		</g>
	</g>
	<g>
		<path fill="#1D1D1B" d="M3.249,29.384v-8.082c0-4.067,1.545-7.619,4.635-10.657c3.091-3.037,6.747-4.556,10.975-4.556
			c4.226,0,7.896,1.505,11.014,4.517c3.116,3.011,4.675,6.577,4.675,10.697v8.082c0,4.015-1.572,7.581-4.715,10.697
			c-3.144,3.117-6.802,4.675-10.974,4.675c-4.174,0-7.818-1.545-10.935-4.636C4.806,37.03,3.249,33.452,3.249,29.384z M9.825,29.36
			c0,2.468,0.897,4.647,2.694,6.538c1.795,1.891,3.908,2.835,6.339,2.835c2.482,0,4.621-0.958,6.418-2.874
			c1.795-1.917,2.693-4.082,2.693-6.499v-8.034c0-2.362-0.898-4.489-2.693-6.38c-1.797-1.891-3.936-2.836-6.418-2.836
			c-2.483,0-4.609,0.946-6.379,2.836c-1.771,1.891-2.654,4.018-2.654,6.38V29.36z"/>
		<path fill="#1D1D1B" d="M41.519,51.627c0-3.87,2.14-6.759,6.418-8.666c-2.589-1.007-3.883-2.782-3.883-5.327
			c0-2.435,1.269-4.392,3.804-5.874c-3.011-2.429-4.517-5.756-4.517-9.983v-2.615c0-3.855,1.294-6.999,3.883-9.429
			c2.588-2.429,5.994-3.645,10.222-3.645c3.591,0,6.682,0.982,9.271,2.943c1.584-3.335,3.38-5.003,5.388-5.003
			c0.845,0,1.531,0.251,2.061,0.753c0.527,0.502,0.792,1.069,0.792,1.704c0,0.689-0.449,1.218-1.347,1.584
			c-1.797,0.525-3.223,1.713-4.279,3.565c1.637,1.955,2.456,4.465,2.456,7.528v2.615c0,3.803-1.347,6.947-4.041,9.428
			c-2.693,2.484-6.128,3.725-10.3,3.725c-2.167,0-4.121-0.396-5.864-1.188c-1.32,0.777-1.98,1.656-1.98,2.64
			c0,0.982,0.609,1.746,1.829,2.29c1.219,0.544,2.721,0.929,4.506,1.155c1.784,0.228,3.739,0.477,5.863,0.746
			c2.125,0.271,4.085,0.702,5.877,1.294c1.793,0.592,3.296,1.642,4.51,3.149c1.213,1.508,1.819,3.42,1.819,5.736
			c0,3.732-1.493,6.585-4.477,8.558c-2.985,1.97-6.854,2.956-11.608,2.956c-4.754,0-8.676-0.959-11.766-2.876
			C43.063,57.471,41.519,54.883,41.519,51.627z M47.778,50.895c0,2.072,0.911,3.732,2.733,4.981
			c1.822,1.248,4.266,1.873,7.329,1.873c2.958,0,5.321-0.626,7.092-1.877c1.77-1.253,2.654-2.916,2.654-4.994
			c0-0.852-0.146-1.598-0.436-2.235c-0.291-0.641-0.753-1.173-1.387-1.599s-1.267-0.786-1.9-1.078
			c-0.634-0.294-1.461-0.508-2.482-0.642C60.36,45.189,59.536,45.08,58.908,45c-0.629-0.083-1.493-0.197-2.593-0.341
			c-1.101-0.145-1.859-0.245-2.277-0.3C49.864,45.741,47.778,47.918,47.778,50.895z M49.759,21.698c0,2.536,0.7,4.623,2.1,6.26
			c1.399,1.638,3.314,2.456,5.745,2.456c2.323,0,4.199-0.805,5.626-2.417c1.426-1.611,2.139-3.685,2.139-6.22v-2.615
			c0-2.429-0.713-4.463-2.139-6.102c-1.427-1.637-3.328-2.456-5.705-2.456c-2.431,0-4.332,0.806-5.705,2.417
			c-1.374,1.612-2.061,3.659-2.061,6.141V21.698z"/>
		<path fill="#3399CC" d="M81.215,29.384v-8.32c0-4.067,1.545-7.579,4.635-10.538c3.091-2.958,6.801-4.438,11.133-4.438
			c4.12,0,7.686,1.379,10.696,4.138c3.012,2.758,4.517,6.212,4.517,10.362c0,1.55-0.186,2.793-0.555,3.729
			c-0.37,0.936-0.938,1.603-1.703,2.004c-0.767,0.401-1.479,0.656-2.14,0.762c-0.661,0.107-1.545,0.16-2.654,0.16H87.791v2.377
			c0,2.905,1.042,5.229,3.13,6.973c2.086,1.743,4.794,2.614,8.121,2.614c1.744,0,3.262-0.264,4.557-0.792
			c1.294-0.527,2.337-1.043,3.13-1.545c0.792-0.502,1.426-0.753,1.901-0.753c0.739,0,1.373,0.33,1.901,0.99
			c0.527,0.661,0.793,1.335,0.793,2.021c0,1.216-1.202,2.456-3.605,3.725c-2.404,1.268-5.376,1.901-8.914,1.901
			c-5.178,0-9.403-1.413-12.678-4.239C82.852,37.691,81.215,33.979,81.215,29.384z M87.791,22.728h14.658
			c1.373,0,2.298-0.171,2.773-0.515c0.476-0.343,0.713-1.017,0.713-2.021c0-2.377-0.871-4.463-2.614-6.26
			c-1.743-1.795-3.883-2.694-6.418-2.694c-2.483,0-4.623,0.832-6.418,2.496c-1.797,1.664-2.694,3.711-2.694,6.141V22.728z"/>
		<path fill="#1D1D1B" d="M121.466,41.745V8.862c0-0.686,0.304-1.241,0.911-1.664c0.606-0.422,1.387-0.634,2.338-0.634
			c0.844,0,1.558,0.215,2.139,0.644c0.582,0.429,0.873,0.992,0.873,1.688v3.294c0.951-1.765,2.336-3.224,4.16-4.375
			c1.822-1.15,3.947-1.726,6.377-1.726s4.609,0.734,6.537,2.2s3.367,3.398,4.318,5.798c1.32-2.612,3.063-4.598,5.23-5.958
			c2.164-1.359,4.438-2.041,6.814-2.041c3.695,0,6.879,1.375,9.547,4.121c2.668,2.747,4.002,6.445,4.002,11.093v20.443
			c0,0.581-0.33,1.123-0.99,1.624c-0.662,0.503-1.439,0.753-2.338,0.753c-0.846,0-1.598-0.25-2.258-0.751
			c-0.662-0.5-0.99-1.041-0.99-1.62V21.359c0-2.845-0.832-5.099-2.496-6.759c-1.664-1.659-3.605-2.49-5.824-2.49
			s-4.188,0.843-5.902,2.529c-1.719,1.687-2.576,3.847-2.576,6.481V41.83c0,0.738-0.33,1.304-0.99,1.698
			c-0.66,0.396-1.439,0.594-2.338,0.594c-0.846,0-1.598-0.197-2.258-0.594c-0.66-0.395-0.99-0.96-0.99-1.698V21.2
			c0-2.635-0.807-4.807-2.416-6.521c-1.613-1.712-3.555-2.569-5.824-2.569c-2.271,0-4.254,0.843-5.943,2.529
			c-1.691,1.687-2.535,3.926-2.535,6.719V41.75c0,0.579-0.33,1.12-0.991,1.62c-0.661,0.501-1.439,0.751-2.337,0.751
			c-0.899,0-1.664-0.238-2.298-0.713C121.783,42.933,121.466,42.378,121.466,41.745z"/>
		<path fill="#1D1D1B" d="M183.269,34.307c0-4.153,1.586-7.043,4.754-8.667c3.17-1.624,7.766-2.436,13.787-2.436h3.805v-1.675
			c0-2.659-0.729-4.972-2.18-6.94c-1.453-1.969-3.633-2.953-6.537-2.953c-2.219,0-4.174,0.396-5.863,1.189
			c-1.691,0.792-2.615,1.188-2.773,1.188c-0.74,0-1.334-0.357-1.783-1.07s-0.674-1.466-0.674-2.258c0-1.214,1.201-2.284,3.605-3.209
			c2.404-0.923,4.953-1.387,7.646-1.387c5.176,0,8.994,1.466,11.449,4.398c2.457,2.932,3.686,6.59,3.686,10.974v20.284
			c0,0.687-0.305,1.255-0.912,1.703c-0.607,0.449-1.387,0.674-2.338,0.674c-0.846,0-1.559-0.218-2.139-0.655
			c-0.582-0.437-0.871-0.99-0.871-1.659v-3.085c-3.594,4.022-7.58,6.033-11.965,6.033c-3.17,0-5.744-0.891-7.727-2.671
			C184.259,40.304,183.269,37.712,183.269,34.307z M189.925,33.585c0,1.979,0.555,3.478,1.664,4.494
			c1.109,1.018,2.588,1.525,4.438,1.525c2.219,0,4.369-0.896,6.457-2.689c2.086-1.792,3.131-3.625,3.131-5.498v-4.173h-2.773
			c-1.533,0-2.854,0.041-3.963,0.12c-1.109,0.081-2.258,0.242-3.447,0.482c-1.188,0.241-2.166,0.589-2.932,1.043
			c-0.766,0.456-1.387,1.071-1.861,1.846C190.164,31.512,189.925,32.461,189.925,33.585z"/>
	</g>
</g>
</svg>
