<?xml version="1.0" encoding="utf-8"?>
<!-- Generator: Adobe Illustrator 16.0.0, SVG Export Plug-In . SVG Version: 6.00 Build 0)  -->
<!DOCTYPE svg PUBLIC "-//W3C//DTD SVG 1.1//EN" "http://www.w3.org/Graphics/SVG/1.1/DTD/svg11.dtd">
<svg version="1.1" id="Ebene_1" xmlns="http://www.w3.org/2000/svg" xmlns:xlink="http://www.w3.org/1999/xlink" x="0px" y="0px"
	 width="355.345px" height="156.649px" viewBox="0 0 355.345 156.649" enable-background="new 0 0 355.345 156.649"
	 xml:space="preserve">
<g>
	<g>
		<g enable-background="new    ">
			<path fill="#9C9B9B" d="M44.689,149.67c0,0.59-0.092,1.135-0.275,1.633s-0.45,0.926-0.798,1.283
				c-0.349,0.357-0.765,0.633-1.248,0.824c-0.483,0.19-1.027,0.285-1.632,0.285c-0.6,0-1.14-0.096-1.618-0.289
				s-0.894-0.471-1.244-0.831s-0.616-0.786-0.798-1.276c-0.182-0.491-0.271-1.034-0.271-1.629c0-0.6,0.092-1.148,0.275-1.646
				s0.447-0.924,0.791-1.277c0.343-0.353,0.759-0.625,1.247-0.816c0.488-0.19,1.027-0.285,1.618-0.285
				c0.6,0,1.144,0.096,1.632,0.289s0.907,0.47,1.255,0.827c0.349,0.358,0.613,0.784,0.795,1.276
				C44.598,148.532,44.689,149.076,44.689,149.67z M42.702,149.67c0-0.808-0.178-1.437-0.533-1.887
				c-0.355-0.449-0.833-0.674-1.433-0.674c-0.388,0-0.729,0.1-1.023,0.301s-0.522,0.497-0.682,0.889s-0.239,0.849-0.239,1.371
				c0,0.518,0.078,0.97,0.235,1.356c0.157,0.388,0.382,0.683,0.675,0.889s0.638,0.309,1.034,0.309c0.6,0,1.077-0.226,1.433-0.679
				C42.524,151.093,42.702,150.468,42.702,149.67z"/>
			<path fill="#9C9B9B" d="M48.596,146.754v0.239c0.373-0.46,0.76-0.797,1.161-1.013c0.401-0.215,0.855-0.322,1.363-0.322
				c0.609,0,1.171,0.157,1.684,0.472s0.917,0.774,1.215,1.378c0.298,0.605,0.446,1.32,0.446,2.147c0,0.609-0.086,1.169-0.258,1.68
				s-0.407,0.938-0.707,1.284s-0.654,0.611-1.063,0.797c-0.409,0.188-0.848,0.279-1.317,0.279c-0.565,0-1.041-0.113-1.425-0.34
				c-0.385-0.228-0.751-0.562-1.1-1.002v2.975c0,0.871-0.316,1.306-0.95,1.306c-0.372,0-0.619-0.112-0.739-0.337
				c-0.121-0.225-0.182-0.553-0.182-0.983v-8.546c0-0.377,0.082-0.658,0.246-0.845c0.165-0.187,0.39-0.278,0.675-0.278
				c0.28,0,0.509,0.095,0.686,0.285C48.508,146.122,48.596,146.397,48.596,146.754z M52.477,149.634
				c0-0.522-0.079-0.972-0.239-1.346c-0.159-0.375-0.381-0.663-0.663-0.863c-0.283-0.2-0.597-0.302-0.939-0.302
				c-0.547,0-1.008,0.216-1.382,0.646c-0.375,0.43-0.563,1.064-0.563,1.9c0,0.788,0.186,1.401,0.559,1.839
				c0.372,0.438,0.834,0.657,1.386,0.657c0.328,0,0.633-0.096,0.914-0.287c0.28-0.191,0.505-0.478,0.675-0.859
				C52.393,150.637,52.477,150.176,52.477,149.634z"/>
			<path fill="#9C9B9B" d="M62.102,150.157h-3.874c0.005,0.449,0.096,0.846,0.272,1.189c0.176,0.344,0.41,0.602,0.703,0.776
				c0.293,0.174,0.615,0.261,0.969,0.261c0.236,0,0.453-0.027,0.649-0.083c0.195-0.056,0.386-0.144,0.569-0.261
				c0.184-0.119,0.353-0.246,0.508-0.381c0.154-0.136,0.355-0.32,0.602-0.552c0.102-0.087,0.247-0.131,0.436-0.131
				c0.203,0,0.367,0.056,0.493,0.167s0.188,0.269,0.188,0.472c0,0.179-0.07,0.388-0.21,0.628c-0.141,0.238-0.352,0.469-0.635,0.688
				s-0.639,0.403-1.066,0.548s-0.92,0.217-1.477,0.217c-1.271,0-2.261-0.361-2.967-1.088c-0.706-0.725-1.059-1.709-1.059-2.952
				c0-0.585,0.087-1.128,0.261-1.628c0.174-0.501,0.428-0.93,0.762-1.288s0.745-0.632,1.233-0.823s1.03-0.287,1.625-0.287
				c0.773,0,1.438,0.164,1.991,0.49s0.968,0.748,1.244,1.266c0.275,0.518,0.413,1.045,0.413,1.582c0,0.498-0.143,0.82-0.428,0.968
				S62.62,150.157,62.102,150.157z M58.228,149.032h3.591c-0.048-0.677-0.23-1.184-0.548-1.52c-0.316-0.336-0.733-0.504-1.251-0.504
				c-0.493,0-0.898,0.17-1.215,0.512C58.488,147.86,58.295,148.365,58.228,149.032z"/>
			<path fill="#9C9B9B" d="M67.722,146.74v0.239c0.348-0.459,0.729-0.797,1.143-1.012c0.413-0.215,0.889-0.322,1.425-0.322
				c0.522,0,0.989,0.113,1.4,0.34c0.411,0.228,0.718,0.549,0.921,0.965c0.131,0.242,0.216,0.504,0.254,0.783
				c0.039,0.281,0.059,0.639,0.059,1.074v3.686c0,0.396-0.091,0.695-0.272,0.898s-0.417,0.305-0.707,0.305
				c-0.295,0-0.534-0.104-0.718-0.311c-0.185-0.209-0.276-0.506-0.276-0.893v-3.301c0-0.653-0.091-1.152-0.271-1.498
				c-0.182-0.346-0.543-0.52-1.085-0.52c-0.353,0-0.675,0.105-0.965,0.316c-0.29,0.21-0.503,0.499-0.639,0.867
				c-0.097,0.295-0.145,0.846-0.145,1.653v2.481c0,0.4-0.094,0.702-0.279,0.902c-0.187,0.201-0.427,0.301-0.722,0.301
				c-0.285,0-0.521-0.104-0.704-0.311c-0.184-0.209-0.275-0.506-0.275-0.893v-5.725c0-0.377,0.082-0.658,0.247-0.845
				c0.164-0.187,0.389-0.278,0.674-0.278c0.175,0,0.332,0.041,0.472,0.123c0.141,0.082,0.253,0.205,0.338,0.369
				C67.679,146.302,67.722,146.502,67.722,146.74z"/>
			<path fill="#9C9B9B" d="M85.178,150.157h-3.874c0.005,0.449,0.096,0.846,0.272,1.189c0.176,0.344,0.41,0.602,0.703,0.776
				c0.293,0.174,0.615,0.261,0.969,0.261c0.236,0,0.453-0.027,0.649-0.083c0.195-0.056,0.386-0.144,0.569-0.261
				c0.184-0.119,0.353-0.246,0.508-0.381c0.154-0.136,0.355-0.32,0.602-0.552c0.102-0.087,0.247-0.131,0.436-0.131
				c0.203,0,0.367,0.056,0.493,0.167s0.188,0.269,0.188,0.472c0,0.179-0.07,0.388-0.21,0.628c-0.141,0.238-0.352,0.469-0.635,0.688
				s-0.639,0.403-1.066,0.548s-0.92,0.217-1.477,0.217c-1.271,0-2.261-0.361-2.967-1.088c-0.706-0.725-1.059-1.709-1.059-2.952
				c0-0.585,0.087-1.128,0.261-1.628c0.174-0.501,0.428-0.93,0.762-1.288s0.745-0.632,1.233-0.823s1.03-0.287,1.625-0.287
				c0.773,0,1.438,0.164,1.991,0.49s0.968,0.748,1.244,1.266c0.275,0.518,0.413,1.045,0.413,1.582c0,0.498-0.143,0.82-0.428,0.968
				S85.696,150.157,85.178,150.157z M81.304,149.032h3.591c-0.048-0.677-0.23-1.184-0.548-1.52
				c-0.316-0.336-0.733-0.504-1.251-0.504c-0.493,0-0.898,0.17-1.215,0.512C81.564,147.86,81.372,148.365,81.304,149.032z"/>
			<path fill="#9C9B9B" d="M90.798,146.74v0.239c0.348-0.459,0.729-0.797,1.143-1.012c0.413-0.215,0.889-0.322,1.425-0.322
				c0.522,0,0.989,0.113,1.4,0.34c0.411,0.228,0.718,0.549,0.921,0.965c0.131,0.242,0.216,0.504,0.254,0.783
				c0.039,0.281,0.059,0.639,0.059,1.074v3.686c0,0.396-0.091,0.695-0.272,0.898s-0.417,0.305-0.707,0.305
				c-0.295,0-0.534-0.104-0.718-0.311c-0.185-0.209-0.276-0.506-0.276-0.893v-3.301c0-0.653-0.091-1.152-0.271-1.498
				c-0.182-0.346-0.543-0.52-1.085-0.52c-0.353,0-0.675,0.105-0.965,0.316c-0.29,0.21-0.503,0.499-0.639,0.867
				c-0.097,0.295-0.145,0.846-0.145,1.653v2.481c0,0.4-0.094,0.702-0.279,0.902c-0.187,0.201-0.427,0.301-0.722,0.301
				c-0.285,0-0.521-0.104-0.704-0.311c-0.184-0.209-0.275-0.506-0.275-0.893v-5.725c0-0.377,0.082-0.658,0.247-0.845
				c0.164-0.187,0.389-0.278,0.674-0.278c0.175,0,0.332,0.041,0.472,0.123c0.141,0.082,0.253,0.205,0.338,0.369
				C90.755,146.302,90.798,146.502,90.798,146.74z"/>
			<path fill="#9C9B9B" d="M104.02,150.157h-3.874c0.005,0.449,0.096,0.846,0.272,1.189c0.176,0.344,0.41,0.602,0.703,0.776
				c0.293,0.174,0.615,0.261,0.969,0.261c0.236,0,0.453-0.027,0.649-0.083c0.195-0.056,0.386-0.144,0.569-0.261
				c0.184-0.119,0.353-0.246,0.508-0.381c0.154-0.136,0.355-0.32,0.602-0.552c0.102-0.087,0.247-0.131,0.436-0.131
				c0.203,0,0.367,0.056,0.493,0.167s0.188,0.269,0.188,0.472c0,0.179-0.07,0.388-0.21,0.628c-0.141,0.238-0.352,0.469-0.635,0.688
				s-0.639,0.403-1.066,0.548s-0.92,0.217-1.477,0.217c-1.271,0-2.261-0.361-2.967-1.088c-0.706-0.725-1.059-1.709-1.059-2.952
				c0-0.585,0.087-1.128,0.261-1.628c0.174-0.501,0.428-0.93,0.762-1.288s0.745-0.632,1.233-0.823s1.03-0.287,1.625-0.287
				c0.773,0,1.438,0.164,1.991,0.49s0.968,0.748,1.244,1.266c0.275,0.518,0.413,1.045,0.413,1.582c0,0.498-0.143,0.82-0.428,0.968
				S104.538,150.157,104.02,150.157z M100.146,149.032h3.591c-0.048-0.677-0.23-1.184-0.548-1.52
				c-0.316-0.336-0.733-0.504-1.251-0.504c-0.493,0-0.898,0.17-1.215,0.512C100.406,147.86,100.213,148.365,100.146,149.032z"/>
			<path fill="#9C9B9B" d="M109.806,150.838v1.654c0,0.4-0.094,0.702-0.282,0.902c-0.188,0.201-0.429,0.301-0.719,0.301
				c-0.285,0-0.52-0.102-0.703-0.305s-0.275-0.502-0.275-0.898v-5.514c0-0.89,0.321-1.334,0.965-1.334
				c0.328,0,0.565,0.104,0.71,0.311c0.146,0.209,0.226,0.516,0.24,0.922c0.236-0.406,0.479-0.713,0.729-0.922
				c0.249-0.207,0.582-0.311,0.998-0.311c0.415,0,0.819,0.104,1.211,0.311c0.392,0.209,0.588,0.484,0.588,0.828
				c0,0.241-0.084,0.441-0.25,0.598c-0.167,0.158-0.348,0.236-0.541,0.236c-0.072,0-0.248-0.045-0.525-0.135
				c-0.278-0.089-0.524-0.134-0.736-0.134c-0.291,0-0.527,0.076-0.711,0.229c-0.185,0.152-0.327,0.378-0.429,0.679
				c-0.102,0.299-0.172,0.656-0.21,1.069C109.826,149.739,109.806,150.244,109.806,150.838z"/>
			<path fill="#9C9B9B" d="M121.78,147.095v5.753c0,0.657-0.069,1.223-0.21,1.697c-0.141,0.474-0.365,0.865-0.675,1.175
				s-0.715,0.54-1.215,0.689c-0.501,0.149-1.123,0.225-1.868,0.225c-0.682,0-1.291-0.095-1.828-0.286
				c-0.536-0.191-0.95-0.438-1.24-0.74s-0.436-0.613-0.436-0.932c0-0.242,0.082-0.439,0.247-0.592
				c0.164-0.152,0.362-0.229,0.595-0.229c0.29,0,0.544,0.129,0.762,0.385c0.106,0.131,0.216,0.262,0.33,0.395
				c0.113,0.134,0.239,0.247,0.377,0.342c0.138,0.094,0.304,0.164,0.497,0.21s0.416,0.069,0.667,0.069
				c0.513,0,0.911-0.072,1.193-0.215c0.283-0.143,0.481-0.342,0.596-0.598c0.113-0.256,0.18-0.531,0.199-0.824
				c0.02-0.292,0.033-0.762,0.043-1.41c-0.305,0.426-0.656,0.75-1.055,0.973c-0.399,0.222-0.875,0.333-1.426,0.333
				c-0.663,0-1.242-0.169-1.737-0.508c-0.496-0.339-0.877-0.813-1.143-1.422c-0.267-0.609-0.399-1.313-0.399-2.11
				c0-0.596,0.081-1.133,0.243-1.611s0.393-0.883,0.693-1.211c0.3-0.329,0.646-0.577,1.037-0.744c0.392-0.166,0.822-0.25,1.291-0.25
				c0.561,0,1.047,0.107,1.458,0.322c0.411,0.216,0.793,0.553,1.146,1.013v-0.269c0-0.344,0.084-0.609,0.254-0.798
				c0.169-0.188,0.387-0.282,0.652-0.282c0.382,0,0.636,0.124,0.762,0.373S121.78,146.625,121.78,147.095z M116.042,149.605
				c0,0.803,0.175,1.41,0.525,1.821c0.351,0.41,0.804,0.616,1.36,0.616c0.329,0,0.64-0.089,0.933-0.265
				c0.292-0.177,0.53-0.442,0.714-0.798s0.276-0.787,0.276-1.295c0-0.808-0.178-1.437-0.533-1.886
				c-0.355-0.45-0.824-0.676-1.404-0.676c-0.565,0-1.02,0.216-1.36,0.646C116.212,148.2,116.042,148.812,116.042,149.605z"/>
			<path fill="#9C9B9B" d="M126.13,153.944l0.182-0.443l-2.438-6.137c-0.149-0.354-0.225-0.609-0.225-0.77
				c0-0.169,0.043-0.326,0.131-0.471c0.087-0.146,0.206-0.262,0.358-0.349s0.311-0.13,0.476-0.13c0.285,0,0.5,0.09,0.646,0.271
				s0.273,0.441,0.385,0.779l1.676,4.875l1.588-4.533c0.126-0.368,0.24-0.656,0.342-0.863c0.102-0.209,0.209-0.349,0.322-0.422
				c0.113-0.072,0.274-0.107,0.482-0.107c0.15,0,0.294,0.039,0.432,0.119s0.244,0.188,0.319,0.322
				c0.075,0.136,0.112,0.278,0.112,0.428c-0.02,0.093-0.051,0.223-0.095,0.393c-0.043,0.169-0.097,0.341-0.159,0.515l-2.582,6.761
				c-0.223,0.596-0.44,1.063-0.653,1.4s-0.494,0.599-0.845,0.779c-0.352,0.182-0.824,0.272-1.419,0.272
				c-0.58,0-1.016-0.063-1.306-0.188s-0.435-0.355-0.435-0.689c0-0.227,0.068-0.402,0.206-0.525s0.343-0.186,0.613-0.186
				c0.106,0,0.21,0.015,0.312,0.044c0.126,0.028,0.235,0.044,0.327,0.044c0.227,0,0.406-0.034,0.536-0.102
				c0.131-0.068,0.248-0.186,0.353-0.353C125.875,154.512,125.996,154.267,126.13,153.944z"/>
			<path fill="#9C9B9B" d="M143.696,149.815v2.634c0,0.416-0.094,0.728-0.282,0.937c-0.189,0.207-0.438,0.311-0.747,0.311
				c-0.301,0-0.543-0.104-0.729-0.311c-0.187-0.209-0.279-0.521-0.279-0.937v-3.155c0-0.498-0.017-0.885-0.051-1.161
				c-0.034-0.275-0.126-0.501-0.275-0.679c-0.15-0.176-0.388-0.264-0.711-0.264c-0.648,0-1.075,0.223-1.28,0.667
				c-0.206,0.444-0.309,1.083-0.309,1.915v2.677c0,0.411-0.094,0.722-0.279,0.933c-0.187,0.21-0.432,0.314-0.736,0.314
				c-0.3,0-0.545-0.104-0.736-0.314c-0.191-0.211-0.286-0.521-0.286-0.933v-5.665c0-0.373,0.085-0.656,0.257-0.85
				s0.398-0.289,0.679-0.289c0.271,0,0.497,0.09,0.678,0.271c0.182,0.182,0.272,0.432,0.272,0.75v0.189
				c0.343-0.411,0.711-0.713,1.103-0.907c0.392-0.193,0.827-0.29,1.306-0.29c0.498,0,0.926,0.1,1.284,0.297
				c0.357,0.199,0.652,0.499,0.885,0.9c0.334-0.406,0.691-0.707,1.074-0.903c0.382-0.196,0.805-0.294,1.27-0.294
				c0.541,0,1.008,0.106,1.399,0.319s0.685,0.518,0.878,0.914c0.169,0.358,0.254,0.921,0.254,1.69v3.866
				c0,0.416-0.095,0.728-0.283,0.937c-0.188,0.207-0.438,0.311-0.747,0.311c-0.3,0-0.545-0.104-0.736-0.314
				c-0.19-0.211-0.286-0.521-0.286-0.933v-3.329c0-0.426-0.019-0.768-0.055-1.023s-0.134-0.472-0.294-0.646
				c-0.159-0.175-0.401-0.261-0.726-0.261c-0.261,0-0.509,0.077-0.743,0.231c-0.234,0.155-0.417,0.362-0.548,0.624
				C143.769,148.379,143.696,148.969,143.696,149.815z"/>
			<path fill="#9C9B9B" d="M155.779,152.579c-0.479,0.373-0.942,0.652-1.39,0.838c-0.447,0.188-0.949,0.279-1.505,0.279
				c-0.508,0-0.954-0.1-1.338-0.301c-0.385-0.2-0.682-0.473-0.889-0.816c-0.208-0.343-0.313-0.715-0.313-1.116
				c0-0.542,0.172-1.004,0.516-1.386c0.343-0.382,0.814-0.639,1.414-0.77c0.126-0.028,0.438-0.094,0.936-0.195
				s0.925-0.195,1.28-0.279s0.741-0.188,1.157-0.309c-0.024-0.521-0.129-0.905-0.315-1.149s-0.572-0.366-1.157-0.366
				c-0.503,0-0.881,0.07-1.135,0.21c-0.254,0.141-0.472,0.351-0.653,0.632c-0.182,0.279-0.31,0.465-0.385,0.555
				c-0.074,0.09-0.235,0.134-0.481,0.134c-0.223,0-0.415-0.071-0.577-0.214s-0.243-0.325-0.243-0.548
				c0-0.349,0.123-0.687,0.37-1.016s0.631-0.6,1.153-0.813c0.522-0.212,1.173-0.319,1.951-0.319c0.871,0,1.555,0.104,2.054,0.309
				c0.498,0.205,0.85,0.531,1.055,0.976c0.206,0.445,0.309,1.035,0.309,1.771c0,0.464-0.001,0.858-0.004,1.182
				c-0.002,0.324-0.006,0.686-0.011,1.082c0,0.372,0.062,0.76,0.186,1.164c0.123,0.403,0.185,0.664,0.185,0.779
				c0,0.203-0.096,0.389-0.286,0.555c-0.191,0.168-0.408,0.25-0.649,0.25c-0.203,0-0.404-0.095-0.603-0.285
				C156.211,153.219,156.001,152.942,155.779,152.579z M155.648,149.713c-0.29,0.107-0.712,0.219-1.266,0.338
				s-0.938,0.205-1.149,0.262c-0.213,0.055-0.416,0.164-0.609,0.326c-0.194,0.162-0.291,0.388-0.291,0.678
				c0,0.301,0.114,0.555,0.342,0.766c0.227,0.211,0.524,0.315,0.892,0.315c0.392,0,0.754-0.086,1.085-0.257
				c0.331-0.172,0.574-0.394,0.729-0.664c0.18-0.301,0.269-0.793,0.269-1.48V149.713z"/>
			<path fill="#9C9B9B" d="M161.921,146.74v0.239c0.348-0.459,0.729-0.797,1.143-1.012c0.413-0.215,0.889-0.322,1.425-0.322
				c0.522,0,0.989,0.113,1.4,0.34c0.411,0.228,0.718,0.549,0.921,0.965c0.131,0.242,0.216,0.504,0.254,0.783
				c0.039,0.281,0.059,0.639,0.059,1.074v3.686c0,0.396-0.091,0.695-0.272,0.898s-0.417,0.305-0.707,0.305
				c-0.295,0-0.534-0.104-0.718-0.311c-0.185-0.209-0.276-0.506-0.276-0.893v-3.301c0-0.653-0.091-1.152-0.271-1.498
				c-0.182-0.346-0.543-0.52-1.085-0.52c-0.353,0-0.675,0.105-0.965,0.316c-0.29,0.21-0.503,0.499-0.639,0.867
				c-0.097,0.295-0.145,0.846-0.145,1.653v2.481c0,0.4-0.094,0.702-0.279,0.902c-0.187,0.201-0.427,0.301-0.722,0.301
				c-0.285,0-0.521-0.104-0.704-0.311c-0.184-0.209-0.275-0.506-0.275-0.893v-5.725c0-0.377,0.082-0.658,0.247-0.845
				c0.164-0.187,0.389-0.278,0.674-0.278c0.175,0,0.332,0.041,0.472,0.123c0.141,0.082,0.253,0.205,0.338,0.369
				C161.878,146.302,161.921,146.502,161.921,146.74z"/>
			<path fill="#9C9B9B" d="M174.622,152.579c-0.479,0.373-0.942,0.652-1.39,0.838c-0.447,0.188-0.949,0.279-1.505,0.279
				c-0.508,0-0.954-0.1-1.338-0.301c-0.385-0.2-0.682-0.473-0.889-0.816c-0.208-0.343-0.313-0.715-0.313-1.116
				c0-0.542,0.172-1.004,0.516-1.386c0.343-0.382,0.814-0.639,1.414-0.77c0.126-0.028,0.438-0.094,0.936-0.195
				s0.925-0.195,1.28-0.279s0.741-0.188,1.157-0.309c-0.024-0.521-0.129-0.905-0.315-1.149s-0.572-0.366-1.157-0.366
				c-0.503,0-0.881,0.07-1.135,0.21c-0.254,0.141-0.472,0.351-0.653,0.632c-0.182,0.279-0.31,0.465-0.385,0.555
				c-0.074,0.09-0.235,0.134-0.481,0.134c-0.223,0-0.415-0.071-0.577-0.214s-0.243-0.325-0.243-0.548
				c0-0.349,0.123-0.687,0.37-1.016s0.631-0.6,1.153-0.813c0.522-0.212,1.173-0.319,1.951-0.319c0.871,0,1.555,0.104,2.054,0.309
				c0.498,0.205,0.85,0.531,1.055,0.976c0.206,0.445,0.309,1.035,0.309,1.771c0,0.464-0.001,0.858-0.004,1.182
				c-0.002,0.324-0.006,0.686-0.011,1.082c0,0.372,0.062,0.76,0.186,1.164c0.123,0.403,0.185,0.664,0.185,0.779
				c0,0.203-0.096,0.389-0.286,0.555c-0.191,0.168-0.408,0.25-0.649,0.25c-0.203,0-0.404-0.095-0.603-0.285
				C175.054,153.219,174.844,152.942,174.622,152.579z M174.491,149.713c-0.29,0.107-0.712,0.219-1.266,0.338
				s-0.938,0.205-1.149,0.262c-0.213,0.055-0.416,0.164-0.609,0.326c-0.194,0.162-0.291,0.388-0.291,0.678
				c0,0.301,0.114,0.555,0.342,0.766c0.227,0.211,0.524,0.315,0.892,0.315c0.392,0,0.754-0.086,1.085-0.257
				c0.331-0.172,0.574-0.394,0.729-0.664c0.18-0.301,0.269-0.793,0.269-1.48V149.713z"/>
			<path fill="#9C9B9B" d="M186.052,147.095v5.753c0,0.657-0.07,1.223-0.211,1.697c-0.141,0.474-0.365,0.865-0.674,1.175
				c-0.311,0.31-0.715,0.54-1.215,0.689c-0.502,0.149-1.123,0.225-1.869,0.225c-0.682,0-1.291-0.095-1.828-0.286
				c-0.536-0.191-0.95-0.438-1.24-0.74s-0.436-0.613-0.436-0.932c0-0.242,0.082-0.439,0.247-0.592
				c0.164-0.152,0.362-0.229,0.595-0.229c0.29,0,0.544,0.129,0.762,0.385c0.106,0.131,0.216,0.262,0.33,0.395
				c0.113,0.134,0.24,0.247,0.376,0.342c0.139,0.094,0.305,0.164,0.498,0.21s0.416,0.069,0.666,0.069
				c0.514,0,0.912-0.072,1.193-0.215c0.283-0.143,0.482-0.342,0.596-0.598s0.18-0.531,0.199-0.824
				c0.02-0.292,0.033-0.762,0.043-1.41c-0.305,0.426-0.656,0.75-1.055,0.973c-0.398,0.222-0.875,0.333-1.426,0.333
				c-0.662,0-1.242-0.169-1.737-0.508c-0.496-0.339-0.877-0.813-1.143-1.422c-0.267-0.609-0.399-1.313-0.399-2.11
				c0-0.596,0.081-1.133,0.243-1.611s0.393-0.883,0.693-1.211c0.3-0.329,0.646-0.577,1.037-0.744c0.392-0.166,0.823-0.25,1.292-0.25
				c0.561,0,1.047,0.107,1.457,0.322c0.412,0.216,0.793,0.553,1.146,1.013v-0.269c0-0.344,0.084-0.609,0.254-0.798
				s0.387-0.282,0.652-0.282c0.383,0,0.637,0.124,0.762,0.373C185.989,146.267,186.052,146.625,186.052,147.095z M180.314,149.605
				c0,0.803,0.175,1.41,0.525,1.821c0.352,0.41,0.805,0.616,1.361,0.616c0.328,0,0.639-0.089,0.932-0.265
				c0.293-0.177,0.531-0.442,0.715-0.798s0.275-0.787,0.275-1.295c0-0.808-0.178-1.437-0.533-1.886
				c-0.355-0.45-0.824-0.676-1.404-0.676c-0.564,0-1.02,0.216-1.359,0.646C180.484,148.2,180.314,148.812,180.314,149.605z"/>
			<path fill="#9C9B9B" d="M193.731,150.157h-3.873c0.004,0.449,0.096,0.846,0.271,1.189s0.41,0.602,0.703,0.776
				c0.293,0.174,0.615,0.261,0.969,0.261c0.236,0,0.453-0.027,0.65-0.083c0.195-0.056,0.385-0.144,0.568-0.261
				c0.184-0.119,0.354-0.246,0.508-0.381c0.154-0.136,0.355-0.32,0.602-0.552c0.102-0.087,0.248-0.131,0.436-0.131
				c0.203,0,0.367,0.056,0.494,0.167c0.125,0.111,0.188,0.269,0.188,0.472c0,0.179-0.07,0.388-0.209,0.628
				c-0.141,0.238-0.352,0.469-0.635,0.688s-0.639,0.403-1.066,0.548s-0.92,0.217-1.477,0.217c-1.271,0-2.262-0.361-2.967-1.088
				c-0.707-0.725-1.059-1.709-1.059-2.952c0-0.585,0.086-1.128,0.26-1.628c0.174-0.501,0.428-0.93,0.762-1.288
				s0.746-0.632,1.234-0.823s1.029-0.287,1.625-0.287c0.773,0,1.438,0.164,1.99,0.49c0.555,0.326,0.969,0.748,1.244,1.266
				s0.414,1.045,0.414,1.582c0,0.498-0.143,0.82-0.428,0.968S194.249,150.157,193.731,150.157z M189.858,149.032h3.59
				c-0.047-0.677-0.23-1.184-0.547-1.52s-0.734-0.504-1.252-0.504c-0.492,0-0.898,0.17-1.215,0.512
				C190.118,147.86,189.925,148.365,189.858,149.032z"/>
			<path fill="#9C9B9B" d="M204.138,149.815v2.634c0,0.416-0.094,0.728-0.281,0.937c-0.189,0.207-0.439,0.311-0.748,0.311
				c-0.301,0-0.543-0.104-0.729-0.311c-0.188-0.209-0.279-0.521-0.279-0.937v-3.155c0-0.498-0.018-0.885-0.051-1.161
				c-0.035-0.275-0.127-0.501-0.275-0.679c-0.15-0.176-0.389-0.264-0.711-0.264c-0.648,0-1.076,0.223-1.281,0.667
				s-0.309,1.083-0.309,1.915v2.677c0,0.411-0.094,0.722-0.279,0.933c-0.186,0.21-0.432,0.314-0.736,0.314
				c-0.299,0-0.545-0.104-0.736-0.314c-0.191-0.211-0.285-0.521-0.285-0.933v-5.665c0-0.373,0.084-0.656,0.256-0.85
				s0.398-0.289,0.68-0.289c0.27,0,0.496,0.09,0.678,0.271s0.271,0.432,0.271,0.75v0.189c0.344-0.411,0.711-0.713,1.104-0.907
				c0.391-0.193,0.826-0.29,1.305-0.29c0.498,0,0.926,0.1,1.285,0.297c0.357,0.199,0.652,0.499,0.885,0.9
				c0.334-0.406,0.691-0.707,1.074-0.903c0.381-0.196,0.805-0.294,1.27-0.294c0.541,0,1.008,0.106,1.398,0.319
				c0.393,0.213,0.686,0.518,0.879,0.914c0.168,0.358,0.254,0.921,0.254,1.69v3.866c0,0.416-0.096,0.728-0.283,0.937
				c-0.189,0.207-0.438,0.311-0.748,0.311c-0.299,0-0.545-0.104-0.736-0.314c-0.189-0.211-0.285-0.521-0.285-0.933v-3.329
				c0-0.426-0.02-0.768-0.055-1.023c-0.037-0.256-0.135-0.472-0.295-0.646c-0.158-0.175-0.4-0.261-0.725-0.261
				c-0.262,0-0.51,0.077-0.744,0.231c-0.234,0.155-0.416,0.362-0.547,0.624C204.212,148.379,204.138,148.969,204.138,149.815z"/>
			<path fill="#9C9B9B" d="M216.745,150.157h-3.875c0.006,0.449,0.096,0.846,0.273,1.189c0.176,0.344,0.41,0.602,0.703,0.776
				c0.293,0.174,0.615,0.261,0.969,0.261c0.236,0,0.453-0.027,0.648-0.083s0.387-0.144,0.57-0.261
				c0.184-0.119,0.352-0.246,0.508-0.381c0.154-0.136,0.355-0.32,0.602-0.552c0.102-0.087,0.246-0.131,0.436-0.131
				c0.203,0,0.367,0.056,0.492,0.167c0.127,0.111,0.189,0.269,0.189,0.472c0,0.179-0.07,0.388-0.211,0.628
				c-0.141,0.238-0.352,0.469-0.635,0.688s-0.639,0.403-1.066,0.548s-0.92,0.217-1.477,0.217c-1.271,0-2.26-0.361-2.967-1.088
				c-0.705-0.725-1.059-1.709-1.059-2.952c0-0.585,0.088-1.128,0.262-1.628c0.174-0.501,0.428-0.93,0.762-1.288
				s0.744-0.632,1.232-0.823s1.031-0.287,1.625-0.287c0.773,0,1.438,0.164,1.992,0.49c0.553,0.326,0.967,0.748,1.244,1.266
				c0.275,0.518,0.412,1.045,0.412,1.582c0,0.498-0.143,0.82-0.428,0.968S217.263,150.157,216.745,150.157z M212.87,149.032h3.592
				c-0.049-0.677-0.23-1.184-0.549-1.52c-0.316-0.336-0.732-0.504-1.25-0.504c-0.494,0-0.898,0.17-1.215,0.512
				C213.13,147.86,212.938,148.365,212.87,149.032z"/>
			<path fill="#9C9B9B" d="M222.364,146.74v0.239c0.348-0.459,0.729-0.797,1.143-1.012s0.889-0.322,1.426-0.322
				c0.521,0,0.988,0.113,1.4,0.34c0.41,0.228,0.717,0.549,0.92,0.965c0.131,0.242,0.217,0.504,0.254,0.783
				c0.039,0.281,0.059,0.639,0.059,1.074v3.686c0,0.396-0.09,0.695-0.271,0.898s-0.418,0.305-0.707,0.305
				c-0.295,0-0.535-0.104-0.719-0.311c-0.184-0.209-0.275-0.506-0.275-0.893v-3.301c0-0.653-0.092-1.152-0.271-1.498
				c-0.182-0.346-0.543-0.52-1.086-0.52c-0.352,0-0.674,0.105-0.965,0.316c-0.289,0.21-0.502,0.499-0.639,0.867
				c-0.096,0.295-0.145,0.846-0.145,1.653v2.481c0,0.4-0.094,0.702-0.279,0.902c-0.186,0.201-0.426,0.301-0.721,0.301
				c-0.285,0-0.521-0.104-0.705-0.311c-0.184-0.209-0.275-0.506-0.275-0.893v-5.725c0-0.377,0.082-0.658,0.248-0.845
				c0.164-0.187,0.389-0.278,0.674-0.278c0.174,0,0.332,0.041,0.471,0.123c0.141,0.082,0.254,0.205,0.338,0.369
				C222.321,146.302,222.364,146.502,222.364,146.74z"/>
			<path fill="#9C9B9B" d="M230.167,145.819h0.219v-1.189c0-0.32,0.008-0.57,0.025-0.752c0.016-0.182,0.063-0.337,0.141-0.467
				c0.078-0.137,0.189-0.246,0.334-0.33c0.145-0.085,0.307-0.127,0.486-0.127c0.25,0,0.479,0.094,0.682,0.282
				c0.135,0.126,0.221,0.279,0.258,0.46c0.035,0.182,0.055,0.439,0.055,0.773v1.35h0.725c0.281,0,0.494,0.066,0.643,0.199
				c0.146,0.133,0.221,0.303,0.221,0.512c0,0.266-0.105,0.451-0.316,0.559c-0.209,0.105-0.51,0.159-0.902,0.159h-0.369v3.642
				c0,0.31,0.01,0.548,0.031,0.715c0.021,0.166,0.08,0.302,0.174,0.406c0.096,0.104,0.248,0.156,0.461,0.156
				c0.117,0,0.273-0.021,0.473-0.063c0.197-0.041,0.352-0.062,0.463-0.062c0.16,0,0.305,0.063,0.432,0.192
				c0.129,0.128,0.193,0.287,0.193,0.475c0,0.32-0.174,0.564-0.523,0.732c-0.348,0.17-0.848,0.254-1.5,0.254
				c-0.619,0-1.09-0.104-1.408-0.311c-0.318-0.209-0.529-0.496-0.627-0.863c-0.1-0.368-0.148-0.859-0.148-1.473v-3.802h-0.262
				c-0.285,0-0.504-0.067-0.652-0.203c-0.15-0.136-0.227-0.308-0.227-0.515c0-0.209,0.08-0.379,0.236-0.512
				C229.64,145.885,229.868,145.819,230.167,145.819z"/>
		</g>
	</g>
	<g>
		<path fill="#2281C4" d="M55.189,71.816c5.881,0,10.93,1.193,15.147,3.579c4.217,2.386,7.408,5.778,9.575,10.175
			s3.25,9.563,3.25,15.495c0,4.385-0.594,8.37-1.779,11.955c-1.188,3.586-2.967,6.693-5.34,9.324s-5.287,4.643-8.743,6.035
			c-3.457,1.393-7.416,2.09-11.878,2.09c-4.437,0-8.409-0.717-11.916-2.148c-3.508-1.431-6.436-3.449-8.782-6.055
			c-2.348-2.604-4.121-5.738-5.32-9.4s-1.799-7.623-1.799-11.879c0-4.357,0.625-8.355,1.876-11.993
			c1.251-3.637,3.063-6.731,5.437-9.285c2.372-2.554,5.262-4.507,8.666-5.861C46.987,72.493,50.856,71.816,55.189,71.816z
			 M71.517,100.987c0-4.152-0.671-7.75-2.012-10.793c-1.342-3.044-3.257-5.346-5.745-6.906c-2.49-1.561-5.346-2.342-8.57-2.342
			c-2.296,0-4.417,0.434-6.364,1.297c-1.947,0.864-3.624,2.121-5.029,3.771c-1.406,1.651-2.515,3.76-3.327,6.326
			s-1.219,5.449-1.219,8.646c0,3.225,0.406,6.14,1.219,8.744c0.813,2.605,1.96,4.766,3.443,6.48c1.482,1.716,3.185,2.998,5.106,3.85
			s4.03,1.277,6.326,1.277c2.94,0,5.642-0.735,8.105-2.205c2.463-1.471,4.423-3.74,5.881-6.811
			C70.787,109.254,71.517,105.475,71.517,100.987z"/>
		<path fill="#2281C4" d="M146.774,106.443v10.872c0,1.444-0.142,2.598-0.426,3.462s-0.807,1.645-1.566,2.341
			c-0.762,0.696-1.735,1.367-2.921,2.012c-3.431,1.857-6.732,3.211-9.905,4.063c-3.172,0.852-6.629,1.277-10.368,1.277
			c-4.359,0-8.332-0.672-11.916-2.012c-3.586-1.342-6.643-3.289-9.17-5.843c-2.528-2.554-4.469-5.648-5.822-9.285
			c-1.354-3.638-2.031-7.699-2.031-12.188c0-4.411,0.657-8.446,1.973-12.109s3.25-6.771,5.804-9.324s5.661-4.507,9.324-5.861
			c3.662-1.354,7.815-2.031,12.458-2.031c3.816,0,7.196,0.509,10.137,1.528s5.325,2.302,7.157,3.85
			c1.831,1.547,3.211,3.186,4.14,4.913c0.929,1.729,1.393,3.263,1.393,4.604c0,1.444-0.535,2.676-1.605,3.694
			c-1.07,1.02-2.354,1.528-3.85,1.528c-0.825,0-1.619-0.193-2.379-0.58c-0.762-0.387-1.399-0.929-1.915-1.625
			c-1.419-2.219-2.618-3.895-3.599-5.029s-2.302-2.09-3.966-2.863c-1.663-0.773-3.785-1.16-6.364-1.16
			c-2.656,0-5.029,0.457-7.119,1.373c-2.089,0.916-3.875,2.244-5.358,3.984c-1.483,1.741-2.618,3.876-3.404,6.403
			c-0.787,2.528-1.18,5.327-1.18,8.396c0,6.654,1.528,11.775,4.584,15.359c3.057,3.586,7.318,5.379,12.787,5.379
			c2.656,0,5.151-0.349,7.486-1.045c2.334-0.697,4.701-1.689,7.1-2.979v-9.208h-8.898c-2.142,0-3.76-0.322-4.855-0.967
			c-1.097-0.645-1.645-1.741-1.645-3.289c0-1.264,0.458-2.309,1.374-3.134c0.915-0.825,2.159-1.237,3.733-1.237h13.038
			c1.599,0,2.953,0.142,4.063,0.425c1.108,0.284,2.005,0.916,2.688,1.896C146.433,103.012,146.774,104.483,146.774,106.443z"/>
		<path fill="#2281C4" d="M197.079,81.643h-25.884v13.928h23.833c1.754,0,3.063,0.394,3.927,1.18
			c0.864,0.787,1.296,1.826,1.296,3.115c0,1.29-0.426,2.34-1.276,3.152c-0.852,0.813-2.167,1.219-3.946,1.219h-23.833v16.134h26.773
			c1.805,0,3.166,0.42,4.082,1.258c0.915,0.839,1.373,1.954,1.373,3.347c0,1.342-0.458,2.432-1.373,3.27
			c-0.916,0.838-2.277,1.257-4.082,1.257h-31.223c-2.502,0-4.301-0.554-5.396-1.663c-1.097-1.109-1.645-2.902-1.645-5.379V79.825
			c0-1.65,0.245-2.999,0.735-4.043c0.489-1.044,1.257-1.805,2.302-2.282c1.045-0.477,2.379-0.716,4.004-0.716h30.333
			c1.831,0,3.191,0.406,4.081,1.219c0.891,0.813,1.335,1.876,1.335,3.192c0,1.341-0.444,2.418-1.335,3.23
			C200.271,81.237,198.91,81.643,197.079,81.643z"/>
		<path fill="#2281C4" d="M233.687,120.952l-9.093-36.137v39.154c0,2.166-0.483,3.791-1.45,4.875
			c-0.968,1.083-2.251,1.625-3.85,1.625c-1.548,0-2.812-0.536-3.792-1.605c-0.98-1.07-1.47-2.702-1.47-4.895v-44.88
			c0-2.476,0.645-4.146,1.935-5.01c1.289-0.864,3.03-1.296,5.223-1.296h3.56c2.141,0,3.694,0.193,4.662,0.58
			c0.967,0.387,1.683,1.083,2.147,2.089c0.464,1.006,0.992,2.644,1.586,4.913l8.241,31.068l8.24-31.068
			c0.593-2.269,1.122-3.907,1.586-4.913c0.465-1.006,1.181-1.702,2.147-2.089c0.968-0.387,2.521-0.58,4.662-0.58h3.56
			c2.192,0,3.933,0.432,5.223,1.296c1.29,0.864,1.935,2.534,1.935,5.01v44.88c0,2.166-0.483,3.791-1.45,4.875
			c-0.968,1.083-2.264,1.625-3.889,1.625c-1.522,0-2.772-0.542-3.753-1.625c-0.98-1.084-1.47-2.709-1.47-4.875V84.815l-9.092,36.137
			c-0.594,2.347-1.078,4.068-1.451,5.164c-0.374,1.098-1.064,2.096-2.07,2.999c-1.006,0.902-2.398,1.354-4.178,1.354
			c-1.342,0-2.477-0.291-3.405-0.871s-1.65-1.321-2.166-2.225c-0.517-0.902-0.923-1.902-1.219-2.998
			C234.299,123.28,233.996,122.137,233.687,120.952z"/>
		<path fill="#2281C4" d="M318.811,123.079l-2.708-7.118h-23.059l-2.708,7.273c-1.059,2.837-1.961,4.753-2.709,5.745
			s-1.973,1.49-3.675,1.49c-1.445,0-2.722-0.529-3.83-1.587c-1.109-1.058-1.664-2.257-1.664-3.599c0-0.773,0.129-1.572,0.387-2.398
			c0.258-0.824,0.684-1.973,1.277-3.443L294.63,82.61c0.412-1.057,0.909-2.327,1.489-3.811c0.581-1.483,1.2-2.714,1.857-3.695
			c0.658-0.98,1.521-1.773,2.593-2.379c1.069-0.606,2.392-0.909,3.965-0.909c1.6,0,2.935,0.303,4.005,0.909
			c1.069,0.606,1.935,1.387,2.592,2.341c0.658,0.954,1.212,1.979,1.664,3.076c0.451,1.097,1.025,2.56,1.722,4.391l14.817,36.601
			c1.161,2.785,1.741,4.811,1.741,6.074c0,1.314-0.548,2.521-1.645,3.617s-2.418,1.645-3.965,1.645
			c-0.903,0-1.678-0.162-2.321-0.484c-0.646-0.322-1.188-0.76-1.625-1.315c-0.439-0.554-0.909-1.405-1.412-2.554
			C319.604,124.969,319.172,123.956,318.811,123.079z M296.062,107.333h16.946l-8.551-23.406L296.062,107.333z"/>
	</g>
	<path fill="#2281C4" d="M326.743,46.417c-17.309-14.498-41.438-26.549-68.848-34.729C232.979,4.254,205.351,0,177.672,0
		c-27.678,0-55.308,4.254-80.224,11.688c-27.41,8.18-51.538,20.23-68.848,34.729C10.753,61.365,0,79.065,0,98.088
		c0,4.883,0.715,9.834,2.203,14.824c0.543,1.83,2.081,2.719,3.436,1.986c1.354-0.734,2.012-2.813,1.469-4.643
		c-1.224-4.1-1.811-8.164-1.811-12.168c0-16.311,9.804-31.974,26.077-45.605C48.186,38.402,71.743,26.661,98.587,18.65
		c24.498-7.31,51.731-11.493,79.085-11.493c27.354,0,54.587,4.184,79.085,11.493c26.844,8.011,50.402,19.752,67.213,33.833
		c16.273,13.631,26.078,29.294,26.078,45.605c0,4.004-0.588,8.068-1.811,12.168c-0.543,1.83,0.115,3.908,1.469,4.643
		c1.354,0.732,2.893-0.156,3.436-1.986c1.488-4.99,2.203-9.941,2.203-14.824C355.345,79.065,344.591,61.365,326.743,46.417z"/>
</g>
</svg>
