<?xml version="1.0" encoding="utf-8"?>
<!-- Generator: Adobe Illustrator 16.0.0, SVG Export Plug-In . SVG Version: 6.00 Build 0)  -->
<!DOCTYPE svg PUBLIC "-//W3C//DTD SVG 1.1//EN" "http://www.w3.org/Graphics/SVG/1.1/DTD/svg11.dtd">
<svg version="1.1" xmlns="http://www.w3.org/2000/svg" xmlns:xlink="http://www.w3.org/1999/xlink" x="0px" y="0px"
	 width="95.544px" height="97.353px" viewBox="374 249 95.544 97.353" enable-background="new 374 249 95.544 97.353"
	 xml:space="preserve">
<g id="svg2" sodipodi:docname="admin_tools.svg" inkscape:version="0.47 r22583" xmlns:rdf="http://www.w3.org/1999/02/22-rdf-syntax-ns#" xmlns:sodipodi="http://sodipodi.sourceforge.net/DTD/sodipodi-0.dtd" xmlns:dc="http://purl.org/dc/elements/1.1/" xmlns:cc="http://creativecommons.org/ns#" xmlns:ns1="http://sozi.baierouge.fr" xmlns:inkscape="http://www.inkscape.org/namespaces/inkscape" xmlns:svg="http://www.w3.org/2000/svg">
	
		<sodipodi:namedview  inkscape:document-units="px" inkscape:window-maximized="0" inkscape:window-x="0" inkscape:window-width="1440" inkscape:window-height="801" inkscape:pageshadow="2" inkscape:pageopacity="0.0" inkscape:window-y="0" inkscape:current-layer="layer1" id="base" bordercolor="#666666" inkscape:zoom="0.35" pagecolor="#ffffff" borderopacity="1.0" inkscape:cy="601.44005" showgrid="false" inkscape:cx="983.51788">
		</sodipodi:namedview>
</g>
<g id="Ebene_2">
	<path fill="#999999" stroke="#FFFFFF" stroke-miterlimit="10" d="M455.877,272.53c-4.885,1.119-8.213,5.401-8.34,10.189
		l-12.313,2.819c-3.596-10.167-14.32-16.245-25.084-13.783c-2.672,0.617-5.107,1.707-7.25,3.152l-8.433-9.07
		c1.397-2.313,1.937-5.141,1.289-7.977c-1.327-5.793-7.1-9.415-12.89-8.086c-5.791,1.33-9.41,7.1-8.082,12.888
		c1.324,5.796,7.096,9.415,12.886,8.088c1.064-0.243,2.051-0.641,2.951-1.152l8.236,8.862c-4.445,5.022-6.486,12.041-4.874,19.078
		c1.59,6.944,6.376,12.321,12.45,14.95l-3.647,11.86c-0.915-0.028-1.841,0.044-2.772,0.255c-5.795,1.328-9.413,7.101-8.085,12.89
		c1.324,5.793,7.097,9.414,12.891,8.084c5.789-1.322,9.409-7.096,8.082-12.892c-0.681-2.97-2.533-5.36-4.959-6.813l3.657-11.887
		c2.637,0.418,5.398,0.354,8.163-0.277c10.624-2.438,17.588-12.349,16.62-22.909l12.369-2.836c2.198,4.256,7.057,6.66,11.943,5.54
		c5.792-1.327,9.409-7.098,8.086-12.892C467.44,274.821,461.67,271.204,455.877,272.53z M380.018,261.463
		c-0.664-2.893,1.144-5.777,4.041-6.442c2.896-0.663,5.781,1.145,6.443,4.039c0.663,2.897-1.146,5.784-4.04,6.445
		C383.565,266.169,380.68,264.362,380.018,261.463z M403.607,340.335c-2.893,0.665-5.781-1.146-6.446-4.042
		c-0.663-2.896,1.15-5.785,4.043-6.444c2.894-0.665,5.78,1.146,6.445,4.041C408.314,336.787,406.504,339.672,403.607,340.335z
		 M411.343,277.001c7.861-1.801,15.682,2.487,18.576,9.755l-4.944,1.135c-2.154-4.373-7.086-6.868-12.042-5.732
		c-0.876,0.2-1.696,0.516-2.463,0.903l-3.848-4.146C408.046,278.055,409.627,277.394,411.343,277.001z M410.085,293.845
		c-0.663-2.896,1.151-5.781,4.043-6.445c2.897-0.661,5.781,1.146,6.444,4.044c0.667,2.896-1.144,5.78-4.041,6.443
		C413.634,298.551,410.75,296.742,410.085,293.845z M399.217,296.334c-1.166-5.093,0.23-10.164,3.329-13.9l3.887,4.188
		c-1.618,2.382-2.283,5.396-1.589,8.427c0.673,2.935,2.483,5.306,4.862,6.763l-1.687,5.483
		C403.723,305.248,400.362,301.334,399.217,296.334z M418.552,308.461c-1.81,0.413-3.612,0.494-5.356,0.304l1.657-5.384
		c0.946,0.041,1.91-0.028,2.878-0.25c4.815-1.104,8.116-5.274,8.339-9.975l4.984-1.144
		C431.405,299.655,426.272,306.691,418.552,308.461z M459.483,288.261c-2.895,0.663-5.783-1.146-6.447-4.043
		c-0.664-2.894,1.149-5.78,4.043-6.443c2.896-0.662,5.784,1.146,6.445,4.041C464.187,284.71,462.377,287.597,459.483,288.261z"/>
	<path opacity="0.75" fill="#666666" d="M455.236,320.844l0.006-0.008l-25.787-25.787l18.925-18.925l1.067,1.068l3.374-0.539
		l9.044-11.877l-5.012-5.011l-11.877,9.043l-0.539,3.373l1.069,1.069l-18.925,18.925l-16.737-15.734
		c1.233-4.313,0.157-9.147-3.241-12.544c-2.96-2.961-7.013-4.148-10.861-3.591l6.083,6.084l-2.277,8.503l-8.504,2.278l-6.083-6.083
		c-0.556,3.847,0.631,7.899,3.592,10.86c3.397,3.397,8.232,4.474,12.545,3.241l15.183,14.181c-0.884,0.561-1.994,0.612-2.922,0.154
		l-23.341,23.342c-2.491,2.491-2.551,6.466-0.136,8.882c2.417,2.415,6.392,2.354,8.882-0.136l23.285-23.285
		c-0.594-0.968-0.582-2.199,0.029-3.161l24.416,24.418l0.005-0.008c0.04,0.044,0.076,0.088,0.116,0.13
		c2.416,2.414,6.332,2.414,8.747-0.002c2.415-2.414,2.416-6.331,0-8.746C455.322,320.917,455.277,320.883,455.236,320.844z
		 M452.685,327.029c-1.084,1.082-2.843,1.082-3.926,0c-1.083-1.084-1.083-2.843,0-3.926c1.083-1.084,2.842-1.084,3.926,0
		C453.768,324.186,453.768,325.945,452.685,327.029z"/>
	<path opacity="0.75" fill="#CCCCCC" stroke="#000000" d="M393.738,258.302l6.083,6.084l-2.277,8.503l-8.504,2.279l-6.084-6.084
		c-0.556,3.848,0.631,7.9,3.592,10.861c3.397,3.397,8.232,4.474,12.545,3.241l45.396,44.394l0.005-0.007
		c0.04,0.044,0.074,0.088,0.115,0.129c2.416,2.415,6.332,2.415,8.748-0.001c2.415-2.415,2.416-6.332,0-8.746
		c-0.041-0.042-0.085-0.076-0.127-0.115l0.007-0.007l-45.398-44.395c1.234-4.313,0.157-9.147-3.24-12.544
		C401.638,258.932,397.586,257.745,393.738,258.302z M450.68,325.024c-1.084,1.083-2.842,1.083-3.926,0
		c-1.083-1.083-1.083-2.842,0-3.926c1.084-1.083,2.842-1.083,3.926,0C451.764,322.182,451.764,323.941,450.68,325.024z"/>
	<path opacity="0.75" fill="#CCCCCC" stroke="#000000" d="M424.154,302.215l4.047-4.048l-2.937-2.936l21.11-21.111l1.068,1.068
		l3.374-0.539l9.043-11.877l-5.012-5.011l-11.877,9.043l-0.538,3.374l1.069,1.069l-21.111,21.111l-2.938-2.938l-4.104,4.104
		c0.552,1.119,0.374,2.507-0.558,3.439c-0.931,0.931-2.319,1.108-3.439,0.557l-23.34,23.341c-2.491,2.492-2.552,6.466-0.137,8.882
		c2.417,2.416,6.392,2.355,8.883-0.135l23.285-23.285c-0.705-1.153-0.567-2.678,0.433-3.678
		C421.474,301.648,422.998,301.509,424.154,302.215z"/>
</g>
</svg>
