<?xml version="1.0" encoding="utf-8"?>
<!-- Generator: Adobe Illustrator 16.0.0, SVG Export Plug-In . SVG Version: 6.00 Build 0)  -->
<!DOCTYPE svg PUBLIC "-//W3C//DTD SVG 1.1//EN" "http://www.w3.org/Graphics/SVG/1.1/DTD/svg11.dtd">
<svg version="1.1" id="Ebene_1" xmlns="http://www.w3.org/2000/svg" xmlns:xlink="http://www.w3.org/1999/xlink" x="0px" y="0px"
	 width="167.005px" height="68.087px" viewBox="0 0 167.005 68.087" enable-background="new 0 0 167.005 68.087"
	 xml:space="preserve">
<g>
	<g>
		<path d="M0,39.935v-7.888c0-3.354,1.224-6.267,3.672-8.738c2.448-2.471,5.372-3.706,8.772-3.706c3.354,0,6.278,1.224,8.772,3.672
			c2.493,2.448,3.74,5.372,3.74,8.772v7.888c0,3.31-1.258,6.233-3.774,8.771c-2.516,2.539-5.429,3.809-8.738,3.809
			c-3.31,0-6.211-1.258-8.704-3.774C1.247,46.225,0,43.29,0,39.935z M3.332,39.935c0,2.447,0.895,4.636,2.686,6.563
			c1.791,1.927,3.933,2.889,6.426,2.889c2.493,0,4.646-0.962,6.46-2.889c1.813-1.927,2.72-4.115,2.72-6.563v-7.888
			c0-2.402-0.907-4.556-2.72-6.46c-1.814-1.904-3.967-2.856-6.46-2.856c-2.494,0-4.636,0.952-6.426,2.856
			c-1.791,1.904-2.686,4.058-2.686,6.46V39.935z"/>
		<path d="M30.125,59.179c0-3.536,1.972-6.029,5.916-7.48c-2.63-0.86-3.944-2.447-3.944-4.76c0-2.084,1.11-3.694,3.332-4.828
			c-2.403-2.131-3.604-4.986-3.604-8.568v-2.788c0-3.264,1.042-5.938,3.128-8.024c2.085-2.084,4.805-3.128,8.16-3.128
			c3.309,0,5.984,1.02,8.024,3.06c0.626-1.269,1.397-2.289,2.314-3.06c0.916-0.771,1.776-1.156,2.582-1.156
			c0.589,0,1.031,0.16,1.326,0.476c0.294,0.318,0.442,0.68,0.442,1.088c0,0.816-0.408,1.27-1.224,1.36
			c-1.587,0.091-2.895,1.111-3.926,3.06c1.167,1.587,1.75,3.695,1.75,6.324v2.788c0,3.265-1.06,5.962-3.177,8.092
			c-2.119,2.132-4.845,3.197-8.179,3.197c-2.04,0-3.832-0.432-5.372-1.293c-1.632,0.816-2.448,1.814-2.448,2.992
			c0,1.18,0.736,2.029,2.21,2.551c1.472,0.521,3.252,0.861,5.338,1.02c2.084,0.159,4.164,0.42,6.236,0.781
			c2.072,0.363,3.84,1.18,5.304,2.449c1.464,1.268,2.196,3.036,2.196,5.303c0,2.992-1.167,5.315-3.502,6.971
			c-2.335,1.654-5.498,2.482-9.486,2.482c-3.99,0-7.22-0.816-9.69-2.448C31.359,64.007,30.125,61.853,30.125,59.179z M33.32,58.839
			c0,1.948,0.906,3.523,2.72,4.726c1.813,1.2,4.306,1.802,7.48,1.802c3.061,0,5.436-0.59,7.124-1.768
			c1.687-1.18,2.532-2.788,2.532-4.828c0-0.998-0.237-1.848-0.708-2.551c-0.473-0.703-1.047-1.258-1.721-1.665
			c-0.675-0.408-1.541-0.748-2.598-1.021c-1.058-0.271-1.98-0.441-2.768-0.51c-0.788-0.068-1.77-0.147-2.949-0.238l-2.448-0.271
			C35.541,53.829,33.32,55.937,33.32,58.839z M35.088,33.475c0,2.493,0.725,4.546,2.176,6.153c1.451,1.61,3.422,2.414,5.916,2.414
			c2.448,0,4.397-0.792,5.848-2.379c1.45-1.587,2.176-3.627,2.176-6.121v-2.788c0-2.448-0.726-4.454-2.176-6.018
			c-1.451-1.564-3.423-2.346-5.916-2.346c-2.494,0-4.454,0.782-5.882,2.346c-1.428,1.564-2.142,3.57-2.142,6.018V33.475z"/>
		<path fill="#5EB130" d="M61.88,39.935v-8.092c0-3.354,1.224-6.232,3.672-8.636c2.448-2.402,5.394-3.604,8.84-3.604
			c3.336,0,6.221,1.179,8.656,3.536c2.434,2.357,3.652,5.281,3.652,8.772c0,1.223-0.147,2.209-0.441,2.958s-0.756,1.281-1.39,1.598
			c-0.633,0.318-1.209,0.511-1.729,0.578c-0.52,0.068-1.253,0.103-2.202,0.103H65.212v2.856c0,2.855,1.02,5.145,3.06,6.867
			c2.04,1.724,4.669,2.584,7.888,2.584c1.628,0,3.008-0.227,4.14-0.68c1.13-0.453,1.99-0.906,2.579-1.359
			c0.588-0.453,1.041-0.681,1.358-0.681c0.399,0,0.754,0.182,1.065,0.544c0.311,0.363,0.467,0.726,0.467,1.088
			c0,0.861-0.936,1.768-2.808,2.721c-1.873,0.951-4.185,1.428-6.936,1.428c-4.171,0-7.572-1.156-10.2-3.469
			C63.194,46.734,61.88,43.698,61.88,39.935z M65.212,34.358h14.484c1.541,0,2.561-0.158,3.06-0.477
			c0.498-0.316,0.748-0.974,0.748-1.971c0-2.402-0.862-4.556-2.584-6.46c-1.724-1.904-3.899-2.856-6.528-2.856
			c-2.539,0-4.704,0.884-6.494,2.652c-1.792,1.768-2.686,3.876-2.686,6.324V34.358z"/>
		<path d="M93.771,50.61v-29.24c0-0.906,0.544-1.36,1.632-1.36c0.453,0,0.838,0.125,1.156,0.374c0.317,0.25,0.476,0.578,0.476,0.986
			v3.4c1.949-3.445,4.986-5.168,9.112-5.168c2.221,0,4.205,0.612,5.95,1.836c1.744,1.224,3.07,2.879,3.979,4.964
			c1.133-2.221,2.628-3.91,4.487-5.066c1.858-1.156,3.808-1.734,5.849-1.734c3.082,0,5.734,1.122,7.955,3.366
			c2.221,2.244,3.332,5.27,3.332,9.078V50.61c0,0.363-0.17,0.703-0.51,1.02c-0.34,0.318-0.737,0.477-1.189,0.477
			c-0.454,0-0.84-0.158-1.156-0.477c-0.318-0.316-0.477-0.656-0.477-1.02V32.046c0-2.9-0.85-5.179-2.549-6.834
			c-1.701-1.654-3.639-2.482-5.814-2.482c-2.268,0-4.273,0.839-6.018,2.516c-1.746,1.678-2.619,3.831-2.619,6.46v18.972
			c0,0.951-0.566,1.428-1.699,1.428c-1.088,0-1.633-0.477-1.633-1.428V31.774c0-2.538-0.805-4.68-2.414-6.426
			c-1.609-1.745-3.569-2.618-5.881-2.618c-2.268,0-4.273,0.85-6.018,2.55c-1.746,1.7-2.618,3.956-2.618,6.766V50.61
			c0,0.363-0.17,0.703-0.51,1.02c-0.34,0.318-0.737,0.477-1.19,0.477c-0.454,0-0.839-0.146-1.156-0.441
			C93.93,51.37,93.771,51.019,93.771,50.61z"/>
		<path d="M144.158,43.538c0-3.399,1.349-5.768,4.047-7.105c2.696-1.337,6.629-2.006,11.797-2.006h3.672v-1.769
			c0-2.72-0.713-5.066-2.141-7.038c-1.429-1.972-3.57-2.958-6.427-2.958c-1.724,0-3.332,0.317-4.828,0.952
			c-1.495,0.636-2.267,0.952-2.312,0.952c-0.454,0-0.816-0.204-1.088-0.612c-0.272-0.408-0.408-0.816-0.408-1.224
			c0-0.771,0.939-1.484,2.822-2.142c1.881-0.657,3.863-0.986,5.949-0.986c4.035,0,7.004,1.235,8.908,3.706
			c1.904,2.471,2.855,5.587,2.855,9.35V50.61c0,0.408-0.158,0.76-0.475,1.055c-0.318,0.295-0.704,0.441-1.156,0.441
			c-0.454,0-0.84-0.146-1.156-0.441c-0.318-0.295-0.477-0.646-0.477-1.055v-3.264c-2.992,3.445-6.392,5.168-10.199,5.168
			c-2.766,0-5.021-0.759-6.767-2.278C145.031,48.718,144.158,46.485,144.158,43.538z M147.49,43.402c0,2.04,0.601,3.57,1.803,4.591
			c1.2,1.02,2.775,1.529,4.726,1.529c2.312,0,4.499-0.826,6.562-2.482c2.063-1.654,3.094-3.274,3.094-4.861v-5.032h-3.331
			c-1.95,0-3.582,0.067-4.896,0.204c-1.316,0.136-2.631,0.397-3.945,0.781c-1.314,0.387-2.312,1.021-2.991,1.904
			C147.83,40.921,147.49,42.042,147.49,43.402z"/>
	</g>
	<g>
		
			<path fill-rule="evenodd" clip-rule="evenodd" fill="none" stroke="#5EB130" stroke-width="3.2" stroke-linecap="round" stroke-miterlimit="10" d="
			M102.86,14.353C102.86,7.309,89.882,1.6,73.875,1.6c-16.009,0-28.986,5.709-28.986,12.753"/>
	</g>
</g>
</svg>
