<?xml version="1.0" encoding="utf-8"?>
<!-- Generator: Adobe Illustrator 16.0.0, SVG Export Plug-In . SVG Version: 6.00 Build 0)  -->
<!DOCTYPE svg PUBLIC "-//W3C//DTD SVG 1.1//EN" "http://www.w3.org/Graphics/SVG/1.1/DTD/svg11.dtd">
<svg version="1.1" id="Ebene_1" xmlns="http://www.w3.org/2000/svg" xmlns:xlink="http://www.w3.org/1999/xlink" x="0px" y="0px"
	 width="95.544px" height="97.353px" viewBox="-0.49 0.509 95.544 97.353" enable-background="new -0.49 0.509 95.544 97.353"
	 xml:space="preserve">
<g id="svg2" xmlns:rdf="http://www.w3.org/1999/02/22-rdf-syntax-ns#" xmlns:sodipodi="http://sodipodi.sourceforge.net/DTD/sodipodi-0.dtd" xmlns:dc="http://purl.org/dc/elements/1.1/" xmlns:cc="http://creativecommons.org/ns#" xmlns:ns1="http://sozi.baierouge.fr" xmlns:inkscape="http://www.inkscape.org/namespaces/inkscape" xmlns:svg="http://www.w3.org/2000/svg" inkscape:version="0.47 r22583" sodipodi:docname="admin_tools.svg">
	
		<sodipodi:namedview  inkscape:cx="983.51788" showgrid="false" inkscape:cy="601.44005" borderopacity="1.0" pagecolor="#ffffff" inkscape:zoom="0.35" bordercolor="#666666" id="base" inkscape:current-layer="layer1" inkscape:window-y="0" inkscape:pageopacity="0.0" inkscape:pageshadow="2" inkscape:window-height="801" inkscape:window-width="1440" inkscape:window-x="0" inkscape:window-maximized="0" inkscape:document-units="px">
		</sodipodi:namedview>
</g>
<g id="Ebene_2">
	<path opacity="0.75" fill="#666666" enable-background="new    " d="M80.735,72.344l0.006-0.008L54.954,46.55l18.924-18.924
		l1.068,1.068l3.373-0.539l9.045-11.876l-5.014-5.011l-11.877,9.043l-0.539,3.373l1.07,1.068L52.079,43.676L35.343,27.944
		c1.232-4.313,0.156-9.147-3.242-12.543c-2.959-2.961-7.012-4.148-10.859-3.591l6.082,6.084l-2.277,8.502l-8.503,2.277l-6.082-6.083
		c-0.557,3.848,0.631,7.899,3.591,10.86c3.396,3.396,8.232,4.474,12.544,3.241l15.183,14.18c-0.885,0.562-1.994,0.612-2.922,0.154
		L15.518,74.367c-2.49,2.491-2.55,6.466-0.137,8.882c2.418,2.415,6.393,2.354,8.882-0.136l23.284-23.285
		c-0.594-0.968-0.582-2.199,0.029-3.161l24.416,24.418l0.004-0.008c0.041,0.044,0.076,0.088,0.117,0.13
		c2.416,2.414,6.332,2.414,8.746-0.002c2.416-2.414,2.416-6.331,0-8.746C80.821,72.418,80.776,72.384,80.735,72.344z M78.182,78.53
		c-1.084,1.082-2.842,1.082-3.926,0c-1.082-1.084-1.082-2.843,0-3.926c1.084-1.084,2.842-1.084,3.926,0
		C79.266,75.687,79.266,77.446,78.182,78.53z"/>
	<path opacity="0.75" fill="#CCCCCC" stroke="#000000" enable-background="new    " d="M19.238,9.805l6.082,6.083l-2.277,8.503
		l-8.504,2.278l-6.083-6.083c-0.555,3.848,0.631,7.9,3.592,10.86c3.398,3.396,8.232,4.474,12.544,3.241l45.396,44.393l0.006-0.007
		c0.039,0.044,0.074,0.088,0.115,0.129c2.416,2.415,6.332,2.415,8.748-0.001c2.414-2.415,2.416-6.332,0-8.746
		c-0.041-0.042-0.086-0.076-0.129-0.115l0.008-0.007L33.337,25.941c1.234-4.313,0.158-9.147-3.24-12.543
		C27.136,10.436,23.086,9.248,19.238,9.805z M76.178,76.525c-1.084,1.083-2.842,1.083-3.926,0s-1.084-2.842,0-3.926
		c1.084-1.083,2.842-1.083,3.926,0C77.262,73.683,77.262,75.442,76.178,76.525z"/>
	<path opacity="0.75" fill="#CCCCCC" stroke="#000000" enable-background="new    " d="M49.653,53.716l4.047-4.047l-2.938-2.936
		l21.109-21.11l1.068,1.068l3.375-0.539l9.043-11.876l-5.014-5.011l-11.877,9.042L67.93,21.68l1.068,1.069L47.887,43.86
		l-2.938-2.938l-4.103,4.104c0.553,1.119,0.373,2.507-0.559,3.438c-0.93,0.931-2.318,1.109-3.439,0.558L13.51,72.362
		c-2.49,2.492-2.551,6.466-0.137,8.882c2.417,2.416,6.392,2.355,8.882-0.135L45.54,57.824c-0.705-1.153-0.566-2.678,0.434-3.678
		C46.971,53.149,48.497,53.01,49.653,53.716z"/>
</g>
<g opacity="0.75">
	<path fill="#999999" d="M7.863,62.874V32.345c0-0.735,0.368-1.296,1.104-1.68c0.735-0.385,1.615-0.576,2.64-0.576
		c1.023,0,1.903,0.191,2.64,0.576c0.736,0.384,1.104,0.944,1.104,1.68v11.521l8.976-12.721c0.48-0.703,1.136-1.056,1.969-1.056
		c0.991,0,1.975,0.408,2.951,1.224c0.977,0.816,1.465,1.688,1.465,2.616c0,0.513-0.161,0.992-0.48,1.44l-7.872,9.888l9.937,15.216
		c0.255,0.416,0.384,0.833,0.384,1.248c0,0.929-0.48,1.784-1.44,2.568s-1.984,1.176-3.071,1.176c-1.152,0-2.017-0.464-2.593-1.392
		l-8.208-12.48l-2.016,2.592v8.688c0,0.736-0.368,1.304-1.104,1.704s-1.616,0.6-2.64,0.6c-1.024,0-1.904-0.199-2.64-0.6
		C8.231,64.177,7.863,63.61,7.863,62.874z"/>
	<path fill="#999999" d="M35.031,62.874V32.393c0-0.735,0.368-1.304,1.104-1.704c0.735-0.399,1.615-0.6,2.64-0.6
		c1.44,0,2.504,0.208,3.192,0.624c0.688,0.416,1.464,1.456,2.328,3.12l7.775,14.832v-16.32c0-0.735,0.367-1.296,1.104-1.68
		c0.735-0.385,1.615-0.576,2.64-0.576c1.023,0,1.903,0.191,2.64,0.576c0.736,0.384,1.104,0.944,1.104,1.68v30.529
		c0,0.736-0.368,1.304-1.104,1.704s-1.616,0.6-2.64,0.6c-2.048,0-3.44-0.672-4.176-2.016l-9.12-16.609v16.321
		c0,0.736-0.368,1.304-1.104,1.704s-1.616,0.6-2.64,0.6c-1.024,0-1.904-0.199-2.64-0.6C35.399,64.177,35.031,63.61,35.031,62.874z"
		/>
	<path fill="#999999" d="M62.534,61.769c0-0.415,0.145-0.864,0.433-1.344l8.304-12.817l-7.968-12.768
		c-0.32-0.512-0.48-1.008-0.48-1.488c0-0.96,0.528-1.792,1.584-2.496c1.056-0.703,2.144-1.056,3.264-1.056
		c1.057,0,1.808,0.416,2.257,1.248l6.384,11.136l6.384-11.136c0.448-0.832,1.2-1.248,2.256-1.248c1.12,0,2.208,0.353,3.265,1.056
		c1.056,0.704,1.584,1.536,1.584,2.496c0,0.48-0.161,0.977-0.48,1.488L81.35,47.609l8.304,12.817
		c0.288,0.479,0.432,0.929,0.432,1.344c0,0.96-0.552,1.816-1.655,2.568c-1.104,0.752-2.217,1.128-3.336,1.128
		c-0.896,0-1.488-0.257-1.776-0.769L76.31,52.794l-7.008,11.903c-0.32,0.512-0.912,0.769-1.776,0.769
		c-1.12,0-2.232-0.376-3.336-1.128C63.085,63.586,62.534,62.729,62.534,61.769z"/>
</g>
<g>
	<path fill="#00CC33" stroke="#000000" d="M6.863,61.873V31.345c0-0.735,0.368-1.296,1.104-1.68c0.735-0.385,1.615-0.576,2.64-0.576
		c1.023,0,1.903,0.191,2.64,0.576c0.736,0.384,1.104,0.944,1.104,1.68v11.521l8.976-12.721c0.48-0.703,1.136-1.056,1.969-1.056
		c0.991,0,1.975,0.408,2.951,1.224c0.977,0.816,1.465,1.688,1.465,2.616c0,0.513-0.161,0.992-0.48,1.44l-7.872,9.888l9.937,15.215
		c0.255,0.416,0.384,0.833,0.384,1.248c0,0.929-0.48,1.784-1.44,2.568s-1.984,1.176-3.071,1.176c-1.152,0-2.017-0.464-2.593-1.392
		l-8.208-12.48l-2.016,2.592v8.688c0,0.736-0.368,1.304-1.104,1.704s-1.616,0.6-2.64,0.6c-1.024,0-1.904-0.199-2.64-0.6
		C7.231,63.177,6.863,62.609,6.863,61.873z"/>
	<path fill="#00CC33" stroke="#000000" d="M34.031,61.873v-30.48c0-0.735,0.368-1.304,1.104-1.704c0.735-0.399,1.615-0.6,2.64-0.6
		c1.44,0,2.504,0.208,3.192,0.624c0.688,0.416,1.464,1.456,2.328,3.12l7.775,14.832v-16.32c0-0.735,0.367-1.296,1.104-1.68
		c0.735-0.385,1.615-0.576,2.64-0.576c1.023,0,1.903,0.191,2.64,0.576c0.736,0.384,1.104,0.944,1.104,1.68v30.528
		c0,0.736-0.368,1.304-1.104,1.704s-1.616,0.6-2.64,0.6c-2.048,0-3.44-0.672-4.176-2.016l-9.12-16.608v16.32
		c0,0.736-0.368,1.304-1.104,1.704s-1.616,0.6-2.64,0.6c-1.024,0-1.904-0.199-2.64-0.6C34.399,63.177,34.031,62.609,34.031,61.873z"
		/>
	<path fill="#00CC33" stroke="#000000" d="M61.534,60.768c0-0.415,0.145-0.864,0.433-1.344l8.304-12.816l-7.968-12.768
		c-0.32-0.512-0.48-1.008-0.48-1.488c0-0.96,0.528-1.792,1.584-2.496c1.056-0.703,2.144-1.056,3.264-1.056
		c1.057,0,1.808,0.416,2.257,1.248l6.384,11.136l6.384-11.136c0.448-0.832,1.2-1.248,2.256-1.248c1.12,0,2.208,0.353,3.265,1.056
		c1.056,0.704,1.584,1.536,1.584,2.496c0,0.48-0.161,0.977-0.48,1.488L80.35,46.609l8.304,12.816
		c0.288,0.479,0.432,0.929,0.432,1.344c0,0.96-0.552,1.816-1.655,2.568c-1.104,0.752-2.217,1.128-3.336,1.128
		c-0.896,0-1.488-0.257-1.776-0.769L75.31,51.793l-7.008,11.903c-0.32,0.512-0.912,0.769-1.776,0.769
		c-1.12,0-2.232-0.376-3.336-1.128C62.085,62.585,61.534,61.728,61.534,60.768z"/>
</g>
</svg>
