<?xml version="1.0" ?><svg height="22px" version="1.1" viewBox="0 0 22 22" width="22px" xmlns="http://www.w3.org/2000/svg" xmlns:sketch="http://www.bohemiancoding.com/sketch/ns" xmlns:xlink="http://www.w3.org/1999/xlink"><title/><defs><path d="M0,0 L0,6 L6,6 L6,0 L0,0 Z M8,0 L8,6 L14,6 L14,0 L8,0 Z M16,0 L16,6 L22,6 L22,0 L16,0 Z M17,1 L17,5 L21,5 L21,1 L17,1 Z M9,1 L9,5 L13,5 L13,1 L9,1 Z M1,1 L1,5 L5,5 L5,1 L1,1 Z M0,8 L0,14 L6,14 L6,8 L0,8 Z M8,8 L8,14 L14,14 L14,8 L8,8 Z M16,8 L16,14 L22,14 L22,8 L16,8 Z M17,9 L17,13 L21,13 L21,9 L17,9 Z M9,9 L9,13 L13,13 L13,9 L9,9 Z M1,9 L1,13 L5,13 L5,9 L1,9 Z M0,16 L0,22 L6,22 L6,16 L0,16 Z M8,16 L8,22 L14,22 L14,16 L8,16 Z M16,16 L16,22 L22,22 L22,16 L16,16 Z M17,17 L17,21 L21,21 L21,17 L17,17 Z M9,17 L9,21 L13,21 L13,17 L9,17 Z M1,17 L1,21 L5,21 L5,17 L1,17 Z" id="path-1"/></defs><g fill="none" fill-rule="evenodd" id="miu" stroke="none" stroke-width="1"><g id="editor_grid_view_block_outline_stroke"><use fill="#000000" fill-rule="evenodd" xlink:href="#path-1"/><use fill="none" xlink:href="#path-1"/></g></g></svg>