<?xml version="1.0" encoding="utf-8"?>
<!-- Generator: Adobe Illustrator 16.0.0, SVG Export Plug-In . SVG Version: 6.00 Build 0)  -->
<!DOCTYPE svg PUBLIC "-//W3C//DTD SVG 1.1//EN" "http://www.w3.org/Graphics/SVG/1.1/DTD/svg11.dtd">
<svg version="1.1" id="Ebene_1" xmlns="http://www.w3.org/2000/svg" xmlns:xlink="http://www.w3.org/1999/xlink" x="0px" y="0px"
	 width="94.542px" height="96.352px" viewBox="0 0 94.542 96.352" enable-background="new 0 0 94.542 96.352" xml:space="preserve">
<path fill="#999999" stroke="#FFFFFF" stroke-miterlimit="10" d="M81.376,23.029c-4.885,1.119-8.213,5.401-8.34,10.189
	l-12.312,2.819C57.128,25.87,46.404,19.792,35.64,22.254c-2.672,0.617-5.107,1.707-7.25,3.152l-8.433-9.07
	c1.397-2.312,1.937-5.14,1.289-7.976c-1.327-5.793-7.1-9.415-12.89-8.086c-5.791,1.33-9.41,7.099-8.082,12.887
	c1.324,5.796,7.096,9.415,12.886,8.088c1.064-0.243,2.051-0.64,2.951-1.152l8.236,8.862C19.902,33.982,17.861,41,19.473,48.037
	c1.59,6.945,6.376,12.322,12.45,14.951l-3.647,11.86c-0.915-0.028-1.841,0.044-2.772,0.255c-5.795,1.328-9.413,7.1-8.085,12.889
	c1.324,5.793,7.097,9.414,12.891,8.084c5.789-1.322,9.409-7.095,8.082-12.891c-0.681-2.97-2.533-5.361-4.959-6.814l3.657-11.886
	c2.637,0.418,5.398,0.354,8.163-0.278c10.624-2.438,17.588-12.348,16.62-22.909l12.369-2.836c2.198,4.256,7.057,6.66,11.943,5.54
	c5.792-1.327,9.409-7.097,8.086-12.891C92.939,25.32,87.169,21.702,81.376,23.029z M5.517,11.962C4.853,9.07,6.661,6.185,9.558,5.52
	c2.896-0.663,5.781,1.144,6.443,4.039c0.663,2.897-1.146,5.784-4.04,6.445C9.064,16.668,6.179,14.861,5.517,11.962z M29.106,90.834
	c-2.893,0.665-5.781-1.146-6.446-4.042c-0.663-2.896,1.15-5.785,4.043-6.444c2.894-0.665,5.78,1.146,6.445,4.041
	C33.813,87.285,32.003,90.171,29.106,90.834z M36.842,27.5c7.861-1.801,15.682,2.488,18.576,9.755l-4.945,1.135
	c-2.154-4.373-7.086-6.868-12.042-5.733c-0.876,0.201-1.696,0.516-2.463,0.904l-3.848-4.146
	C33.545,28.554,35.126,27.893,36.842,27.5z M35.584,44.344c-0.663-2.896,1.151-5.781,4.043-6.445
	c2.897-0.661,5.781,1.146,6.444,4.044c0.667,2.895-1.144,5.78-4.041,6.443C39.133,49.05,36.249,47.24,35.584,44.344z M24.716,46.833
	c-1.166-5.093,0.23-10.164,3.329-13.9l3.887,4.187c-1.618,2.382-2.283,5.397-1.589,8.427c0.673,2.935,2.483,5.306,4.862,6.763
	l-1.687,5.483C29.222,55.746,25.861,51.833,24.716,46.833z M44.052,58.96c-1.81,0.413-3.612,0.494-5.356,0.304l1.657-5.384
	c0.946,0.041,1.91-0.028,2.878-0.25c4.815-1.104,8.116-5.274,8.339-9.975l4.984-1.143C56.904,50.154,51.771,57.19,44.052,58.96z
	 M84.982,38.76c-2.895,0.663-5.783-1.146-6.447-4.043c-0.664-2.894,1.149-5.78,4.043-6.443c2.896-0.662,5.784,1.146,6.445,4.041
	C89.686,35.209,87.876,38.096,84.982,38.76z"/>
</svg>
